<?xml version="1.0" encoding="utf-8"?>
<!-- Generator: Adobe Illustrator 15.0.2, SVG Export Plug-In . SVG Version: 6.00 Build 0)  -->
<!DOCTYPE svg PUBLIC "-//W3C//DTD SVG 1.1//EN" "http://www.w3.org/Graphics/SVG/1.1/DTD/svg11.dtd">
<svg version="1.1" id="Layer_1" xmlns="http://www.w3.org/2000/svg" xmlns:xlink="http://www.w3.org/1999/xlink" x="0px" y="0px"
	 width="510px" height="591px" viewBox="-4.5 -4.5 510 591" enable-background="new -4.5 -4.5 510 591" xml:space="preserve">
<g id="XMLID_1_">
	<g>
		<path fill="#231F20" d="M500.685,146.635v288.827L250.5,580.38L0.315,435.462V146.635L250.5,1.62L500.685,146.635z
			 M484.564,426.167V155.865L250.5,20.73L16.402,155.865v270.302L250.5,561.302L484.564,426.167z"/>
		<path fill="#EC1C24" d="M484.564,155.865v270.302L250.5,561.302L16.402,426.167V155.865L250.5,20.73L484.564,155.865z
			 M468.868,417.132v-252.2L250.468,38.8l-218.4,126.132v252.2l218.4,126.133L468.868,417.132z"/>
		<path fill="#C1B49A" d="M468.868,164.932v252.2l-43.582-25.188c0.715-1.269,1.104-2.729,1.104-4.29
			c0-4.843-3.802-8.774-8.515-8.774V203.12c4.713,0,8.515-3.9,8.515-8.743c0-1.56-0.39-3.022-1.104-4.29L468.868,164.932z"/>
		<path fill="#231F20" d="M468.868,164.932l-43.582,25.155c-1.432-2.665-4.227-4.485-7.41-4.485c-3.187,0-5.98,1.82-7.442,4.485
			l-152.522-88.075c0.715-1.268,1.104-2.73,1.104-4.29c0-4.842-3.802-8.743-8.516-8.743c-0.064,0-0.13,0-0.194,0l0.163-50.18
			L468.868,164.932z"/>
		<path fill="#231F20" d="M468.868,417.132l-218.4,126.133l-0.163-50.213c0.064,0,0.13,0,0.194,0c4.714,0,8.516-3.932,8.516-8.773
			c0-1.562-0.391-3.022-1.104-4.29l152.522-88.043c1.462,2.665,4.257,4.453,7.442,4.453c3.185,0,5.946-1.788,7.41-4.453
			L468.868,417.132z"/>
		<path fill="#FFFFFF" d="M417.876,378.88c4.713,0,8.515,3.933,8.515,8.774c0,1.561-0.39,3.021-1.104,4.29l-7.41-4.29
			L417.876,378.88L417.876,378.88z"/>
		<path fill="#FFFFFF" d="M417.876,387.654l7.41,4.29c-1.464,2.665-4.227,4.452-7.41,4.452c-3.187,0-5.98-1.787-7.442-4.452
			l7.41-4.29H417.876z"/>
		<path fill="#FFFFFF" d="M425.286,190.087c0.715,1.268,1.104,2.73,1.104,4.29c0,4.843-3.802,8.743-8.515,8.743v-8.743
			L425.286,190.087z"/>
		<path fill="#FFFFFF" d="M417.876,378.88v8.774h-0.032l-7.41-4.29C411.895,380.699,414.689,378.88,417.876,378.88z"/>
		<path fill="#603813" d="M417.876,203.12v175.76c-3.187,0-5.98,1.819-7.442,4.484l-43.713-25.221
			c0.715-1.268,1.104-2.729,1.104-4.321c0-4.844-3.803-8.775-8.516-8.775V236.952c4.713,0,8.516-3.933,8.516-8.775
			c0-1.56-0.391-3.022-1.104-4.29l43.713-25.22C411.895,201.332,414.689,203.12,417.876,203.12z"/>
		<path fill="#FFFFFF" d="M417.876,194.377l-7.442-4.29c1.462-2.665,4.257-4.485,7.442-4.485c3.185,0,5.979,1.82,7.41,4.485
			L417.876,194.377z"/>
		<path fill="#FFFFFF" d="M410.433,198.667l7.442-4.29v8.743C414.689,203.12,411.895,201.332,410.433,198.667z"/>
		<path fill="#FFFFFF" d="M417.876,194.377l-7.442,4.29c-0.715-1.268-1.104-2.73-1.104-4.29s0.391-3.022,1.104-4.29L417.876,194.377
			z"/>
		<path fill="#FFFFFF" d="M417.844,387.654l-7.41,4.29c-0.715-1.269-1.104-2.729-1.104-4.29s0.391-3.022,1.104-4.29L417.844,387.654
			z"/>
		<path fill="#B46D11" d="M257.91,102.012l152.522,88.075c-0.715,1.268-1.104,2.73-1.104,4.29s0.391,3.022,1.104,4.29l-43.713,25.22
			c-1.431-2.665-4.226-4.485-7.41-4.485c-3.186,0-5.979,1.82-7.442,4.485l-93.957-54.243c0.715-1.268,1.104-2.73,1.104-4.29
			c0-4.842-3.802-8.742-8.516-8.742l-0.194-50.115c0.064,0,0.13,0,0.194,0C253.685,106.497,256.479,104.677,257.91,102.012z"/>
		<path fill="#B46D11" d="M366.721,358.145l43.713,25.221c-0.715,1.268-1.104,2.729-1.104,4.29s0.391,3.021,1.104,4.29
			l-152.522,88.043c-1.431-2.665-4.226-4.485-7.41-4.485c-0.064,0-0.162,0-0.228,0v-49.595c4.713,0,8.548-3.934,8.548-8.775
			c0-1.688-0.455-3.217-1.268-4.55l94.313-54.47c1.463,2.665,4.258,4.483,7.442,4.483
			C362.495,362.597,365.259,360.81,366.721,358.145z"/>
		<path fill="#231F20" d="M367.825,353.822c0,1.593-0.391,3.055-1.104,4.321c-1.462,2.665-4.226,4.452-7.41,4.452
			c-3.186,0-5.979-1.818-7.442-4.483l7.442-4.29v-8.775C364.022,345.047,367.825,348.979,367.825,353.822z"/>
		<path fill="#231F20" d="M367.825,228.177c0,4.842-3.803,8.775-8.516,8.775v-8.775l-7.442-4.29
			c1.463-2.665,4.258-4.485,7.442-4.485c3.186,0,5.979,1.82,7.41,4.485C367.435,225.155,367.825,226.617,367.825,228.177z"/>
		<path fill="#231F20" d="M359.31,353.822l-7.442,4.29c-0.715-1.269-1.104-2.73-1.104-4.29c0-1.82,0.552-3.511,1.462-4.907
			c1.527-2.341,4.128-3.868,7.085-3.868L359.31,353.822L359.31,353.822z"/>
		<path fill="#231F20" d="M359.31,228.177v8.775c-3.186,0-5.947-1.788-7.409-4.42c-0.748-1.268-1.138-2.763-1.138-4.355
			c0-1.56,0.39-3.022,1.104-4.29L359.31,228.177z"/>
		<path fill="#F05A28" d="M359.31,236.952v108.095c-2.957,0-5.559,1.527-7.085,3.868l-1.462-1.528V245.11l-37.7,21.417h-0.13V255.38
			l38.968-22.848C353.362,235.165,356.125,236.952,359.31,236.952z"/>
		<path fill="#652D90" d="M350.764,347.387l1.462,1.528c-0.91,1.396-1.462,3.087-1.462,4.907c0,1.56,0.39,3.021,1.104,4.29
			l-94.313,54.47c-1.432-2.47-4.062-4.127-7.054-4.225v-44.948l11.214-6.467l0.097,0.13v41.6L350.764,347.387z"/>
		<polygon fill="#292117" points="350.764,245.11 350.764,347.387 312.64,327.529 312.933,327.367 312.933,266.527 313.062,266.527 
					"/>
		<polygon fill="#C3996B" points="350.764,347.387 261.81,398.672 261.81,357.072 261.714,356.942 304.223,332.372 312.64,327.529 
					"/>
		<polygon fill="#C3996B" points="342.28,227.527 303.02,248.847 302.728,249.367 250.5,219.24 250.468,219.24 250.468,176.6 		"/>
		<polygon fill="#00ADEE" points="308.025,259.442 308.025,317.942 256.577,287.067 		"/>
		<polygon fill="#231F20" points="308.025,259.442 256.577,287.067 256.577,229.672 		"/>
		<polygon fill="#231F20" points="301.461,327.529 250.207,356.942 250.077,298.442 		"/>
		<path fill="#231F20" d="M257.554,412.582l-7.054,4.062v-8.286C253.49,408.455,256.122,410.112,257.554,412.582z"/>
		<path fill="#EB008B" d="M308.025,317.942v-58.5l-51.448-29.77v57.395L308.025,317.942z M312.64,327.529l-62.335-36.206
			l0.163-72.053v-0.032h0.032l62.304,36.205L312.64,327.529z"/>
		<path fill="#FFFFFF" d="M250.305,106.497l-0.032-8.645l0.228-0.13l7.41,4.29c-1.431,2.665-4.226,4.485-7.41,4.485
			C250.436,106.497,250.37,106.497,250.305,106.497z"/>
		<path fill="#FFFFFF" d="M250.272,484.148v-8.646c0.065,0,0.163,0,0.228,0c3.186,0,5.979,1.82,7.41,4.485l-7.41,4.29
			L250.272,484.148z"/>
		<path fill="#231F20" d="M250.5,165.355l7.41,4.29c-1.431,2.665-4.226,4.485-7.41,4.485s-5.979-1.82-7.441-4.485L250.5,165.355z"/>
		<path fill="#FFF100" d="M350.764,228.177c0,1.592,0.39,3.087,1.138,4.355l-38.968,22.848v-0.098l-10.205-5.915l0.292-0.521
			l39.261-21.32l-91.812-50.928l0.032-2.47c3.186,0,5.979-1.82,7.41-4.485l93.957,54.243
			C351.152,225.155,350.764,226.617,350.764,228.177z"/>
		<path fill="#FFFFFF" d="M250.272,97.722l0.032-8.743c0.064,0,0.13,0,0.194,0c4.714,0,8.516,3.9,8.516,8.743
			c0,1.56-0.391,3.022-1.104,4.29l-7.41-4.29l-0.228,0.13V97.722z"/>
		<path fill="#231F20" d="M243.122,412.387c1.495-2.438,4.127-4.028,7.15-4.028c0.065,0,0.163,0,0.228,0v8.286L243.122,412.387z"/>
		<path fill="#603813" d="M250.305,106.497l0.194,50.115c-4.712,0-8.547,3.9-8.547,8.742c0,1.56,0.391,3.022,1.105,4.29
			l-93.925,54.243c-1.462-2.665-4.258-4.485-7.442-4.485c-3.217,0-6.013,1.82-7.442,4.517l-43.712-25.252
			c0.715-1.268,1.105-2.73,1.105-4.29s-0.391-3.022-1.105-4.29l152.522-88.075C244.487,104.645,247.186,106.432,250.305,106.497z"/>
		<path fill="#FFFFFF" d="M250.305,493.052l-0.032-8.773v-0.13l0.228,0.13l7.41-4.29c0.715,1.268,1.104,2.729,1.104,4.29
			c0,4.843-3.802,8.773-8.516,8.773C250.436,493.052,250.37,493.052,250.305,493.052z"/>
		<polygon fill="#00ADEE" points="250.468,219.24 250.468,219.272 240.782,224.83 		"/>
		<polygon fill="#292117" points="250.468,176.6 250.468,219.24 240.782,224.83 197.721,249.53 197.33,248.847 159.662,227.527 		
			"/>
		<path fill="#C1B49A" d="M250.468,38.8l-0.163,50.18c-4.615,0.098-8.353,3.965-8.353,8.743c0,1.56,0.391,3.022,1.105,4.29
			L90.535,190.087c-1.43-2.665-4.225-4.485-7.41-4.485c-3.185,0-5.979,1.82-7.441,4.485l-43.615-25.155L250.468,38.8z"/>
		<path fill="#C1B49A" d="M250.305,493.052l0.163,50.213l-218.4-126.133l43.615-25.188c1.462,2.665,4.257,4.452,7.441,4.452
			c3.186,0,5.947-1.787,7.41-4.452l152.522,88.043c-0.715,1.268-1.105,2.729-1.105,4.29
			C241.952,489.055,245.69,492.955,250.305,493.052z"/>
		<path fill="#FFFFFF" d="M250.272,97.852l0.032,8.645c-3.12-0.065-5.817-1.853-7.247-4.485L250.272,97.852z"/>
		<path fill="#FFFFFF" d="M250.272,475.502v8.646l-7.215-4.159C244.455,477.387,247.152,475.6,250.272,475.502z"/>
		<path fill="#603813" d="M250.272,425.907v49.595c-3.12,0.098-5.817,1.885-7.215,4.485L90.535,391.944
			c0.715-1.269,1.105-2.729,1.105-4.29s-0.391-3.022-1.105-4.29l43.16-24.928c1.203,3.348,4.323,5.721,7.995,5.721
			s6.825-2.373,7.995-5.721l93.438,53.949c-0.877,1.365-1.364,2.99-1.364,4.745C241.758,421.975,245.561,425.907,250.272,425.907z"
			/>
		<polygon fill="#EB008B" points="250.077,298.442 250.207,356.942 199.085,327.529 		"/>
		<path fill="#231F20" d="M243.122,412.387l7.377,4.258l7.054-4.062c0.812,1.333,1.268,2.86,1.268,4.55
			c0,4.843-3.835,8.775-8.548,8.775c-4.712,0-8.515-3.934-8.515-8.775C241.758,415.377,242.245,413.752,243.122,412.387z"/>
		<path fill="#FFFFFF" d="M241.952,97.722c0-4.777,3.737-8.645,8.353-8.743l-0.032,8.743v0.13l-7.215,4.16
			C242.343,100.745,241.952,99.282,241.952,97.722z"/>
		<path fill="#231F20" d="M250.5,165.355l-7.441,4.29c-0.715-1.268-1.105-2.73-1.105-4.29c0-4.842,3.835-8.742,8.547-8.742
			c4.714,0,8.516,3.9,8.516,8.742c0,1.56-0.391,3.022-1.104,4.29L250.5,165.355z"/>
		<path fill="#FFFFFF" d="M243.058,479.987l7.215,4.159v0.131l0.032,8.773c-4.615-0.097-8.353-3.997-8.353-8.773
			C241.952,482.717,242.343,481.255,243.058,479.987z"/>
		<polygon fill="#FFF100" points="243.577,229.672 243.577,287.067 192.131,259.442 		"/>
		<polygon fill="#231F20" points="243.577,287.067 192.131,317.942 192.131,259.442 		"/>
		<polygon fill="#292117" points="239.678,357.332 239.19,358.21 239.19,399.81 150.628,348.752 150.237,348.523 187.775,327.237 		
			"/>
		<path fill="#FFF100" d="M250.207,356.942l51.252-29.413l-51.382-29.087l-50.993,29.087L250.207,356.942z M250.305,291.325
			l62.335,36.205l-8.417,4.843l-53.885,30.939l-62.271-35.944v-0.293L250.305,291.325z"/>
		<path fill="#00ADEE" d="M243.577,287.067v-57.395l-51.447,29.77v58.5L243.577,287.067z M250.468,219.272l-0.163,72.053
			l-62.237,35.75v-71.792l52.715-30.453L250.468,219.272z"/>
		<polygon fill="#FFF100" points="188.067,327.367 250.338,363.312 250.143,363.409 239.678,357.332 187.775,327.237 
			188.067,327.074 		"/>
		<polygon fill="#00ADEE" points="188.067,255.282 188.067,327.074 187.775,327.237 187.938,267.665 187.971,255.152 
			197.721,249.53 240.782,224.83 		"/>
		<polygon fill="#C3996B" points="187.938,267.665 187.775,327.237 150.237,348.523 150.237,246.247 		"/>
		<path fill="#EC1C24" d="M243.058,169.645c1.462,2.665,4.257,4.485,7.441,4.485l-0.032,2.47l-90.806,50.928l37.667,21.32
			l0.391,0.683l-9.75,5.623l-38.87-22.62c0.748-1.268,1.137-2.763,1.137-4.355c0-1.56-0.39-3.021-1.104-4.29L243.058,169.645z"/>
		<path fill="#00ADEE" d="M250.143,363.409l0.195-0.098l0.162,0.098v44.948c-0.064,0-0.162,0-0.228,0
			c-3.022,0-5.655,1.592-7.15,4.028l-93.438-53.949c0.356-0.941,0.552-1.949,0.552-3.021c0-1.495-0.356-2.926-1.04-4.193l1.43-2.47
			l88.562,51.058v-41.6l0.487-0.878L250.143,363.409z"/>
		<path fill="#29B473" d="M150.237,246.247v102.276l0.391,0.229l-1.431,2.47c-1.43-2.729-4.257-4.582-7.507-4.582V236.952
			c3.185,0,5.947-1.788,7.41-4.42l38.87,22.62l-0.032,12.512L150.237,246.247z"/>
		<path fill="#231F20" d="M150.237,355.415c0,1.072-0.195,2.08-0.552,3.021l-7.995-4.614v-7.184c3.25,0,6.078,1.854,7.507,4.582
			C149.881,352.489,150.237,353.92,150.237,355.415z"/>
		<path fill="#231F20" d="M149.101,232.532c-1.463,2.632-4.226,4.42-7.41,4.42v-8.775l7.442-4.29c0.715,1.268,1.104,2.73,1.104,4.29
			C150.237,229.77,149.848,231.265,149.101,232.532z"/>
		<path fill="#231F20" d="M141.69,353.822l7.995,4.614c-1.17,3.348-4.323,5.721-7.995,5.721s-6.792-2.373-7.995-5.721
			c-0.325-0.941-0.52-1.949-0.52-3.021c0-4.843,3.803-8.775,8.515-8.775V353.822z"/>
		<path fill="#B46D11" d="M141.69,236.952V346.64c-4.712,0-8.515,3.934-8.515,8.775c0,1.072,0.194,2.08,0.52,3.021l-43.16,24.928
			c-1.43-2.665-4.225-4.484-7.41-4.484V203.12c3.186,0,5.98-1.788,7.41-4.453l43.712,25.252c-0.683,1.268-1.072,2.698-1.072,4.258
			C133.176,233.02,136.978,236.952,141.69,236.952z"/>
		<path fill="#231F20" d="M141.69,228.177v8.775c-4.712,0-8.515-3.933-8.515-8.775c0-1.56,0.39-2.99,1.072-4.258
			c1.431-2.697,4.226-4.517,7.442-4.517c3.185,0,5.98,1.82,7.442,4.485L141.69,228.177z"/>
		<path fill="#FFFFFF" d="M91.641,194.377c0,1.56-0.391,3.022-1.105,4.29l-7.41-4.257v-0.033l7.41-4.29
			C91.25,191.355,91.641,192.817,91.641,194.377z"/>
		<path fill="#FFFFFF" d="M90.535,383.364c0.715,1.268,1.105,2.729,1.105,4.29s-0.391,3.021-1.105,4.29l-7.41-4.29L90.535,383.364z"
			/>
		<path fill="#FFFFFF" d="M83.125,378.88c3.186,0,5.98,1.819,7.41,4.484l-7.41,4.29V378.88z"/>
		<path fill="#FFFFFF" d="M83.125,194.41l7.41,4.257c-1.43,2.665-4.225,4.453-7.41,4.453V194.41z"/>
		<path fill="#231F20" d="M83.125,203.12v175.76c-4.712,0-8.547,3.933-8.547,8.774c0,1.561,0.391,3.021,1.105,4.29l-43.615,25.188
			v-252.2l43.615,25.155c-0.715,1.268-1.105,2.73-1.105,4.29C74.577,199.22,78.412,203.12,83.125,203.12z"/>
		<path fill="#FFFFFF" d="M83.125,194.377l-7.441-4.29c1.462-2.665,4.257-4.485,7.441-4.485c3.186,0,5.98,1.82,7.41,4.485
			L83.125,194.377z"/>
		<path fill="#FFFFFF" d="M83.125,396.398c-3.185,0-5.979-1.788-7.441-4.453l7.441-4.29l7.41,4.29
			C89.072,394.609,86.311,396.398,83.125,396.398z"/>
		<path fill="#FFFFFF" d="M83.125,194.377v0.033v8.71c-4.712,0-8.547-3.9-8.547-8.743c0-1.56,0.391-3.022,1.105-4.29L83.125,194.377
			z"/>
		<path fill="#FFFFFF" d="M83.125,387.654l-7.441,4.29c-0.715-1.269-1.105-2.729-1.105-4.29c0-4.843,3.835-8.774,8.547-8.774
			V387.654z"/>
	</g>
	<g>
		<polygon fill="none" stroke="#231F20" stroke-width="2.4375" stroke-miterlimit="10" points="500.685,435.462 250.5,580.38 
			0.315,435.462 0.315,146.635 250.5,1.62 500.685,146.635 		"/>
		<polygon fill="none" stroke="#231F20" stroke-width="2.4375" stroke-miterlimit="10" points="468.868,417.132 250.468,543.265 
			32.067,417.132 32.067,164.932 250.468,38.8 468.868,164.932 		"/>
		
			<line fill="none" stroke="#231F20" stroke-width="2.4375" stroke-miterlimit="10" x1="250.5" y1="363.409" x2="250.5" y2="408.357"/>
		
			<line fill="none" stroke="#231F20" stroke-width="2.4375" stroke-miterlimit="10" x1="359.31" y1="236.952" x2="359.31" y2="345.047"/>
		
			<line fill="none" stroke="#231F20" stroke-width="2.4375" stroke-miterlimit="10" x1="257.91" y1="169.645" x2="351.867" y2="223.887"/>
		
			<line fill="none" stroke="#231F20" stroke-width="2.4375" stroke-miterlimit="10" x1="149.133" y1="223.887" x2="243.058" y2="169.645"/>
		
			<line fill="none" stroke="#231F20" stroke-width="2.4375" stroke-miterlimit="10" x1="141.69" y1="346.64" x2="141.69" y2="236.952"/>
		
			<line fill="none" stroke="#231F20" stroke-width="2.4375" stroke-miterlimit="10" x1="243.122" y1="412.387" x2="149.686" y2="358.438"/>
		
			<line fill="none" stroke="#231F20" stroke-width="2.4375" stroke-miterlimit="10" x1="351.867" y1="358.112" x2="257.554" y2="412.582"/>
		<path fill="none" stroke="#231F20" stroke-width="2.4375" stroke-miterlimit="10" d="M359.31,345.047
			c4.713,0,8.516,3.933,8.516,8.775c0,1.593-0.391,3.055-1.104,4.321c-1.462,2.665-4.226,4.452-7.41,4.452
			c-3.186,0-5.979-1.818-7.442-4.483c-0.715-1.269-1.104-2.73-1.104-4.29c0-1.82,0.552-3.511,1.462-4.907
			C353.753,346.574,356.353,345.047,359.31,345.047z"/>
		<path fill="none" stroke="#231F20" stroke-width="2.4375" stroke-miterlimit="10" d="M149.133,223.887
			c0.715,1.268,1.104,2.73,1.104,4.29c0,1.592-0.39,3.087-1.137,4.355c-1.463,2.632-4.226,4.42-7.41,4.42
			c-4.712,0-8.515-3.933-8.515-8.775c0-1.56,0.39-2.99,1.072-4.258c1.431-2.697,4.226-4.517,7.442-4.517
			C144.875,219.402,147.671,221.222,149.133,223.887z"/>
		<path fill="none" stroke="#231F20" stroke-width="2.4375" stroke-miterlimit="10" d="M366.721,223.887
			c0.715,1.268,1.104,2.73,1.104,4.29c0,4.842-3.803,8.775-8.516,8.775c-3.186,0-5.947-1.788-7.409-4.42
			c-0.748-1.268-1.138-2.763-1.138-4.355c0-1.56,0.39-3.022,1.104-4.29c1.463-2.665,4.258-4.485,7.442-4.485
			C362.495,219.402,365.29,221.222,366.721,223.887z"/>
		<path fill="none" stroke="#231F20" stroke-width="2.4375" stroke-miterlimit="10" d="M257.554,412.582
			c0.812,1.333,1.268,2.86,1.268,4.55c0,4.843-3.835,8.775-8.548,8.775c-4.712,0-8.515-3.934-8.515-8.775
			c0-1.755,0.487-3.38,1.364-4.745c1.495-2.438,4.127-4.028,7.15-4.028c0.065,0,0.163,0,0.228,0
			C253.49,408.455,256.122,410.112,257.554,412.582z"/>
		<path fill="none" stroke="#231F20" stroke-width="2.4375" stroke-miterlimit="10" d="M149.197,351.222
			c0.684,1.269,1.04,2.698,1.04,4.193c0,1.072-0.195,2.08-0.552,3.021c-1.17,3.348-4.323,5.721-7.995,5.721
			s-6.792-2.373-7.995-5.721c-0.325-0.941-0.52-1.949-0.52-3.021c0-4.843,3.803-8.775,8.515-8.775
			C144.94,346.64,147.768,348.492,149.197,351.222z"/>
		<path fill="none" stroke="#231F20" stroke-width="2.4375" stroke-miterlimit="10" d="M250.5,156.612
			c4.714,0,8.516,3.9,8.516,8.742c0,1.56-0.391,3.022-1.104,4.29c-1.431,2.665-4.226,4.485-7.41,4.485s-5.979-1.82-7.441-4.485
			c-0.715-1.268-1.105-2.73-1.105-4.29C241.952,160.512,245.787,156.612,250.5,156.612z"/>
		<polyline fill="none" stroke="#231F20" stroke-width="2.4375" stroke-miterlimit="10" points="250.5,219.24 302.728,249.367 
			312.933,255.282 312.933,255.38 312.933,266.527 312.933,327.367 312.64,327.529 		"/>
		<polyline fill="none" stroke="#231F20" stroke-width="2.4375" stroke-miterlimit="10" points="304.223,332.372 261.714,356.942 
			250.5,363.409 250.338,363.312 		"/>
		<polygon fill="none" stroke="#FFFFFF" stroke-width="2.4375" stroke-miterlimit="10" points="192.131,259.442 243.577,229.672 
			243.577,287.067 192.131,317.942 		"/>
		<polygon fill="none" stroke="#FFFFFF" stroke-width="2.4375" stroke-miterlimit="10" points="308.025,259.442 256.577,229.672 
			256.577,287.067 308.025,317.942 		"/>
		<polygon fill="none" stroke="#FFFFFF" stroke-width="2.4375" stroke-miterlimit="10" points="250.207,356.942 301.461,327.529 
			250.077,298.442 199.085,327.529 		"/>
		<polyline fill="none" stroke="#231F20" stroke-width="2.4375" stroke-miterlimit="10" points="187.971,255.152 149.101,232.532 
			149.067,232.5 		"/>
		<polyline fill="none" stroke="#231F20" stroke-width="2.4375" stroke-miterlimit="10" points="312.804,255.445 312.933,255.38 
			351.9,232.532 351.966,232.5 		"/>
		<polyline fill="none" stroke="#FFFFFF" stroke-width="2.4375" stroke-miterlimit="10" points="303.02,248.847 342.28,227.527 
			250.468,176.6 159.662,227.527 197.33,248.847 		"/>
		<polyline fill="none" stroke="#FFFFFF" stroke-width="2.4375" stroke-miterlimit="10" points="187.938,267.665 150.237,246.247 
			150.237,348.523 150.628,348.752 239.19,399.81 239.19,358.21 		"/>
		<polyline fill="none" stroke="#FFFFFF" stroke-width="2.4375" stroke-miterlimit="10" points="313.062,266.527 350.764,245.11 
			350.764,347.387 261.81,398.672 261.81,357.072 		"/>
		<polygon fill="none" stroke="#231F20" stroke-width="2.4375" stroke-miterlimit="10" points="187.971,255.152 197.721,249.53 
			240.782,224.83 250.468,219.24 250.5,219.24 312.804,255.445 312.64,327.529 304.223,332.372 250.338,363.312 250.143,363.409 
			239.678,357.332 187.775,327.237 187.938,267.665 		"/>
		<polygon fill="none" stroke="#231F20" stroke-width="3.25" stroke-miterlimit="10" points="484.564,426.167 250.5,561.302 
			16.402,426.167 16.402,155.865 250.5,20.73 484.564,155.865 		"/>
	</g>
</g>
</svg>
