<?xml version="1.0" encoding="utf-8"?>
<!-- Generator: Adobe Illustrator 15.0.2, SVG Export Plug-In . SVG Version: 6.00 Build 0)  -->
<!DOCTYPE svg PUBLIC "-//W3C//DTD SVG 1.1//EN" "http://www.w3.org/Graphics/SVG/1.1/DTD/svg11.dtd">
<svg version="1.1" id="Layer_1" xmlns="http://www.w3.org/2000/svg" xmlns:xlink="http://www.w3.org/1999/xlink" x="0px" y="0px"
	 width="524.5px" height="600px" viewBox="0 0 524.5 600" enable-background="new 0 0 524.5 600" xml:space="preserve">
<g>
	<g id="XMLID_1_">
		<g>
			<polygon fill="#FFF100" points="472.205,180.466 472.153,420.484 472.02,420.568 450.72,408.347 450.737,408.33 450.77,192.755 
							"/>
			<path fill="#231F20" d="M294.573,213.248c56.453-68.021-31.808-78.292-31.808-78.292s-0.135,0.017-0.387,0.051V85.144
				l0.387-0.219l188.003,107.813v0.017l-129.685,74.324c7.448-8.776,8.776-14.24,7.347-17.619
				c-2.655-6.355-14.995-5.414-14.995-5.414C322.044,214.525,294.573,213.248,294.573,213.248z"/>
			<polygon fill="#F6921E" points="262.346,540.334 262.346,515.891 262.733,516.109 450.72,408.347 472.02,420.568 
				262.531,540.637 			"/>
			<path fill="#231F20" d="M351.094,351.204l99.626,57.143L262.733,516.109l-0.388-0.219v-51.124c0.135,0,0.252,0,0.388,0h0.033
				c37.507,0,89.136-14.104,89.136-14.104c4.841-17.147-22.965-24.395-22.965-24.395
				C349.547,401.067,354.002,374.757,351.094,351.204z"/>
			<path fill="#FFF100" d="M351.094,351.204l-88.36-50.688l32.463-18.593c6.606-1.95,13.281-4.674,19.904-8.373
				C315.101,273.552,345.714,307.646,351.094,351.204z"/>
			<path fill="#FAAF40" d="M351.902,450.66c0,0-51.629,14.105-89.136,14.105h-0.033c-0.136,0-0.252,0-0.388,0v-25.419
				c20.46,0.403,43.678-2.674,66.592-13.08C328.938,426.268,356.742,433.514,351.902,450.66z"/>
			<path fill="#26A9E0" d="M328.432,249.461c1.431,3.379,0.103,8.843-7.347,17.619l-25.89,14.845
				c-11.364,3.345-22.527,4.404-32.833,4.135v-20.561C282.688,266.003,305.737,262.254,328.432,249.461z"/>
			<path fill="#00ADEE" d="M313.438,244.047c0,0,12.339-0.941,14.994,5.414c-22.694,12.793-45.743,16.542-66.068,16.038v-10.658
				C276.888,254.572,294.104,251.747,313.438,244.047z"/>
			<path fill="#231F20" d="M450.72,408.347l-99.626-57.143c-5.38-43.56-35.993-77.653-35.993-77.653
				c2.338-2.336,4.32-4.489,5.984-6.472l129.685-74.324l-0.032,215.575L450.72,408.347z"/>
			<path fill="#26A9E0" d="M295.195,281.924l-32.463,18.593l-0.37-0.202v-14.256C272.668,286.328,283.831,285.269,295.195,281.924z"
				/>
			<path fill="#00ADEE" d="M262.766,134.957c0,0,88.261,10.271,31.808,78.292c0,0-13.097,5.8-32.211,5.699l0.017-83.94
				C262.632,134.974,262.766,134.957,262.766,134.957z"/>
			<path fill="#F6921E" d="M351.094,351.204c2.908,23.553-1.547,49.862-22.156,75.062c-22.914,10.406-46.132,13.483-66.592,13.08
				l0.018-138.611l0.37-0.22L351.094,351.204z"/>
			<path fill="#26A9E0" d="M313.438,244.047c-19.334,7.7-36.55,10.524-51.074,10.793v-35.893
				c19.115,0.101,32.211-5.699,32.211-5.699S322.044,214.525,313.438,244.047z"/>
			<polygon fill="#545456" points="262.733,300.517 262.362,300.736 262.362,300.315 			"/>
			<polygon fill="#26A9E0" points="262.38,59.977 262.195,59.641 262.396,59.522 472.205,179.861 472.205,180.466 450.77,192.755 
				450.77,192.739 262.766,84.926 262.38,85.144 			"/>
			<path fill="#EC1944" d="M262.362,286.059v14.256l-35.354-20.274C236.17,282.898,248.493,285.673,262.362,286.059z"/>
			<path fill="#009345" d="M262.362,300.315v0.421l-87.924,50.4c5.396-43.525,35.96-77.585,35.96-77.585s6.304,3.278,16.609,6.489
				L262.362,300.315z"/>
			<polygon fill="#90278E" points="262.346,515.891 262.346,540.334 262.531,540.637 262.329,540.755 53.008,420.72 74.729,408.279 
				74.729,408.313 			"/>
			<path fill="#545456" d="M472.02,420.568l0.136-0.084l0.051-240.019v-0.604L262.396,59.522l-0.202,0.118L52.537,179.81v0.388
				l-0.034,240.237l0.504,0.285l209.321,120.035l0.202-0.118L472.02,420.568z M514.737,444.896L262.329,589.593L9.953,444.861
				L9.97,155.417L262.38,10.72l252.375,144.748L514.737,444.896z"/>
			<path fill="#EC1C24" d="M230.942,213.248c-54.284-65.397,25.218-77.417,31.438-78.241l-0.017,83.94
				C253.049,218.896,242.306,217.452,230.942,213.248z"/>
			<path fill="#EC1944" d="M262.362,254.841c-31.505,0.622-50.3-10.793-50.3-10.793c-8.591-29.521,18.879-30.799,18.879-30.799
				c11.364,4.203,22.106,5.648,31.421,5.699V254.841z"/>
			<path fill="#EC1C24" d="M197.067,249.461c2.655-6.355,14.996-5.414,14.996-5.414s18.795,11.416,50.3,10.793v10.658
				C225.158,264.591,197.067,249.461,197.067,249.461z"/>
			<path fill="#EC1944" d="M204.396,267.062c-7.432-8.774-8.76-14.223-7.33-17.602c0,0,28.092,15.13,65.296,16.038v20.561
				c-13.87-0.387-26.192-3.161-35.354-6.019L204.396,267.062z"/>
			<path fill="#231F20" d="M262.38,135.008c-6.22,0.824-85.722,12.844-31.438,78.241c0,0-27.471,1.278-18.879,30.799
				c0,0-12.34-0.941-14.996,5.414c-1.43,3.379-0.102,8.826,7.33,17.602L74.762,192.722L262.38,85.144V135.008z"/>
			<path fill="#90278E" d="M173.614,450.66c-4.842-17.146,22.948-24.394,22.948-24.394s28.242,12.356,65.783,13.08v25.419
				C224.873,464.665,173.614,450.66,173.614,450.66z"/>
			<path fill="#231F20" d="M174.438,351.137l-99.709,57.143l0.033-215.558l129.635,74.341c1.665,1.984,3.665,4.153,6.002,6.489
				C210.398,273.552,179.835,307.611,174.438,351.137z"/>
			<path fill="#652D90" d="M262.346,439.348c-37.541-0.724-65.783-13.08-65.783-13.08c-20.629-25.234-25.066-51.561-22.124-75.131
				l87.924-50.4L262.346,439.348z"/>
			<path fill="#231F20" d="M196.562,426.268c0,0-27.79,7.246-22.948,24.395c0,0,51.258,14.004,88.73,14.104v51.124L74.729,408.313
				v-0.034l99.709-57.143C171.496,374.707,175.934,401.033,196.562,426.268z"/>
			<polygon fill="#009345" points="74.762,192.722 74.729,408.279 53.008,420.72 52.504,420.435 52.537,180.197 52.941,180.197 			
				"/>
			<polygon fill="#EC1C24" points="52.537,179.81 262.195,59.641 262.38,59.977 262.38,85.144 74.762,192.722 52.941,180.197 
				52.537,180.197 			"/>
		</g>
		<g>
			<polygon fill="none" stroke="#FFFFFF" stroke-width="9.75" stroke-miterlimit="10" points="74.762,192.722 262.38,85.144 
				262.766,84.926 450.77,192.739 450.77,192.755 450.737,408.33 450.72,408.347 262.733,516.109 262.346,515.891 74.729,408.313 
				74.729,408.279 			"/>
			<path fill="none" stroke="#FFFFFF" stroke-width="3.25" stroke-miterlimit="10" d="M262.766,134.957c0,0-0.135,0.017-0.387,0.051
				c-6.22,0.824-85.722,12.844-31.438,78.241c0,0-27.471,1.278-18.879,30.799c0,0-12.34-0.941-14.996,5.414
				c-1.43,3.379-0.102,8.826,7.33,17.602c1.665,1.984,3.665,4.153,6.002,6.489c0,0-30.563,34.061-35.96,77.585
				c-2.942,23.57,1.495,49.896,22.124,75.131c0,0-27.79,7.246-22.948,24.395c0,0,51.258,14.004,88.73,14.104
				c0.135,0,0.252,0,0.388,0"/>
			<path fill="none" stroke="#FFFFFF" stroke-width="3.25" stroke-miterlimit="10" d="M262.766,134.957
				c0,0,88.261,10.271,31.808,78.292c0,0,27.471,1.278,18.863,30.799c0,0,12.339-0.941,14.994,5.414
				c1.431,3.379,0.103,8.843-7.347,17.619c-1.664,1.982-3.646,4.136-5.984,6.472c0,0,30.613,34.094,35.993,77.653
				c2.908,23.553-1.547,49.862-22.157,75.062c0,0,27.807,7.246,22.966,24.395c0,0-51.629,14.104-89.136,14.104"/>
			<path fill="none" stroke="#FFFFFF" stroke-width="3.25" stroke-miterlimit="10" d="M294.573,213.248c0,0-13.097,5.8-32.211,5.699
				c-9.313-0.051-20.057-1.496-31.421-5.699"/>
			<path fill="none" stroke="#FFFFFF" stroke-width="3.25" stroke-miterlimit="10" d="M212.062,244.047
				c0,0,18.795,11.416,50.3,10.793c14.524-0.269,31.739-3.094,51.074-10.793"/>
			<path fill="none" stroke="#FFFFFF" stroke-width="3.25" stroke-miterlimit="10" d="M197.067,249.461
				c0,0,28.092,15.13,65.296,16.038c20.325,0.504,43.374-3.245,66.068-16.038"/>
			<path fill="none" stroke="#FFFFFF" stroke-width="3.25" stroke-miterlimit="10" d="M210.398,273.552
				c0,0,6.304,3.278,16.609,6.489c9.162,2.857,21.485,5.632,35.354,6.019c10.306,0.27,21.469-0.79,32.833-4.135
				c6.606-1.95,13.28-4.674,19.904-8.373"/>
			<path fill="none" stroke="#FFFFFF" stroke-width="3.25" stroke-miterlimit="10" d="M196.562,426.268
				c0,0,28.242,12.356,65.783,13.08c20.46,0.403,43.678-2.674,66.592-13.08"/>
			<polyline fill="none" stroke="#FFFFFF" stroke-width="2.4375" stroke-miterlimit="10" points="52.941,180.197 74.762,192.722 
				204.396,267.062 227.008,280.041 262.362,300.315 262.733,300.517 351.094,351.204 450.72,408.347 472.02,420.568 
				472.558,420.871 			"/>
			<polyline fill="none" stroke="#FFFFFF" stroke-width="2.4375" stroke-miterlimit="10" points="472.591,180.247 472.205,180.466 
				450.77,192.755 321.085,267.079 295.195,281.924 262.733,300.517 262.362,300.736 174.438,351.137 74.729,408.279 53.008,420.72 
				52.907,420.787 			"/>
			<polyline fill="none" stroke="#FFFFFF" stroke-width="2.4375" stroke-miterlimit="10" points="262.38,59.977 262.38,85.144 
				262.38,135.008 262.362,218.948 262.362,254.841 262.362,265.499 262.362,286.059 262.362,300.315 262.362,300.736 
				262.346,439.348 262.346,464.767 262.346,515.891 262.346,540.334 			"/>
			<polygon fill="none" stroke="#231F20" stroke-width="9.75" stroke-miterlimit="10" points="52.537,180.197 52.537,179.81 
				262.195,59.641 262.396,59.522 472.205,179.861 472.205,180.466 472.153,420.484 472.02,420.568 262.531,540.637 
				262.329,540.755 53.008,420.72 52.504,420.435 			"/>
			<polygon fill="none" stroke="#231F20" stroke-width="6.5" stroke-miterlimit="10" points="9.97,155.417 262.38,10.72 
				514.755,155.467 514.737,444.896 262.329,589.593 9.953,444.861 			"/>
		</g>
	</g>
	
		<polygon opacity="0.53" fill="none" stroke="#231F20" stroke-width="19.5" stroke-miterlimit="10" enable-background="new    " points="
		493.241,432.699 261.64,565.221 30.048,432.699 30.048,167.666 261.64,35.157 493.241,167.666 	"/>
	<polygon fill="none" points="22.759,162.186 22.734,437.451 262.757,575.109 502.806,437.496 502.825,162.223 262.808,24.569 	"/>
	
		<text transform="matrix(0.8675 -0.4974 0.4974 0.8675 280.8906 564.7178)" fill="#FFFFFF" font-family="'Cambay-Regular'" font-size="21.521"> </text>
	
		<text transform="matrix(0.8675 -0.4974 0.4974 0.8675 286.0361 561.7686)" fill="#FFFFFF" font-family="'Cambay-Regular'" font-size="21.521">B</text>
	
		<text transform="matrix(0.8675 -0.4974 0.4974 0.8675 297.6699 555.0977)" fill="#FFFFFF" font-family="'Cambay-Regular'" font-size="21.521">O</text>
	
		<text transform="matrix(0.8675 -0.4974 0.4974 0.8675 311.7939 546.998)" fill="#FFFFFF" font-family="'Cambay-Regular'" font-size="21.521">A</text>
	
		<text transform="matrix(0.8675 -0.4974 0.4974 0.8675 323.1973 540.46)" fill="#FFFFFF" font-family="'Cambay-Regular'" font-size="21.521">R</text>
	
		<text transform="matrix(0.8675 -0.4974 0.4974 0.8675 334.7617 533.8301)" fill="#FFFFFF" font-family="'Cambay-Regular'" font-size="21.521">D</text>
	
		<text transform="matrix(0.8675 -0.4974 0.4974 0.8675 347.7832 526.3623)" fill="#FFFFFF" font-family="'Cambay-Regular'" font-size="21.521"> </text>
	
		<text transform="matrix(0.8675 -0.4974 0.4974 0.8675 352.9307 523.4111)" fill="#FFFFFF" font-family="'Cambay-Regular'" font-size="21.521"> </text>
	
		<text transform="matrix(0.8675 -0.4974 0.4974 0.8675 358.0732 520.4639)" fill="#FFFFFF" font-family="'Cambay-Regular'" font-size="21.521">G</text>
	
		<text transform="matrix(0.8675 -0.4974 0.4974 0.8675 371.1953 512.9395)" fill="#FFFFFF" font-family="'Cambay-Regular'" font-size="21.521">A</text>
	
		<text transform="matrix(0.8675 -0.4974 0.4974 0.8675 382.5791 506.4131)" fill="#FFFFFF" font-family="'Cambay-Regular'" font-size="21.521">M</text>
	
		<text transform="matrix(0.8675 -0.4974 0.4974 0.8675 398.2725 497.4141)" fill="#FFFFFF" font-family="'Cambay-Regular'" font-size="21.521">E</text>
	
		<text transform="matrix(0.8675 -0.4974 0.4974 0.8675 408.6035 491.4912)" fill="#FFFFFF" font-family="'Cambay-Regular'" font-size="21.521"> </text>
	
		<text transform="matrix(0.8675 -0.4974 0.4974 0.8675 413.7393 488.5459)" fill="#FFFFFF" font-family="'Cambay-Regular'" font-size="21.521"> </text>
	
		<text transform="matrix(0.8675 -0.4974 0.4974 0.8675 418.8701 485.6055)" fill="#FFFFFF" font-family="'Cambay-Regular'" font-size="21.521">S</text>
	
		<text transform="matrix(0.8675 -0.4974 0.4974 0.8675 429.6494 479.4248)" fill="#FFFFFF" font-family="'Cambay-Regular'" font-size="21.521">C</text>
	
		<text transform="matrix(0.8675 -0.4974 0.4974 0.8675 441.7432 472.4902)" fill="#FFFFFF" font-family="'Cambay-Regular'" font-size="21.521">O</text>
	
		<text transform="matrix(0.8675 -0.4974 0.4974 0.8675 455.8877 464.3809)" fill="#FFFFFF" font-family="'Cambay-Regular'" font-size="21.521">U</text>
	
		<text transform="matrix(0.8675 -0.4974 0.4974 0.8675 468.5342 457.1299)" fill="#FFFFFF" font-family="'Cambay-Regular'" font-size="21.521">T</text>
	
		<text transform="matrix(0.8675 -0.4974 0.4974 0.8675 479.0576 451.0938)" fill="#FFFFFF" font-family="'Cambay-Regular'" font-size="21.521"> </text>
	<line fill="none" stroke="#231F20" stroke-width="13" stroke-miterlimit="10" x1="9.765" y1="155.107" x2="52.335" y2="180.184"/>
	<line fill="none" stroke="#231F20" stroke-width="13" stroke-miterlimit="10" x1="262.173" y1="10.407" x2="262.179" y2="59.903"/>
	
		<line fill="none" stroke="#231F20" stroke-width="13" stroke-miterlimit="10" x1="472.585" y1="180.244" x2="514.55" y2="155.157"/>
	<line fill="none" stroke="#231F20" stroke-width="13" stroke-miterlimit="10" x1="9.745" y1="444.549" x2="52.308" y2="420.814"/>
	
		<line fill="none" stroke="#231F20" stroke-width="13" stroke-miterlimit="10" x1="262.122" y1="589.285" x2="262.122" y2="541.15"/>
	<line fill="none" stroke="#231F20" stroke-width="13" stroke-miterlimit="10" x1="514.53" y1="444.586" x2="471.95" y2="420.865"/>
</g>
</svg>
