<?xml version="1.0" encoding="utf-8"?>
<!-- Generator: Adobe Illustrator 15.0.2, SVG Export Plug-In . SVG Version: 6.00 Build 0)  -->
<!DOCTYPE svg PUBLIC "-//W3C//DTD SVG 1.1//EN" "http://www.w3.org/Graphics/SVG/1.1/DTD/svg11.dtd">
<svg version="1.1" id="Layer_1" xmlns="http://www.w3.org/2000/svg" xmlns:xlink="http://www.w3.org/1999/xlink" x="0px" y="0px"
	 width="516.5px" height="589.5px" viewBox="0 0 516.5 589.5" enable-background="new 0 0 516.5 589.5" xml:space="preserve">
<g id="XMLID_1_">
	<g>
		<path fill="#231F20" d="M508.419,150.353v288.86L258.266,584.129L8.081,439.213v-288.86L258.266,5.371L508.419,150.353z
			 M493.858,430.795v-272.09L258.266,22.692L22.641,158.706v272.089l235.625,136.014L493.858,430.795z"/>
		<path fill="#FFF100" d="M54.718,429.496l203.516,117.52l200.623-115.861l17.777-10.271V168.684l-218.4-126.132l-218.335,126.1
			c-0.065,0.033-0.099,0.033-0.099,0.033v252.2L54.718,429.496z M493.858,158.706v272.089L258.266,566.807L22.641,430.795v-272.09
			L258.266,22.692L493.858,158.706z"/>
		<path fill="#292117" d="M476.634,168.683v252.2l-17.777,10.27l-0.618-1.039l-55.51-26.262v-0.031c-5.622-15.471,0-56.227,0-56.227
			c4.095-29.379-12.676-55.313-12.676-55.313c78.194-7.768,61.067-102.212,61.067-102.212c-15.859-31.753-28.08,0-28.08,0
			c2.405,90.415-68.445,74.587-70.298,74.197c2.86-6.175,4.453-13.033,4.453-20.248c0-26.65-21.612-48.262-48.264-48.262
			c-26.65,0-48.229,21.612-48.229,48.262c0,23.465,16.738,43.062,38.968,47.353c0,0-29.25,13.845-44.395,35.263
			c-15.373-20.572-43.322-33.799-43.322-33.799c22.229-4.322,39-23.887,39-47.353c0-26.65-21.613-48.262-48.263-48.262
			c-26.65,0-48.263,21.612-48.263,48.262c0,7.248,1.593,14.105,4.452,20.248c-2.438,0.553-72.702,15.828-70.297-74.197
			c0,0-12.188-31.752-28.08,0c0,0-17.095,94.445,61.067,102.18c0,0-16.771,25.968-12.643,55.347c0,0,4.42,37.992,4.258,52.879
			l-58.468,27.561L39.8,420.885v-252.2c0,0,0.033,0,0.099-0.033c2.925-0.715,78.845-19.922,157.462-75.205
			c0,0,26.228,25.252,60.873,26.228c18.361,0.52,39.098-5.785,59.54-26.228C354.498,119.478,407.831,149.605,476.634,168.683z
			 M331.618,170.274l-18.037-23.725l-33.15,43.907L331.618,170.274z M255.796,208.561l21.354-75.92h-42.737L255.796,208.561z
			 M232.461,192.083l-34.515-45.728l-18.752,24.7L232.461,192.083z"/>
		<path fill="#652D90" d="M258.233,42.55l218.4,126.132c-68.804-19.078-122.137-49.205-158.86-75.237
			c-6.176-4.388-11.862-8.613-17.096-12.675C272.663,58.962,258.233,42.55,258.233,42.55z"/>
		<path fill="#EC1C24" d="M451.121,190.067c0,0,17.127,94.445-61.067,102.212c0,0,16.771,25.936,12.676,55.314
			c0,0-5.622,40.756,0,56.227v0.031l-96.168-45.5v-0.031c13-6.078,4.875-35.102,4.875-35.102
			c-16.444,8.775-24.603,16.998-27.625,24.375c-8.774,21.32,25.122,35.49,25.122,35.49c11.732,28.08-21.481,19.531-21.481,19.531
			c-14.562-8.645-24.604-17.127-31.07-25.381c14.105-19.047,9.425-36.531-1.104-50.604c15.145-21.418,44.395-35.263,44.395-35.263
			c2.99,0.618,6.077,0.91,9.264,0.91c19.435,0,36.173-11.473,43.81-28.015c1.853,0.39,72.703,16.217,70.298-74.197
			C423.041,190.067,435.261,158.315,451.121,190.067z"/>
		<path fill="#EC1C24" d="M352.743,264.266c-7.637,16.542-24.375,28.015-43.811,28.015c-3.186,0-6.271-0.292-9.263-0.91
			c-22.229-4.29-38.968-23.888-38.968-47.353c0-26.65,21.58-48.262,48.229-48.262c26.65,0,48.264,21.612,48.264,48.262
			C357.196,251.232,355.604,258.09,352.743,264.266z"/>
		<polygon fill="#FAAF40" points="313.581,146.55 331.618,170.274 280.43,190.458 		"/>
		<path fill="#231F20" d="M300.678,80.771c5.232,4.062,10.92,8.288,17.096,12.675c-20.442,20.442-41.179,26.748-59.54,26.228v-27.17
			C271.363,92.73,286.151,89.936,300.678,80.771z"/>
		<path fill="#00ADEE" d="M311.794,413.504l-14.853,8.125c49.92,37.344-33.28,80.309-33.28,80.309l-17.843-14.885
			c0,0,77.87-28.08,41.633-60.027l-10.107,9.521v-16.412v-14.854L311.794,413.504z"/>
		<path fill="#292117" d="M311.436,323.219c0,0,8.125,29.023-4.875,35.102v0.031l-22.718-10.758h-0.032
			C286.834,340.217,294.991,331.996,311.436,323.219z"/>
		<path fill="#5A4A42" d="M277.343,436.547l10.107-9.521c36.237,31.947-41.633,60.027-41.633,60.027h-6.63l-0.032-16.414
			l-10.075,9.557c-36.271-31.947,41.6-60.061,41.6-60.061h6.663V436.547z M275.555,451.27c0-8.189-6.661-14.852-14.853-14.852
			c-8.222,0-14.885,6.662-14.885,14.852c0,8.223,6.663,14.887,14.885,14.887C268.894,466.156,275.555,459.492,275.555,451.27z"/>
		<path fill="#5A4A42" d="M311.794,413.504l-34.45-8.223v14.854h-6.663l-17.842-14.854c0,0-83.2,42.967-33.28,80.309l-14.819,8.092
			l34.45,8.256v-14.885h6.63l17.843,14.885c0,0,83.2-42.965,33.28-80.309L311.794,413.504z M113.187,401.936l90.122-42.479
			l22.686-10.693l1.396-0.648c10.237,21.809-24.699,36.398-24.699,36.398c-11.732,28.113,21.481,19.566,21.481,19.566
			c15.438-9.166,25.772-18.168,32.208-26.846c6.468,8.256,16.51,16.736,31.07,25.383c0,0,33.215,8.547,21.481-19.533
			c0,0-33.896-14.17-25.122-35.49h0.032l22.718,10.758l96.168,45.5l55.51,26.262l0.618,1.039L258.233,547.014L54.718,429.496
			L113.187,401.936z"/>
		<polygon fill="#F9EC31" points="277.148,132.641 255.796,208.561 234.411,132.641 		"/>
		<path fill="#FFF100" d="M260.703,436.418c8.19,0,14.853,6.662,14.853,14.854c0,8.223-6.661,14.885-14.853,14.885
			c-8.222,0-14.885-6.662-14.885-14.885C245.818,443.08,252.481,436.418,260.703,436.418z"/>
		<path fill="#EC1C24" d="M252.838,405.283l17.842,14.852c0,0-77.869,28.113-41.6,60.062l10.075-9.557l0.032,16.412v14.885
			l-34.45-8.254l14.819-8.094C169.638,448.248,252.838,405.283,252.838,405.283z"/>
		<path fill="#F1F1F2" d="M258.233,42.55c0,0,14.43,16.412,42.444,38.22c-14.526,9.165-29.314,11.96-42.444,11.732V42.55z"/>
		<path fill="#F1F1F2" d="M258.233,92.502v27.17c-34.646-0.975-60.873-26.228-60.873-26.228c5.752-3.998,11.505-8.223,17.258-12.675
			C214.618,80.771,233.468,92.081,258.233,92.502z"/>
		<path fill="#231F20" d="M214.618,80.771c14.788-11.375,29.478-24.083,43.615-38.22v49.952
			C233.468,92.081,214.618,80.771,214.618,80.771z"/>
		<path fill="#652D90" d="M258.233,42.55c-14.138,14.137-28.827,26.845-43.615,38.22c-5.752,4.453-11.505,8.678-17.258,12.675
			c-78.617,55.282-154.537,74.49-157.462,75.205L258.233,42.55z"/>
		<path fill="#00A551" d="M255.276,326.633c10.529,14.072,15.21,31.557,1.104,50.604
			C241.431,358.289,245.266,340.803,255.276,326.633z"/>
		<path fill="#00ADEE" d="M255.276,326.633c-10.011,14.17-13.846,31.654,1.104,50.604c-6.435,8.678-16.77,17.68-32.208,26.844
			c0,0-33.215,8.549-21.481-19.564c0,0,34.938-14.592,24.699-36.398c-3.314-7.15-11.473-15.016-27.202-23.434
			c0,0-8.061,27.43,3.119,34.775l-90.122,42.477c0.162-14.885-4.258-52.877-4.258-52.877c-4.128-29.381,12.643-55.348,12.643-55.348
			c-78.162-7.735-61.067-102.18-61.067-102.18c15.894-31.752,28.08,0,28.08,0c-2.405,90.025,67.86,74.75,70.297,74.197
			c7.67,16.542,24.408,27.982,43.811,27.982c3.185,0,6.271-0.292,9.263-0.877C211.953,292.833,239.903,306.061,255.276,326.633z"/>
		<path fill="#00ADEE" d="M158.881,265.728c-2.859-6.143-4.452-13-4.452-20.248c0-26.65,21.612-48.262,48.263-48.262
			c26.649,0,48.263,21.612,48.263,48.262c0,23.465-16.771,43.03-39,47.353c-2.99,0.585-6.078,0.877-9.263,0.877
			C183.288,293.71,166.55,282.271,158.881,265.728z"/>
		<polygon fill="#FAAF40" points="197.945,146.355 232.461,192.083 179.193,171.055 		"/>
		<path fill="#292117" d="M227.391,348.115l-1.396,0.648l-22.686,10.693c-11.18-7.346-3.119-34.775-3.119-34.775
			C215.918,333.1,224.076,340.965,227.391,348.115z"/>
	</g>
	<g>
		<polygon fill="none" stroke="#231F20" stroke-width="2.4375" stroke-miterlimit="10" points="508.419,439.213 258.266,584.129 
			8.081,439.213 8.081,150.353 258.266,5.371 508.419,150.353 		"/>
		<polyline fill="none" stroke="#231F20" stroke-width="2.4375" stroke-miterlimit="10" points="39.898,168.649 258.233,42.55 
			476.634,168.683 476.634,420.883 458.856,431.152 258.233,547.014 54.718,429.496 39.8,420.883 39.8,168.683 		"/>
		<path fill="none" stroke="#231F20" stroke-width="2.4375" stroke-miterlimit="10" d="M299.671,291.371
			c-22.229-4.29-38.968-23.888-38.968-47.353c0-26.65,21.58-48.262,48.229-48.262c26.65,0,48.264,21.612,48.264,48.262
			c0,7.215-1.593,14.073-4.453,20.248c-7.637,16.542-24.375,28.015-43.811,28.015C305.748,292.28,302.661,291.987,299.671,291.371z"
			/>
		<path fill="none" stroke="#231F20" stroke-width="2.4375" stroke-miterlimit="10" d="M299.671,291.371
			c0,0-29.25,13.844-44.395,35.262c-10.011,14.17-13.846,31.656,1.104,50.604c6.468,8.256,16.51,16.736,31.07,25.383
			c0,0,33.215,8.547,21.481-19.533c0,0-33.896-14.17-25.122-35.49c3.022-7.377,11.181-15.6,27.625-24.375
			c0,0,8.125,29.023-4.875,35.102"/>
		<path fill="none" stroke="#231F20" stroke-width="2.4375" stroke-miterlimit="10" d="M352.711,264.232c0,0,0,0,0.032,0.033
			c1.853,0.39,72.703,16.217,70.298-74.197c0,0,12.221-31.753,28.08,0c0,0,17.127,94.445-61.067,102.212
			c0,0,16.771,25.935,12.676,55.313c0,0-5.622,40.756,0,56.227"/>
		<path fill="none" stroke="#231F20" stroke-width="2.4375" stroke-miterlimit="10" d="M211.953,292.833
			c22.229-4.322,39-23.887,39-47.353c0-26.65-21.613-48.262-48.263-48.262c-26.65,0-48.263,21.612-48.263,48.262
			c0,7.248,1.593,14.105,4.452,20.248c7.67,16.542,24.408,27.982,43.811,27.982C205.876,293.71,208.963,293.417,211.953,292.833z"/>
		<path fill="none" stroke="#231F20" stroke-width="2.4375" stroke-miterlimit="10" d="M211.953,292.833
			c0,0,27.95,13.228,43.322,33.8c10.529,14.072,15.21,31.557,1.104,50.604c-6.435,8.678-16.77,17.68-32.208,26.844
			c0,0-33.215,8.549-21.481-19.564c0,0,34.938-14.592,24.699-36.398c-3.314-7.15-11.473-15.016-27.202-23.434
			c0,0-8.061,27.43,3.119,34.775c0.391,0.291,0.812,0.52,1.235,0.715"/>
		<path fill="none" stroke="#231F20" stroke-width="2.4375" stroke-miterlimit="10" d="M158.945,265.695c0,0-0.032,0-0.065,0.032
			c-2.438,0.553-72.702,15.828-70.297-74.197c0,0-12.188-31.752-28.08,0c0,0-17.095,94.445,61.067,102.18
			c0,0-16.771,25.967-12.643,55.348c0,0,4.42,37.992,4.258,52.877c-0.033,0.357-0.033,0.684-0.033,1.008"/>
		<polyline fill="none" stroke="#231F20" stroke-width="2.4375" stroke-miterlimit="10" points="225.993,348.764 203.308,359.459 
			113.187,401.936 54.718,429.496 53.386,430.113 		"/>
		<polyline fill="none" stroke="#231F20" stroke-width="2.4375" stroke-miterlimit="10" points="283.843,347.594 306.561,358.352 
			402.729,403.852 458.238,430.113 		"/>
		<polygon fill="none" stroke="#231F20" stroke-width="2.4375" stroke-miterlimit="10" points="234.411,132.641 277.148,132.641 
			255.796,208.561 		"/>
		<polygon fill="none" stroke="#231F20" stroke-width="2.4375" stroke-miterlimit="10" points="313.581,146.55 331.618,170.274 
			280.43,190.458 		"/>
		<polygon fill="none" stroke="#231F20" stroke-width="2.4375" stroke-miterlimit="10" points="197.945,146.355 179.193,171.055 
			232.461,192.083 		"/>
		<path fill="none" stroke="#231F20" stroke-width="2.4375" stroke-miterlimit="10" d="M239.188,487.053l-0.032-16.414
			l-10.075,9.557c-36.27-31.947,41.6-60.061,41.6-60.061l-17.842-14.854c0,0-83.2,42.967-33.28,80.309l-14.819,8.092l34.45,8.256
			L239.188,487.053L239.188,487.053z"/>
		<path fill="none" stroke="#231F20" stroke-width="2.4375" stroke-miterlimit="10" d="M277.343,420.135v16.412l10.107-9.521
			c36.237,31.947-41.633,60.027-41.633,60.027l17.843,14.885c0,0,83.2-42.965,33.28-80.309l14.853-8.125l-34.45-8.223V420.135
			L277.343,420.135z"/>
		<path fill="none" stroke="#231F20" stroke-width="2.4375" stroke-miterlimit="10" d="M275.555,451.27
			c0,8.223-6.661,14.887-14.853,14.887c-8.222,0-14.885-6.664-14.885-14.887c0-8.189,6.663-14.852,14.885-14.852
			C268.894,436.418,275.555,443.08,275.555,451.27z"/>
		<path fill="none" stroke="#231F20" stroke-width="2.4375" stroke-miterlimit="10" d="M39.8,168.683c0,0,0.033,0,0.099-0.033
			c2.925-0.715,78.845-19.922,157.462-75.205c5.752-3.998,11.505-8.223,17.258-12.675c14.788-11.375,29.478-24.083,43.615-38.22
			c0,0,14.43,16.412,42.444,38.22c5.232,4.062,10.92,8.288,17.096,12.675c36.725,26.032,90.058,56.16,158.86,75.237"/>
		<path fill="none" stroke="#231F20" stroke-width="2.4375" stroke-miterlimit="10" d="M197.361,93.445
			c0,0,26.228,25.252,60.873,26.228c18.361,0.52,39.098-5.785,59.54-26.228"/>
		<polyline fill="none" stroke="#231F20" stroke-width="2.4375" stroke-miterlimit="10" points="258.233,119.672 258.233,92.502 
			258.233,42.55 		"/>
		<path fill="none" stroke="#231F20" stroke-width="2.4375" stroke-miterlimit="10" d="M214.618,80.771
			c0,0,18.85,11.31,43.615,11.732c13.13,0.228,27.918-2.567,42.444-11.732"/>
		<polygon fill="none" stroke="#231F20" stroke-width="2.4375" stroke-miterlimit="10" points="493.858,430.795 258.266,566.807 
			22.641,430.795 22.641,158.706 258.266,22.692 493.858,158.706 		"/>
	</g>
</g>
</svg>
