<?xml version="1.0" encoding="utf-8"?>
<!-- Generator: Adobe Illustrator 15.0.2, SVG Export Plug-In . SVG Version: 6.00 Build 0)  -->
<!DOCTYPE svg PUBLIC "-//W3C//DTD SVG 1.1//EN" "http://www.w3.org/Graphics/SVG/1.1/DTD/svg11.dtd">
<svg version="1.1" id="Layer_1" xmlns="http://www.w3.org/2000/svg" xmlns:xlink="http://www.w3.org/1999/xlink" x="0px" y="0px"
	 width="519.5px" height="600px" viewBox="0 0 519.5 600" enable-background="new 0 0 519.5 600" xml:space="preserve">
<g id="XMLID_1_">
	<g>
		<path fill="#FFFFFF" d="M259.766,434.42l14.431-0.488c0.032,0.293,0.063,0.618,0.063,0.943c0,4.842-6.369,8.742-14.202,8.742
			c-0.098,0-0.194,0-0.292,0V434.42z"/>
		<path fill="#FFFFFF" d="M259.766,434.42l-13.877-0.455c0.748-4.323,6.663-7.734,13.877-7.833V434.42z"/>
		<path fill="#F1F1F2" d="M24.596,435.784V164.247l235.17-135.752l235.138,135.752v271.537L259.766,571.537L24.596,435.784z
			 M252.226,547.942l7.509,4.321l51.154-29.543h0.032l19.437-11.244L440.5,447.874l37.636-21.743v-198.38v-53.788l-94.479-54.567
			l-47.482-27.43l-76.439-44.135l-76.44,44.135c-0.032,0-0.032,0-0.032,0l-45.468,26.26v0.033l-96.492,55.705v53.788v198.38
			l83.98,48.49l63.797,36.854l20.768,11.992h0.033L252.226,547.942z"/>
		<polygon fill="#26A9E0" points="234.676,487.59 219.109,503.027 202.144,493.148 220.312,481.09 		"/>
		<path fill="#EC1C24" d="M292.948,347.872c-23.854-30.485-18.427-36.399-18.427-36.399c11.927-11.408,25.935,19.499,25.935,19.499
			c-0.487-7.215,3.607-14.592,8.548-20.733c6.891-8.612,15.47-14.82,15.47-14.82c7.897,6.891,18.266,11.083,29.575,11.083
			c11.343,0,21.71-4.192,29.607-11.083l11.505,3.868c-4.322,5.948-6.89,13.292-6.89,21.222c0,7.897,2.534,15.21,6.823,21.158
			c-1.363-0.65-12.382-5.33-14.396,6.207c0,0,1.138,29.445,22.75,32.532l-0.032,0.293c0,0-4.322,9.62,0.032,21.645l-5.329-1.688
			l-9.848-3.12l-45.014-14.333l-7.864-2.502l-16.966-5.429c0,0-2.729-13.292-0.616-31.816
			C305.916,363.439,292.948,347.872,292.948,347.872z"/>
		<polygon fill="#FFF100" points="190.346,486.257 206.043,474.622 220.312,481.09 202.144,493.148 		"/>
		<path fill="#00A551" d="M183.293,91.967c2.08,1.69,78,62.4,152.88,0l47.482,27.43v58.013
			c-95.095-34.353-182.976-20.02-245.863,1.982V118.26v-0.033l45.468-26.26C183.261,91.967,183.261,91.967,183.293,91.967z"/>
		<path fill="#009345" d="M460.389,320.507c0,8.71-3.089,16.673-8.19,22.913c-6.63,8.027-16.64,13.162-27.853,13.162
			c-3.119,0-6.143-0.391-9.034-1.138c-1.788-1.625-3.705-2.016-5.46-1.886c-5.852-2.566-10.889-6.662-14.625-11.765
			c0-0.033,0-0.065,0-0.065s-0.033-0.031-0.099-0.063h-0.033c-4.289-5.948-6.823-13.261-6.823-21.158
			c0-7.93,2.566-15.274,6.89-21.222c4.745-6.468,11.537-11.278,19.436-13.488c3.088-0.877,6.37-1.333,9.75-1.333
			C444.269,284.464,460.389,300.617,460.389,320.507z"/>
		<polygon fill="#FFF100" points="335.394,380.697 343.258,383.199 339.001,412.677 292.266,396.46 292.266,396.427 		"/>
		<path fill="#26A9E0" d="M171.496,346.148c14.203-30.354-12.87-15.178-12.87-15.178c-5.231,14.397-18.46,18.493-28.34,19.437
			l1.625-13.554c-1.592,1.854-3.479,3.934-5.688,6.014c4.875-6.144,7.769-13.91,7.769-22.36c0-5.653-1.3-11.019-3.641-15.795
			c1.073,1.431,7.442-7.345,7.442-7.345c7.54,5.72,16.965,9.133,27.203,9.133c11.538,0,22.067-4.323,30.03-11.473
			c0,0,10.66,0.65,19.467,18.395l-4.16,2.373c0,0,22.198,54.177-15.307,54.177C195.026,369.972,171.723,365.032,171.496,346.148z"/>
		<path fill="#BE1E2D" d="M399.126,261.455c0,13.552-5.979,25.708-15.47,33.962c-7.897,6.89-18.266,11.083-29.607,11.083
			c-11.311,0-21.678-4.193-29.575-11.083c-6.856-5.947-11.861-13.942-14.104-23.01v-0.033c-0.91-3.478-1.365-7.15-1.365-10.92
			c0-24.862,20.184-45.045,45.045-45.045C378.943,216.41,399.126,236.592,399.126,261.455z"/>
		<polygon fill="#FFF100" points="141.271,445.307 146.991,447.875 146.991,447.907 140.069,456.942 130.286,451.222 
			140.523,445.729 		"/>
		<path fill="#231F20" d="M274.196,433.932l-14.431,0.488v-8.288c0.099,0,0.195,0,0.292,0
			C267.371,426.132,273.383,429.545,274.196,433.932z"/>
		<path fill="#EE4036" d="M390.188,456.942c-2.99,16.802-20.604,12.675-20.604,12.675
			C375.271,453.107,390.188,456.942,390.188,456.942z"/>
		<path fill="#FFF100" d="M61.873,399.027c-26.91-25.74,11.212-50.277,12.578-51.155c6.305,5.428,14.527,8.71,23.498,8.71
			c7.572,0,14.625-2.34,20.41-6.338c0,0,5.167,0.812,11.927,0.163c9.88-0.942,23.107-5.038,28.34-19.437
			c0,0,27.073-15.177,12.87,15.178c0,0-12.415,21.482-40.365,22.719c-1.495,0.098-3.055,0.098-4.68,0.031c0,0,2.405,9.23,0,30.129
			l-9.002,2.858l-46.93,14.95l-8.646,2.763C55.081,408.55,61.873,399.027,61.873,399.027z"/>
		<path fill="#231F20" d="M290.51,404.779c-0.682,0-1.3-0.292-1.755-0.747c-0.422-0.423-0.683-1.009-0.683-1.657
			c0-1.333,1.104-2.438,2.438-2.438s2.405,1.104,2.405,2.438C292.916,403.707,291.843,404.779,290.51,404.779z"/>
		<path fill="#652D90" d="M126.223,342.867c2.21-2.08,4.096-4.16,5.688-6.014l-1.625,13.554c-6.76,0.648-11.927-0.163-11.927-0.163
			c2.989-2.047,5.622-4.518,7.833-7.345L126.223,342.867z"/>
		<path fill="#652D90" d="M126.451,399.027c2.405-20.897,0-30.128,0-30.128c1.625,0.064,3.185,0.064,4.68-0.032v28.665
			L126.451,399.027z"/>
		<polygon fill="#37B34A" points="269.97,523.015 252.876,523.145 252.876,522.722 270.166,508.52 270.198,508.52 279.948,509.007 
					"/>
		<path fill="#F9EC31" d="M440.499,447.875c-25.447-22.068,3.835-32.5,3.835-32.5l23.79,7.572l10.011,3.185L440.499,447.875z"/>
		<path fill="#37B34A" d="M415.312,355.444c2.893,0.748,5.915,1.138,9.034,1.138c11.213,0,21.223-5.135,27.853-13.162
			c0,0,27.235,27.268,15.926,79.527l-23.79-7.572l-40.886-13.033c-4.354-12.023-0.032-21.645-0.032-21.645l0.032-0.293
			c1.918,0.293,4.03,0.391,6.306,0.194c-3.998-5.72-5.493-12.609-6.045-17.518c-0.423-3.835-0.261-6.5-0.261-6.5
			s2.893-2.697,6.403-3.022C411.606,354.34,413.425,354.957,415.312,355.444z"/>
		<path fill="#231F20" d="M278.812,415.829c0,1.333-1.073,2.405-2.405,2.405c-1.333,0-2.405-1.072-2.405-2.405
			c0-1.332,1.072-2.404,2.405-2.404c0.683,0,1.3,0.292,1.723,0.747C278.55,414.595,278.812,415.18,278.812,415.829z"/>
		<path fill="#8BC53F" d="M242.379,418.527l-6.109,4.81c-18.851-18.85-35.263-0.39-35.263-0.39l-5.979-4.713
			C219.563,393.729,242.379,418.527,242.379,418.527z"/>
		<path fill="#652D90" d="M236.269,264.932c0,0-25.253,28.762,0,71.24c0,0-3.575,19.793,0,27.885l-10.596,3.381
			c-1.268-26.553-5.883-43.354-11.18-54.016c-8.808-17.745-19.467-18.395-19.467-18.395c9.229-8.222,15.015-20.215,15.015-33.572
			c0-24.862-20.15-45.045-45.045-45.045s-45.045,20.183-45.045,45.045c0,14.658,6.987,27.69,17.842,35.913
			c0,0-6.37,8.774-7.441,7.345c-4.453-9.132-12.676-16.12-22.652-18.882c15.145-49.465-7.995-91.065-7.995-91.065
			c11.343-5.2,24.083-10.465,38.09-15.373c62.888-22.002,150.769-36.335,245.863-1.982c13.292,4.777,26.747,10.53,40.269,17.355
			c0,0-24.181,32.922-9.328,91.032c-7.897,2.21-14.689,7.02-19.436,13.488l-11.505-3.868c9.49-8.255,15.47-20.41,15.47-33.962
			c0-24.862-20.183-45.045-45.077-45.045c-24.861,0-45.045,20.183-45.045,45.045c0,3.77,0.455,7.442,1.365,10.92
			c-7.086-15.08-18.168-15.308-18.785-15.308c5.559-6.955,8.872-15.795,8.872-25.382c0-22.49-18.2-40.723-40.69-40.723
			c-22.489,0-40.723,18.232-40.723,40.723C219.043,245.432,225.836,257.555,236.269,264.932z"/>
		<path fill="#231F20" d="M274.001,402.439c0-1.331,1.072-2.404,2.405-2.404c1.332,0,2.405,1.073,2.405,2.404
			c0,0.91-0.488,1.69-1.235,2.08c-0.325,0.229-0.747,0.325-1.17,0.325C275.073,404.845,274.001,403.773,274.001,402.439z"/>
		<path fill="#00ADEE" d="M336.174,91.967c-74.88,62.4-150.8,1.69-152.88,0l76.44-44.135L336.174,91.967z"/>
		<path fill="#26A9E0" d="M131.131,397.532v-28.665c27.95-1.235,40.365-22.718,40.365-22.718
			c0.228,18.883,23.53,23.821,23.53,23.821c37.505,0,15.307-54.177,15.307-54.177l4.16-2.373c5.297,10.66,9.913,27.463,11.18,54.016
			l-12.415,3.933l-12.252,3.899L131.131,397.532z"/>
		<path fill="#EC1C24" d="M409.852,353.56c-3.511,0.325-6.403,3.022-6.403,3.022s-0.162,2.665,0.261,6.5l-0.261,0.032
			c-9.327-8.646-8.319-20.312-8.222-21.319C398.964,346.898,404.001,350.992,409.852,353.56z"/>
		<polygon fill="#9E1F63" points="176.533,478.197 194.993,469.617 206.043,474.622 190.346,486.257 		"/>
		<polygon fill="#26A9E0" points="157.424,467.05 146.991,460.939 159.243,453.432 166.979,456.942 		"/>
		<path fill="#009345" d="M289.666,418.234c1.333,0,2.405-1.072,2.405-2.405c0-1.332-1.072-2.404-2.405-2.404
			c-0.747,0-1.43,0.325-1.82,0.877c-0.39,0.423-0.585,0.942-0.585,1.527C287.26,417.162,288.334,418.234,289.666,418.234z
			 M292.916,402.375c0-1.333-1.072-2.438-2.405-2.438c-1.332,0-2.438,1.104-2.438,2.438c0,0.648,0.261,1.234,0.683,1.657
			c0.455,0.455,1.073,0.747,1.755,0.747C291.843,404.779,292.916,403.707,292.916,402.375z M276.406,418.234
			c1.332,0,2.405-1.072,2.405-2.405c0-0.649-0.262-1.234-0.684-1.657c-0.423-0.455-1.04-0.747-1.723-0.747
			c-1.333,0-2.405,1.072-2.405,2.404C274.001,417.162,275.073,418.234,276.406,418.234z M278.812,402.439
			c0-1.331-1.073-2.404-2.405-2.404c-1.333,0-2.405,1.073-2.405,2.404c0,1.334,1.072,2.405,2.405,2.405
			c0.423,0,0.845-0.098,1.17-0.325C278.323,404.13,278.812,403.35,278.812,402.439z M259.766,426.132l-0.031-40.981l27.495,9.555
			l5.037,1.756l46.734,16.217l9.067,3.152l40.203,13.976l0.941,0.325l-115.018,3.802c-0.812-4.387-6.825-7.8-14.139-7.8
			C259.961,426.132,259.863,426.132,259.766,426.132z"/>
		<path fill="#292117" d="M9.581,444.462V155.635L259.766,10.62l250.153,145.015v288.827L259.766,589.38L9.581,444.462z
			 M24.596,435.784l235.17,135.753l235.138-135.753V164.247L259.766,28.495L24.596,164.247V435.784z"/>
		<polygon fill="#FFF100" points="157.424,467.05 166.979,456.942 180.921,463.247 167.271,472.802 		"/>
		<path fill="#F6921E" d="M267.631,333.507c-4.225,0-7.896,2.373-9.813,5.852l-0.099-0.065c-8.547,12.35-21.449-3.12-21.449-3.12
			c-25.253-42.478,0-71.24,0-71.24c6.63,4.712,14.755,7.475,23.497,7.475c12.903,0,24.376-5.98,31.785-15.34c0,0,0,0,0.033,0
			c0.617,0,11.699,0.228,18.785,15.308v0.033c2.242,9.067,7.247,17.062,14.104,23.01c0,0-8.579,6.208-15.47,14.819
			c-4.939,6.144-9.035,13.521-8.548,20.734c0,0-14.008-30.907-25.935-19.5c0,0-5.429,5.915,18.427,36.4
			c0,0,12.968,15.567,24.863-4.42c-2.113,18.524,0.616,31.816,0.616,31.816l-24.668-7.832l-30.225-9.652l0.78-2.404
			c1.04,0.357,2.145,0.521,3.313,0.521c6.208,0,11.213-5.037,11.213-11.212C278.843,338.512,273.839,333.507,267.631,333.507z"/>
		<path fill="#FFF100" d="M245.823,434.875c0,4.777,6.208,8.645,13.941,8.742l-0.031,40.104l-114.889-47.547l-14.56-6.045
			l115.603,3.835C245.856,434.257,245.823,434.55,245.823,434.875z"/>
		<polygon fill="#26A9E0" points="176.533,478.197 167.271,472.802 180.921,463.247 194.993,469.617 		"/>
		<path fill="#231F20" d="M245.888,433.965l13.877,0.455v9.197c-7.734-0.099-13.941-3.965-13.941-8.742
			C245.823,434.55,245.856,434.257,245.888,433.965z"/>
		<path fill="#231F20" d="M292.071,415.829c0,1.333-1.072,2.405-2.405,2.405c-1.332,0-2.405-1.072-2.405-2.405
			c0-0.585,0.195-1.104,0.585-1.527c0.392-0.552,1.073-0.877,1.82-0.877C290.999,413.425,292.071,414.497,292.071,415.829z"/>
		<path fill="#FFF100" d="M335.394,453.432c0,25.838-34.45,14.594-34.45,14.594l-0.487-1.171l34.58-14.3L335.394,453.432z"/>
		<polygon fill="#26A9E0" points="252.876,522.722 231.946,510.534 252.194,495.52 252.226,495.52 274.001,505.398 270.198,508.52 
			270.166,508.52 		"/>
		<polygon fill="#FFF100" points="398.119,400.652 388.271,429.805 348.068,415.829 388.271,397.532 		"/>
		<path fill="#FFF100" d="M367.081,439.295c-3.055,24.635-31.688,14.137-31.688,14.137l-0.357-0.877L367.081,439.295z"/>
		<path fill="#F6921E" d="M236.269,364.057c-3.575-8.092,0-27.885,0-27.885s12.902,15.47,21.449,3.12l0.099,0.065
			c-0.846,1.592-1.333,3.411-1.333,5.329c0,5.006,3.314,9.296,7.833,10.692l-0.78,2.404l-3.802-1.202l-20.476,6.532L236.269,364.057
			z"/>
		<path fill="#9A8479" d="M74.451,347.872c-1.365,0.878-39.487,25.415-12.578,51.155c0,0-6.792,9.521,0,20.571l-20.572,6.532
			v-198.38c0,0,21.678-16.12,58.402-32.987c0,0,23.14,41.6,7.995,91.065c-3.087-0.91-6.37-1.365-9.75-1.365
			c-19.922,0-36.075,16.153-36.075,36.042C61.873,331.46,66.748,341.242,74.451,347.872z"/>
		<path fill="#1B75BB" d="M137.793,297.367c-10.854-8.223-17.842-21.255-17.842-35.913c0-24.862,20.149-45.045,45.045-45.045
			c24.895,0,45.045,20.183,45.045,45.045c0,13.357-5.785,25.35-15.015,33.572c-7.963,7.15-18.493,11.473-30.03,11.473
			C154.758,306.5,145.333,303.087,137.793,297.367z"/>
		<path fill="#201610" d="M316.999,499.972v-16.25l-17.778,0.293v15.957H316.999z M369.584,469.617c0,0,17.614,4.127,20.604-12.675
			C390.188,456.942,375.271,453.107,369.584,469.617z M413.881,445.307c5.785,0,10.466-4.68,10.466-10.465
			c0-5.752-4.681-10.433-10.466-10.433c-5.752,0-10.433,4.681-10.433,10.433C403.448,440.627,408.129,445.307,413.881,445.307z
			 M259.734,483.722l13.324-5.523c0,0,27.886,13.39,27.886-10.173c0,0,34.45,11.244,34.45-14.594c0,0,28.633,10.498,31.688-14.137
			l22.133-9.165l-0.941-0.325l9.848-29.151l5.329,1.688l40.886,13.033c0,0-29.282,10.432-3.835,32.5l-110.143,63.603l-50.408-2.471
			l-9.75-0.487l3.803-3.119l-21.774-9.881h-0.032l-17.519-7.93l-14.364-6.5l-14.269-6.468l-11.05-5.005l-14.072-6.37l-13.942-6.305
			l-7.735-3.512l-12.252-5.523v-0.032l-5.72-2.568l-0.748,0.423l-1.332-2.47c4.55-1.333,7.67-3.51,5.654-7.085L259.734,483.722z"/>
		<path fill="#EC1C24" d="M216.866,400.034l17.81-6.175l25.059-8.71l0.031,40.981c-7.215,0.098-13.13,3.51-13.877,7.833
			l-115.603-3.835l19.564-6.793L216.866,400.034z M236.269,423.337l6.109-4.81c0,0-22.814-24.799-47.353-0.293l5.979,4.713
			C201.006,422.947,217.418,404.487,236.269,423.337z"/>
		<path fill="#F9EC31" d="M74.451,347.872c-7.703-6.63-12.578-16.412-12.578-27.365c0-19.89,16.153-36.042,36.075-36.042
			c3.38,0,6.663,0.455,9.75,1.365c9.978,2.763,18.2,9.75,22.651,18.882c2.341,4.776,3.641,10.142,3.641,15.795
			c0,8.45-2.894,16.218-7.769,22.36l-0.031,0.032c-2.21,2.827-4.844,5.298-7.833,7.345c-5.785,3.998-12.838,6.338-20.41,6.338
			C88.979,356.582,80.756,353.3,74.451,347.872z"/>
		<polygon fill="#FAAF40" points="259.734,552.265 252.226,547.942 269.97,523.015 310.888,522.722 		"/>
		<polygon fill="#37B34A" points="189.078,511.478 223.464,505.562 231.946,510.534 252.876,522.722 252.876,523.145 
			209.879,523.47 209.846,523.47 		"/>
		<path fill="#00A551" d="M239.258,363.114c0,0-12.74,19.663-4.583,30.713v0.032l-17.81,6.175
			c-13.26-1.885-3.607-28.665-3.607-28.665l12.415-3.933l10.595-3.381L239.258,363.114z"/>
		<path fill="#8BC53F" d="M257.816,339.357c1.917-3.479,5.59-5.852,9.813-5.852c6.208,0,11.213,5.005,11.213,11.181
			s-5.005,11.212-11.213,11.212c-1.17,0-2.273-0.161-3.313-0.52c-4.519-1.396-7.833-5.688-7.833-10.692
			C256.484,342.77,256.971,340.949,257.816,339.357z"/>
		<path fill="#00A551" d="M70.518,416.837c0,0,12.415,10.4,33.476,6.402l-6.045,11.181h19.5l-5.559-12.806h0.033
			c0,0,37.311-18.851,37.927,1.723l-19.564,6.793l14.56,6.045c2.016,3.575-1.104,5.752-5.654,7.085
			c-7.28,2.112-18.233,2.047-18.233,2.047s13.228,19.695,4.323,29.315l-83.98-48.49l20.572-6.532L70.518,416.837z"/>
		<path fill="#00ADEE" d="M259.766,443.617c0.099,0,0.195,0,0.292,0c7.833,0,14.202-3.9,14.202-8.742
			c0-0.325-0.031-0.65-0.063-0.943l115.018-3.802l-22.133,9.165l-32.045,13.26l-34.58,14.3l-27.397,11.344l-13.324,5.523
			L259.766,443.617z"/>
		<path fill="#D91C5C" d="M424.346,434.842c0,5.785-4.681,10.465-10.466,10.465c-5.752,0-10.433-4.68-10.433-10.465
			c0-5.752,4.681-10.433,10.433-10.433C419.666,424.409,424.346,429.09,424.346,434.842z"/>
		<path fill="#201610" d="M117.448,401.887c0,0,83.558,16.088,83.558-26.617l12.252-3.899c0,0-9.652,26.78,3.607,28.665
			l-67.016,23.303c-0.616-20.572-37.927-1.723-37.927-1.723h-0.033l-3.119-7.215l-4.777,8.84
			c-21.061,3.998-33.476-6.402-33.476-6.402L117.448,401.887z"/>
		<path fill="#FFF100" d="M478.134,173.964v53.788c-18.169-13.032-36.271-23.952-54.211-32.987
			c-13.521-6.825-26.976-12.578-40.268-17.355v-58.013L478.134,173.964z"/>
		<polygon fill="#26A9E0" points="348.068,415.829 339.001,412.677 343.258,383.199 388.271,397.532 		"/>
		<path fill="#9A8479" d="M478.134,227.752v198.38l-10.011-3.185c11.311-52.261-15.926-79.527-15.926-79.527
			c5.103-6.24,8.19-14.203,8.19-22.913c0-19.89-16.12-36.042-36.043-36.042c-3.381,0-6.662,0.455-9.75,1.333
			c-14.853-58.11,9.327-91.032,9.327-91.032C441.863,203.8,459.966,214.72,478.134,227.752z"/>
		<polygon fill="#EC1C24" points="117.448,434.42 97.948,434.42 103.993,423.239 108.771,414.398 111.891,421.614 		"/>
		<path fill="#F06028" d="M300.456,231.685c0,9.587-3.314,18.428-8.872,25.382c-0.033,0-0.033,0-0.033,0
			c-7.409,9.36-18.882,15.34-31.785,15.34c-8.742,0-16.867-2.763-23.498-7.475c-10.433-7.377-17.225-19.5-17.225-33.248
			c0-22.49,18.233-40.723,40.723-40.723C282.256,190.961,300.456,209.194,300.456,231.685z"/>
		<polygon fill="#1B75BB" points="269.97,523.015 279.948,509.007 330.356,511.478 310.921,522.722 310.888,522.722 		"/>
		<polygon fill="#26A9E0" points="293.76,367.438 318.428,375.27 335.394,380.697 292.266,396.427 292.266,396.46 287.229,394.704 
					"/>
		<path fill="#FFF100" d="M300.943,468.023c0,23.562-27.886,10.174-27.886,10.174l27.397-11.344L300.943,468.023z"/>
		<path fill="#201610" d="M219.109,503.027l4.354,2.534l-34.385,5.915l-63.797-36.854c8.905-9.62-4.323-29.315-4.323-29.315
			s10.953,0.065,18.233-2.047l1.332,2.47l-10.237,5.492l9.783,5.722l6.922,3.997l10.433,6.109l9.848,5.752l9.263,5.396l13.812,8.06
			l11.798,6.892L219.109,503.027z"/>
		<polygon fill="#FFF100" points="219.109,503.027 234.676,487.59 252.194,495.52 231.946,510.534 223.464,505.562 		"/>
		<polygon fill="#00ADEE" points="316.999,483.722 316.999,499.972 299.22,499.972 299.22,484.015 		"/>
		<path fill="#EB008B" d="M117.448,401.887l9.002-2.858l4.68-1.495l69.875-22.264C201.006,417.975,117.448,401.887,117.448,401.887z
			"/>
		<path fill="#37B34A" d="M395.227,341.795c-0.099,1.007-1.105,12.675,8.222,21.319l0.261-0.032
			c0.552,4.907,2.047,11.798,6.045,17.518c-2.274,0.195-4.388,0.099-6.306-0.194c-21.612-3.087-22.75-32.532-22.75-32.532
			c2.016-11.537,13.033-6.857,14.396-6.207h0.033C395.161,341.697,395.193,341.762,395.227,341.795z"/>
		<polygon fill="#201610" points="269.97,523.015 252.226,547.942 209.879,523.47 252.876,523.145 		"/>
		<polygon fill="#9E1F63" points="140.069,456.942 146.991,447.907 159.243,453.432 146.991,460.939 		"/>
		<path fill="#201610" d="M234.676,393.827c-8.158-11.05,4.583-30.713,4.583-30.713l20.476-6.532l3.802,1.202l30.225,9.652
			l-6.531,27.268l-27.495-9.556l-25.059,8.711V393.827L234.676,393.827z"/>
		<path fill="#FFF100" d="M41.301,227.752v-53.788l96.492-55.705v61.132c-14.007,4.908-26.747,10.172-38.09,15.373
			C62.979,211.632,41.301,227.752,41.301,227.752z"/>
	</g>
	<g>
		<polygon fill="none" stroke="#231F20" stroke-width="2.4375" stroke-miterlimit="10" points="509.919,444.462 259.766,589.38 
			9.581,444.462 9.581,155.635 259.766,10.62 509.919,155.635 		"/>
		<polyline fill="none" stroke="#231F20" stroke-width="2.4375" stroke-miterlimit="10" points="183.293,91.967 259.734,47.832 
			336.174,91.967 383.656,119.397 478.134,173.964 478.134,227.752 478.134,426.132 440.499,447.875 330.356,511.478 
			310.921,522.722 		"/>
		
			<line fill="none" stroke="#231F20" stroke-width="2.4375" stroke-miterlimit="10" x1="137.793" y1="118.227" x2="183.261" y2="91.967"/>
		<polyline fill="none" stroke="#231F20" stroke-width="2.4375" stroke-miterlimit="10" points="209.846,523.47 189.078,511.478 
			125.281,474.622 41.301,426.132 41.301,227.752 41.301,173.964 137.793,118.26 		"/>
		<polyline fill="none" stroke="#231F20" stroke-width="2.4375" stroke-miterlimit="10" points="310.888,522.722 259.734,552.265 
			252.226,547.942 209.879,523.47 		"/>
		<path fill="none" stroke="#231F20" stroke-width="2.4375" stroke-miterlimit="10" d="M137.793,297.367
			c-10.854-8.223-17.842-21.255-17.842-35.913c0-24.862,20.149-45.045,45.045-45.045c24.895,0,45.045,20.183,45.045,45.045
			c0,13.357-5.785,25.35-15.015,33.572c-7.963,7.15-18.493,11.473-30.03,11.473C154.758,306.5,145.333,303.087,137.793,297.367z"/>
		<path fill="none" stroke="#231F20" stroke-width="2.4375" stroke-miterlimit="10" d="M310.369,272.375
			c-0.91-3.478-1.365-7.15-1.365-10.92c0-24.862,20.184-45.045,45.045-45.045c24.896,0,45.077,20.183,45.077,45.045
			c0,13.552-5.979,25.708-15.47,33.962c-7.897,6.89-18.266,11.083-29.607,11.083c-11.311,0-21.678-4.193-29.575-11.083
			c-6.856-5.947-11.861-13.942-14.104-23.01"/>
		<path fill="none" stroke="#231F20" stroke-width="2.4375" stroke-miterlimit="10" d="M291.55,257.067
			c-7.409,9.36-18.882,15.34-31.785,15.34c-8.742,0-16.867-2.763-23.498-7.475c-10.433-7.377-17.225-19.5-17.225-33.248
			c0-22.49,18.233-40.723,40.723-40.723c22.49,0,40.69,18.232,40.69,40.723c0,9.587-3.314,18.428-8.872,25.382"/>
		<path fill="none" stroke="#231F20" stroke-width="2.4375" stroke-miterlimit="10" d="M395.095,341.665
			c-4.289-5.948-6.823-13.261-6.823-21.158c0-7.93,2.566-15.274,6.89-21.222c4.745-6.468,11.537-11.278,19.436-13.488
			c3.088-0.877,6.369-1.333,9.75-1.333c19.923,0,36.043,16.153,36.043,36.042c0,8.71-3.088,16.673-8.19,22.913
			c-6.63,8.027-16.64,13.162-27.853,13.162c-3.119,0-6.143-0.39-9.034-1.138c-1.886-0.487-3.705-1.104-5.46-1.886
			c-5.852-2.566-10.889-6.662-14.625-11.765c-0.033-0.033-0.065-0.098-0.099-0.13"/>
		<path fill="none" stroke="#231F20" stroke-width="2.4375" stroke-miterlimit="10" d="M126.191,342.898
			c-2.21,2.828-4.844,5.299-7.833,7.346c-5.785,3.998-12.838,6.338-20.41,6.338c-8.97,0-17.192-3.282-23.498-8.71
			c-7.703-6.63-12.578-16.412-12.578-27.365c0-19.89,16.153-36.042,36.075-36.042c3.38,0,6.663,0.455,9.75,1.365
			c9.978,2.763,18.2,9.75,22.651,18.882c2.341,4.776,3.641,10.142,3.641,15.795c0,8.45-2.894,16.218-7.769,22.36"/>
		<polygon fill="none" stroke="#231F20" stroke-width="2.4375" stroke-miterlimit="10" points="389.214,430.13 367.081,439.295 
			335.036,452.555 300.456,466.854 273.058,478.197 259.734,483.722 144.846,436.175 130.286,430.13 149.851,423.337 
			216.866,400.034 234.676,393.859 259.734,385.148 287.229,394.704 292.266,396.46 339.001,412.677 348.068,415.829 
			388.271,429.805 		"/>
		<polyline fill="none" stroke="#231F20" stroke-width="2.4375" stroke-miterlimit="10" points="130.286,430.13 245.888,433.965 
			259.766,434.42 259.766,426.132 259.734,385.148 		"/>
		<polyline fill="none" stroke="#231F20" stroke-width="2.4375" stroke-miterlimit="10" points="389.214,430.13 274.196,433.932 
			259.766,434.42 259.766,443.617 259.734,483.722 		"/>
		<polyline fill="none" stroke="#231F20" stroke-width="2.4375" stroke-miterlimit="10" points="41.301,426.132 61.873,419.6 
			70.518,416.837 117.448,401.887 126.451,399.027 131.131,397.532 201.006,375.27 213.258,371.369 225.674,367.438 
			236.269,364.057 239.258,363.114 259.734,356.582 263.536,357.784 293.76,367.438 318.428,375.27 335.394,380.697 
			343.258,383.199 388.271,397.532 398.119,400.652 403.448,402.342 444.334,415.375 468.124,422.947 478.134,426.132 		"/>
		<polygon fill="none" stroke="#231F20" stroke-width="2.4375" stroke-miterlimit="10" points="111.891,421.614 108.771,414.398 
			103.993,423.239 97.948,434.42 117.448,434.42 		"/>
		<path fill="none" stroke="#231F20" stroke-width="2.4375" stroke-miterlimit="10" d="M424.346,434.842
			c0,5.785-4.681,10.465-10.466,10.465c-5.752,0-10.433-4.68-10.433-10.465c0-5.752,4.681-10.433,10.433-10.433
			C419.666,424.409,424.346,429.09,424.346,434.842z"/>
		<path fill="none" stroke="#231F20" stroke-width="2.4375" stroke-miterlimit="10" d="M118.359,350.244
			c0,0,5.167,0.812,11.927,0.163c9.88-0.942,23.107-5.038,28.34-19.437c0,0,27.073-15.177,12.87,15.178
			c0,0-12.415,21.482-40.365,22.719c-1.495,0.098-3.055,0.098-4.68,0.031c0,0,2.405,9.23,0,30.129"/>
		<path fill="none" stroke="#231F20" stroke-width="2.4375" stroke-miterlimit="10" d="M74.484,347.872c0,0,0,0-0.033,0
			c-1.365,0.878-39.487,25.415-12.578,51.155c0,0,15.502,12.805,20.897,0c0,0,5.167-6.272-9.556-18.429
			c-1.625-1.364-3.51-2.795-5.688-4.29"/>
		
			<line fill="none" stroke="#231F20" stroke-width="2.4375" stroke-miterlimit="10" x1="73.216" y1="380.6" x2="83.648" y2="369.972"/>
		<path fill="none" stroke="#231F20" stroke-width="2.4375" stroke-miterlimit="10" d="M61.873,399.027c0,0-6.792,9.521,0,20.571"/>
		<path fill="none" stroke="#231F20" stroke-width="2.4375" stroke-miterlimit="10" d="M446.771,369.972
			c-19.5,24.929-27.073-6.856-27.073-6.856c-1.234-3.803-2.762-6.207-4.387-7.67c-1.788-1.625-3.705-2.016-5.46-1.886
			c-3.511,0.325-6.403,3.022-6.403,3.022s-0.162,2.665,0.261,6.5c0.552,4.907,2.047,11.798,6.045,17.518
			c4.484,6.469,12.122,11.505,25.122,10.758c0,0,17.322-0.162,17.322-10.758"/>
		<path fill="none" stroke="#231F20" stroke-width="2.4375" stroke-miterlimit="10" d="M403.448,363.114
			c-9.327-8.646-8.319-20.312-8.222-21.319c0-0.033,0-0.065,0-0.065s-0.033-0.031-0.099-0.063h-0.033
			c-1.363-0.65-12.382-5.33-14.396,6.207c0,0,1.138,29.445,22.75,32.532c1.918,0.293,4.03,0.391,6.306,0.194"/>
		<path fill="none" stroke="#231F20" stroke-width="2.4375" stroke-miterlimit="10" d="M452.198,343.42
			c0,0,27.235,27.268,15.926,79.527"/>
		<path fill="none" stroke="#231F20" stroke-width="2.4375" stroke-miterlimit="10" d="M403.416,380.697
			c0,0-4.322,9.62,0.032,21.645v0.033"/>
		<path fill="none" stroke="#231F20" stroke-width="2.4375" stroke-miterlimit="10" d="M324.473,295.417
			c0,0-8.579,6.208-15.47,14.819c-4.939,6.144-9.035,13.521-8.548,20.734c0,0-14.008-30.907-25.935-19.5
			c0,0-5.429,5.915,18.427,36.4c0,0,12.968,15.566,24.863-4.42"/>
		<polyline fill="none" stroke="#231F20" stroke-width="2.4375" stroke-miterlimit="10" points="383.656,295.417 395.161,299.285 
			395.227,299.317 		"/>
		<path fill="none" stroke="#231F20" stroke-width="2.4375" stroke-miterlimit="10" d="M318.428,375.27
			c0,0-2.729-13.292-0.616-31.816c0.031-0.032,0.031-0.032,0.031-0.032c0.976-8.386,2.957-17.843,6.63-27.625"/>
		<polyline fill="none" stroke="#231F20" stroke-width="2.4375" stroke-miterlimit="10" points="270.166,508.52 252.876,522.722 
			231.946,510.534 223.464,505.562 219.109,503.027 202.144,493.148 190.346,486.257 176.533,478.197 167.271,472.802 
			157.424,467.05 146.991,460.939 140.069,456.942 130.286,451.222 140.523,445.729 141.271,445.307 146.991,447.875 		"/>
		<polyline fill="none" stroke="#231F20" stroke-width="2.4375" stroke-miterlimit="10" points="252.226,495.52 274.001,505.398 
			270.198,508.52 		"/>
		<polyline fill="none" stroke="#231F20" stroke-width="2.4375" stroke-miterlimit="10" points="146.991,447.907 159.243,453.432 
			166.979,456.942 180.921,463.247 194.993,469.617 206.043,474.622 220.312,481.09 234.676,487.59 252.194,495.52 		"/>
		<path fill="none" stroke="#231F20" stroke-width="2.4375" stroke-miterlimit="10" d="M137.793,297.367c0,0-6.37,8.773-7.442,7.345
			c-0.031,0-0.031-0.032-0.064-0.063"/>
		<path fill="none" stroke="#231F20" stroke-width="2.4375" stroke-miterlimit="10" d="M225.674,367.438
			c-1.268-26.553-5.883-43.354-11.18-54.016c-8.808-17.745-19.467-18.395-19.467-18.395"/>
		<path fill="none" stroke="#231F20" stroke-width="2.4375" stroke-miterlimit="10" d="M210.333,315.795
			c0,0,22.198,54.177-15.307,54.177c0,0-23.304-4.938-23.53-23.821"/>
		<path fill="none" stroke="#231F20" stroke-width="2.4375" stroke-miterlimit="10" d="M171.496,327.17c0,0,9.815-3.186,18.493,8.97
			c1.755,2.438,3.478,5.525,5.038,9.394"/>
		<path fill="none" stroke="#231F20" stroke-width="2.4375" stroke-miterlimit="10" d="M188.948,320.507
			c0,0,4.257,8.905,1.04,15.633v0.032"/>
		<path fill="none" stroke="#231F20" stroke-width="2.4375" stroke-miterlimit="10" d="M137.793,328.34c0,0-1.917,3.672-5.882,8.515
			c-1.592,1.854-3.479,3.934-5.688,6.014l-0.031,0.032"/>
		<polyline fill="none" stroke="#231F20" stroke-width="2.4375" stroke-miterlimit="10" points="131.976,336.172 131.911,336.854 
			130.286,350.407 		"/>
		
			<line fill="none" stroke="#231F20" stroke-width="2.4375" stroke-miterlimit="10" x1="131.131" y1="368.867" x2="131.131" y2="397.532"/>
		<path fill="none" stroke="#231F20" stroke-width="2.4375" stroke-miterlimit="10" d="M236.269,264.932c0,0-25.253,28.762,0,71.24
			c0,0,12.902,15.47,21.449,3.12c0.684-1.008,1.365-2.242,2.016-3.673c0,0-20.963-25.577-11.213-40.592"/>
		<path fill="none" stroke="#231F20" stroke-width="2.4375" stroke-miterlimit="10" d="M291.55,257.067c0,0,0,0,0.033,0
			c0.617,0,11.699,0.228,18.785,15.308v0.033"/>
		<path fill="none" stroke="#231F20" stroke-width="2.4375" stroke-miterlimit="10" d="M300.943,284.464
			c0,0,5.721,9.36,8.061,25.772"/>
		<path fill="none" stroke="#231F20" stroke-width="2.4375" stroke-miterlimit="10" d="M236.269,336.172c0,0-3.575,19.793,0,27.885"
			/>
		<path fill="none" stroke="#231F20" stroke-width="2.4375" stroke-miterlimit="10" d="M257.816,339.357
			c1.917-3.479,5.59-5.852,9.813-5.852c6.208,0,11.213,5.005,11.213,11.181s-5.005,11.212-11.213,11.212
			c-1.17,0-2.273-0.161-3.313-0.52c-4.519-1.396-7.833-5.688-7.833-10.692C256.484,342.77,256.971,340.949,257.816,339.357z"/>
		<polygon fill="none" stroke="#231F20" stroke-width="2.4375" stroke-miterlimit="10" points="299.22,484.015 299.22,499.972 
			316.999,499.972 316.999,483.722 		"/>
		<path fill="none" stroke="#231F20" stroke-width="2.4375" stroke-miterlimit="10" d="M117.448,401.887
			c0,0,83.558,16.088,83.558-26.617"/>
		
			<line fill="none" stroke="#231F20" stroke-width="2.4375" stroke-miterlimit="10" x1="293.76" y1="367.438" x2="287.229" y2="394.704"/>
		
			<line fill="none" stroke="#231F20" stroke-width="2.4375" stroke-miterlimit="10" x1="292.266" y1="396.427" x2="335.394" y2="380.697"/>
		
			<line fill="none" stroke="#231F20" stroke-width="2.4375" stroke-miterlimit="10" x1="339.001" y1="412.677" x2="343.258" y2="383.199"/>
		
			<line fill="none" stroke="#231F20" stroke-width="2.4375" stroke-miterlimit="10" x1="348.068" y1="415.829" x2="388.271" y2="397.532"/>
		<path fill="none" stroke="#231F20" stroke-width="2.4375" stroke-miterlimit="10" d="M213.258,371.369
			c0,0-9.652,26.779,3.607,28.665"/>
		<path fill="none" stroke="#231F20" stroke-width="2.4375" stroke-miterlimit="10" d="M239.258,363.114
			c0,0-12.74,19.663-4.583,30.713"/>
		<path fill="none" stroke="#231F20" stroke-width="2.4375" stroke-miterlimit="10" d="M70.518,416.837
			c0,0,12.415,10.4,33.476,6.402"/>
		<path fill="none" stroke="#231F20" stroke-width="2.4375" stroke-miterlimit="10" d="M111.924,421.614
			c0,0,37.311-18.851,37.927,1.723"/>
		<path fill="none" stroke="#231F20" stroke-width="2.4375" stroke-miterlimit="10" d="M144.846,436.175
			c2.016,3.575-1.104,5.752-5.654,7.085c-7.28,2.112-18.233,2.047-18.233,2.047s13.229,19.695,4.323,29.315"/>
		<polyline fill="none" stroke="#231F20" stroke-width="2.4375" stroke-miterlimit="10" points="231.946,510.534 252.194,495.52 
			252.226,495.52 		"/>
		
			<line fill="none" stroke="#231F20" stroke-width="2.4375" stroke-miterlimit="10" x1="219.109" y1="503.027" x2="234.676" y2="487.59"/>
		
			<line fill="none" stroke="#231F20" stroke-width="2.4375" stroke-miterlimit="10" x1="202.144" y1="493.148" x2="220.312" y2="481.09"/>
		<polyline fill="none" stroke="#231F20" stroke-width="2.4375" stroke-miterlimit="10" points="190.346,486.257 206.043,474.622 
			206.076,474.622 		"/>
		<polyline fill="none" stroke="#231F20" stroke-width="2.4375" stroke-miterlimit="10" points="176.533,478.197 194.993,469.617 
			195.026,469.617 		"/>
		<polyline fill="none" stroke="#231F20" stroke-width="2.4375" stroke-miterlimit="10" points="167.271,472.802 180.921,463.247 
			180.953,463.247 		"/>
		
			<line fill="none" stroke="#231F20" stroke-width="2.4375" stroke-miterlimit="10" x1="157.424" y1="467.05" x2="166.979" y2="456.942"/>
		
			<line fill="none" stroke="#231F20" stroke-width="2.4375" stroke-miterlimit="10" x1="146.991" y1="460.939" x2="159.243" y2="453.432"/>
		<polyline fill="none" stroke="#231F20" stroke-width="2.4375" stroke-miterlimit="10" points="140.069,456.942 146.991,447.907 
			146.991,447.875 		"/>
		<polyline fill="none" stroke="#231F20" stroke-width="2.4375" stroke-miterlimit="10" points="388.271,429.805 398.119,400.652 
			398.313,400.034 		"/>
		<polyline fill="none" stroke="#231F20" stroke-width="2.4375" stroke-miterlimit="10" points="277.576,404.52 282.938,409.622 
			287.845,414.302 		"/>
		<polyline fill="none" stroke="#231F20" stroke-width="2.4375" stroke-miterlimit="10" points="278.129,414.172 282.938,409.622 
			288.756,404.032 		"/>
		<path fill="none" stroke="#231F20" stroke-width="2.4375" stroke-miterlimit="10" d="M278.812,402.439
			c0,0.91-0.488,1.69-1.235,2.08c-0.325,0.229-0.747,0.325-1.17,0.325c-1.333,0-2.405-1.071-2.405-2.405
			c0-1.331,1.072-2.404,2.405-2.404C277.738,400.034,278.812,401.107,278.812,402.439z"/>
		<path fill="none" stroke="#231F20" stroke-width="2.4375" stroke-miterlimit="10" d="M278.812,415.829
			c0,1.333-1.073,2.405-2.405,2.405c-1.333,0-2.405-1.072-2.405-2.405c0-1.332,1.072-2.404,2.405-2.404
			c0.683,0,1.3,0.292,1.723,0.747C278.55,414.595,278.812,415.18,278.812,415.829z"/>
		<path fill="none" stroke="#231F20" stroke-width="2.4375" stroke-miterlimit="10" d="M292.071,415.829
			c0,1.333-1.072,2.405-2.405,2.405c-1.332,0-2.405-1.072-2.405-2.405c0-0.585,0.195-1.104,0.585-1.527
			c0.392-0.552,1.073-0.877,1.82-0.877C290.999,413.425,292.071,414.497,292.071,415.829z"/>
		<path fill="none" stroke="#231F20" stroke-width="2.4375" stroke-miterlimit="10" d="M292.916,402.375
			c0,1.332-1.072,2.404-2.405,2.404c-0.682,0-1.3-0.292-1.755-0.747c-0.422-0.423-0.683-1.009-0.683-1.657
			c0-1.333,1.104-2.438,2.438-2.438C291.843,399.938,292.916,401.042,292.916,402.375z"/>
		<path fill="none" stroke="#231F20" stroke-width="2.4375" stroke-miterlimit="10" d="M201.006,422.947
			c0,0,16.412-18.46,35.263,0.39l6.109-4.81c0,0-22.814-24.799-47.353-0.293L201.006,422.947z"/>
		<path fill="none" stroke="#231F20" stroke-width="2.4375" stroke-miterlimit="10" d="M273.058,478.197
			c0,0,27.886,13.39,27.886-10.174c0,0,34.45,11.245,34.45-14.593c0,0,28.633,10.498,31.688-14.137
			c0.065-0.195,0.065-0.391,0.098-0.585"/>
		<path fill="none" stroke="#231F20" stroke-width="2.4375" stroke-miterlimit="10" d="M390.188,456.942
			c0,0-14.917-3.835-20.604,12.675C369.584,469.617,387.198,473.744,390.188,456.942z"/>
		<path fill="none" stroke="#231F20" stroke-width="2.4375" stroke-miterlimit="10" d="M444.334,415.375
			c0,0-29.282,10.432-3.835,32.5"/>
		
			<line fill="none" stroke="#231F20" stroke-width="2.4375" stroke-miterlimit="10" x1="223.464" y1="505.562" x2="189.078" y2="511.478"/>
		<polyline fill="none" stroke="#231F20" stroke-width="2.4375" stroke-miterlimit="10" points="270.166,508.52 270.198,508.52 
			279.948,509.007 330.356,511.478 		"/>
		<polyline fill="none" stroke="#231F20" stroke-width="2.4375" stroke-miterlimit="10" points="279.948,509.007 269.97,523.015 
			252.226,547.942 		"/>
		<polyline fill="none" stroke="#231F20" stroke-width="2.4375" stroke-miterlimit="10" points="209.846,523.47 209.879,523.47 
			252.876,523.145 269.97,523.015 310.888,522.722 310.921,522.722 		"/>
		<path fill="none" stroke="#231F20" stroke-width="2.4375" stroke-miterlimit="10" d="M274.196,433.932
			c0.032,0.293,0.063,0.618,0.063,0.943c0,4.842-6.369,8.742-14.202,8.742c-0.098,0-0.194,0-0.292,0
			c-7.734-0.099-13.941-3.965-13.941-8.742c0-0.325,0.032-0.618,0.064-0.91c0.748-4.323,6.663-7.735,13.877-7.833
			c0.099,0,0.195,0,0.292,0C267.371,426.132,273.383,429.545,274.196,433.932z"/>
		<path fill="none" stroke="#231F20" stroke-width="2.4375" stroke-miterlimit="10" d="M41.301,227.752
			c0,0,21.678-16.12,58.402-32.987c11.343-5.2,24.083-10.465,38.09-15.373c62.888-22.002,150.769-36.335,245.863-1.982
			c13.292,4.777,26.747,10.53,40.269,17.355c17.938,9.035,36.041,19.955,54.21,32.987"/>
		<path fill="none" stroke="#231F20" stroke-width="2.4375" stroke-miterlimit="10" d="M99.703,194.765c0,0,23.14,41.6,7.995,91.065
			"/>
		<path fill="none" stroke="#231F20" stroke-width="2.4375" stroke-miterlimit="10" d="M183.261,91.967c0,0,0,0,0.032,0
			c2.08,1.69,78,62.4,152.88,0"/>
		<path fill="none" stroke="#231F20" stroke-width="2.4375" stroke-miterlimit="10" d="M423.925,194.765
			c0,0-24.181,32.922-9.328,91.032v0.033"/>
		<polyline fill="none" stroke="#231F20" stroke-width="2.4375" stroke-miterlimit="10" points="137.793,179.392 137.793,118.26 
			137.793,118.227 		"/>
		<polyline fill="none" stroke="#231F20" stroke-width="2.4375" stroke-miterlimit="10" points="383.656,118.227 383.656,119.397 
			383.656,177.41 		"/>
		<polygon fill="none" stroke="#231F20" stroke-width="2.4375" stroke-miterlimit="10" points="494.903,435.784 259.766,571.537 
			24.596,435.784 24.596,164.247 259.766,28.495 494.903,164.247 		"/>
	</g>
</g>
</svg>
