<?xml version="1.0" encoding="utf-8"?>
<!-- Generator: Adobe Illustrator 15.0.2, SVG Export Plug-In . SVG Version: 6.00 Build 0)  -->
<!DOCTYPE svg PUBLIC "-//W3C//DTD SVG 1.1//EN" "http://www.w3.org/Graphics/SVG/1.1/DTD/svg11.dtd">
<svg version="1.1" id="Layer_1" xmlns="http://www.w3.org/2000/svg" xmlns:xlink="http://www.w3.org/1999/xlink" x="0px" y="0px"
	 width="515.5px" height="592.5px" viewBox="0 0 515.5 592.5" enable-background="new 0 0 515.5 592.5" xml:space="preserve">
<g>
	<g id="XMLID_1_">
		<g>
			<path fill="#3F085C" d="M508.734,151.402v289.77L257.714,586.535L6.766,441.172v-289.77L257.714,5.965L508.734,151.402z
				 M493.736,433.818V163.46L257.787,28.317L21.839,163.46v270.358l235.948,135.145L493.736,433.818z"/>
			<path fill="#7B2A8F" d="M493.736,163.46v270.358L257.787,568.963L21.839,433.818V163.46L257.787,28.317L493.736,163.46z
				 M476.898,423.453V170.445L257.787,43.905L38.676,170.445v253.008l219.111,126.539L476.898,423.453z"/>
			<path fill="#F9EC31" d="M364.77,476.098l102.645-58.453h1.323l-0.735-0.295l0.735-0.441V176.915l-99.776-56.763L257.787,56.846
				l-115.731,65.88l-95.218,54.189v239.993l0.734,0.441l-0.734,0.293h1.324l104.702,59.631l104.924,59.703L364.77,476.098z
				 M476.898,170.445v253.008L257.787,549.992L38.676,423.453V170.445l219.111-126.54L476.898,170.445z"/>
			<path fill="#0E0400" d="M468.736,176.915v239.993l-0.735,0.441l-103.673-45.293l1.103-31.029l0.074-1.543
				c0-9.928-9.191-18.896-24.411-25.955l2.426-16.618c2.795,0.515,5.589,0.736,8.529,0.736c30.733,0,55.66-24.926,55.66-55.661
				c0-30.734-24.927-55.66-55.66-55.66c-5.734,0-11.323,0.882-16.543,2.5l-2.941-10.956l19.999-5.368l11.104-43.087l5.294-9.264
				L468.736,176.915z M425.503,354.482l-14.117-35.807l-38.676-8.383l10.662,22.059L425.503,354.482z"/>
			<polygon fill="#603813" points="468.736,417.643 467.413,417.643 468.001,417.35 			"/>
			<polygon fill="#472700" points="364.328,372.057 468.001,417.35 467.413,417.643 362.711,417.643 			"/>
			<path fill="#A6A8AB" d="M467.413,417.643l-102.645,58.455l-98.231-39.705c0.366-6.396,0.882-12.721,1.765-18.75h79.481h0.074
				c1.838,19.043,2.573,36.396,2.573,36.396h11.029l1.25-36.396H467.413z"/>
			<polygon fill="#BBE5FA" points="411.386,318.676 425.503,354.482 383.372,332.352 372.71,310.295 			"/>
			<path fill="#EC1C24" d="M352.049,186.327c30.733,0,55.66,24.926,55.66,55.66c0,30.734-24.927,55.661-55.66,55.661
				c-2.94,0-5.734-0.221-8.529-0.736c-26.688-4.044-47.131-27.131-47.131-54.925c0-24.999,16.471-46.101,39.117-53.16
				C340.726,187.209,346.314,186.327,352.049,186.327z M403.077,241.987c0-28.161-22.867-50.954-51.028-50.954
				c-28.16,0-50.954,22.793-50.954,50.954c0,28.161,22.794,50.955,50.954,50.955C380.21,292.941,403.077,270.148,403.077,241.987z"
				/>
			<path fill="#981B1E" d="M352.049,191.033c28.161,0,51.028,22.793,51.028,50.954c0,28.161-22.867,50.955-51.028,50.955
				c-28.16,0-50.954-22.793-50.954-50.955C301.095,213.826,323.889,191.033,352.049,191.033z M398.004,241.987
				c0-25.367-20.588-45.881-45.955-45.881c-25.293,0-45.881,20.514-45.881,45.881c0,25.367,20.588,45.881,45.881,45.881
				C377.416,287.868,398.004,267.354,398.004,241.987z"/>
			<path fill="#BE1E2D" d="M352.049,196.106c25.367,0,45.955,20.514,45.955,45.881c0,25.367-20.588,45.881-45.955,45.881
				c-25.293,0-45.881-20.514-45.881-45.881C306.168,216.62,326.756,196.106,352.049,196.106z M392.488,241.987
				c0-22.867-18.088-41.396-40.439-41.396c-22.278,0-40.366,18.529-40.366,41.396c0,22.867,18.088,41.396,40.366,41.396
				C374.4,283.383,392.488,264.854,392.488,241.987z"/>
			<path fill="#7F0000" d="M352.049,200.591c22.353,0,40.439,18.529,40.439,41.396c0,22.867-18.088,41.396-40.439,41.396
				c-22.278,0-40.366-18.529-40.366-41.396C311.683,219.12,329.771,200.591,352.049,200.591z M375.799,221.179
				c1.103-4.559-3.604-10.367-10.956-13.161c-7.279-2.794-14.56-1.691-16.838,2.426c0,0-0.222,0.368-0.441,1.103
				c-0.146,0.294-0.22,0.588-0.22,0.882c-0.074,0.221-0.074,0.515-0.074,0.809c-0.221,3.088,1.177,8.162,11.104,12.647
				c16.103,5.073,17.5-4.779,17.5-4.779S375.799,221.105,375.799,221.179z M388.96,246.104c-42.793,30.22-73.233-9.632-73.233-9.632
				s-4.044,35.881,32.94,40.219C384.475,279.853,388.96,246.104,388.96,246.104z"/>
			<path fill="#FBE6EF" d="M364.843,208.017c7.353,2.794,12.059,8.603,10.956,13.161c-19.854,10.073-27.794-10.735-27.794-10.735
				C350.283,206.326,357.563,205.223,364.843,208.017z"/>
			<path fill="#D91F40" d="M375.799,221.179c0-0.073,0.073-0.073,0.073-0.073s-1.397,9.853-17.5,4.779
				c-9.927-4.485-11.323-9.559-11.104-12.647c0,4.338,4.485,9.265,11.104,11.765c7.721,2.941,15.366,1.544,17.206-3.162
				C375.65,221.62,375.725,221.399,375.799,221.179z"/>
			<path fill="#D91F40" d="M375.799,221.179c-0.074,0.221-0.147,0.441-0.221,0.662c-1.84,4.706-9.485,6.103-17.206,3.162
				c-6.617-2.5-11.104-7.426-11.104-11.765c0-0.294,0-0.588,0.074-0.809c0.073-0.294,0.146-0.662,0.22-0.882
				c0.221-0.735,0.441-1.103,0.441-1.103S355.945,231.252,375.799,221.179z"/>
			<path fill="#0E0400" d="M257.787,56.846l111.173,63.307l-5.294,9.264l-32.059,27.058l-6.617,19.043l-13.455-4.706
				c1.617-5.221,2.499-10.809,2.499-16.544c0-30.734-24.925-55.66-55.659-55.66s-55.66,24.925-55.66,55.66
				c0,5.735,0.882,11.323,2.5,16.544l-10.661,5.514l-11.25-21.617l-35.661-22.132l-5.588-9.853L257.787,56.846z"/>
			<path fill="#C1B49A" d="M365.505,339.484l-0.074,1.543c-0.955,6.766-8.161,14.928-21.47,22.133l-33.822-14.779l46.543-17.867
				l-98.453-29.043l-0.074-2.793c0.147,0,0.222,0,0.368,0c33.234,0,62.939,5.734,82.571,14.852
				C356.313,320.588,365.505,329.557,365.505,339.484z"/>
			<path fill="#9A8479" d="M365.431,341.027l-1.103,31.029l-20.367-8.896C357.27,355.955,364.476,347.793,365.431,341.027z"/>
			<path fill="#7F7575" d="M364.77,476.098l-106.981,60.881l-104.924-59.705l96.909-41.174h0.441
				c2.353,28.527,1.103,56.982,1.103,56.982h7.206h8.456c0,0-2.133-28.234-0.44-56.689L364.77,476.098z"/>
			<path fill="#C1B49A" d="M364.328,372.057l-1.617,45.586l-1.25,36.396h-11.029c0,0-0.735-17.354-2.573-36.396
				c-2.427-24.117-6.544-50.953-13.234-49.41l-0.222-0.588c3.529-1.471,6.691-3.016,9.56-4.484L364.328,372.057z"/>
			<polygon fill="#BBE5FA" points="363.666,129.417 352.563,172.504 332.564,177.871 323.3,180.371 324.99,175.518 331.608,156.475 
							"/>
			<path fill="#460000" d="M315.727,236.473c0,0,30.44,39.852,73.233,9.632c0,0-4.485,33.749-40.293,30.587
				C311.683,272.354,315.727,236.473,315.727,236.473z"/>
			<polygon fill="#00ADEE" points="356.682,330.514 310.139,348.381 298.152,343.088 327.712,331.764 258.302,311.322 
				189.334,332.865 217.861,343.455 205.583,348.748 160.363,332.057 258.229,301.471 			"/>
			<path fill="#58595B" d="M347.858,417.643h-0.074h-79.481c2.794-20.955,8.603-38.307,20.293-38.895
				c18.603-2.133,33.97-6.178,45.808-11.104l0.222,0.588C341.314,366.689,345.432,393.525,347.858,417.643z"/>
			<path fill="#D91F40" d="M347.563,211.547c-0.073,0.221-0.146,0.588-0.22,0.882C347.344,212.135,347.417,211.841,347.563,211.547z
				"/>
			<path fill="#C1B49A" d="M258.229,368.232l51.91-19.852l33.822,14.777c-2.867,1.471-6.029,3.016-9.56,4.484
				c-11.838,4.928-27.205,8.971-45.808,11.104c-9.19,1.029-19.264,1.617-30.072,1.617c-10.44,0-20.587-0.588-30.146-1.617
				c-17.646-1.984-33.455-5.66-46.028-10.588c-3.824-1.471-7.353-3.088-10.515-4.779l33.749-14.631L258.229,368.232z"/>
			<path fill="#0E0400" d="M343.52,296.911l-2.426,16.618c-19.632-9.118-49.337-14.853-82.571-14.853c-0.146,0-0.22,0-0.368,0
				c-53.38,0.073-97.569,15-105.363,34.558l-14.191-5l6.471-18.309l1.985-14.78c5.22,1.618,10.808,2.5,16.543,2.5
				c30.808,0,55.733-24.926,55.733-55.661c0-28.822-21.911-52.498-49.999-55.366l1.471-12.279l24.189,2.867l-0.44-0.882
				l10.661-5.514c7.059,22.646,28.161,39.116,53.16,39.116c25,0,46.101-16.47,53.16-39.116l13.455,4.706l-1.69,4.853l9.265-2.5
				l2.941,10.956c-22.646,7.059-39.117,28.161-39.117,53.16C296.389,269.78,316.83,292.868,343.52,296.911z"/>
			<polygon fill="#00FFFF" points="327.712,331.764 298.152,343.088 258.522,325.807 217.861,343.455 189.334,332.865 
				258.302,311.322 			"/>
			<path fill="#2B388F" d="M314.034,154.269c0,5.735-0.882,11.323-2.498,16.544c-7.061,22.646-28.161,39.116-53.161,39.116
				c-24.999,0-46.103-16.47-53.16-39.116c-1.618-5.221-2.5-10.809-2.5-16.544c0-30.734,24.926-55.66,55.66-55.66
				C289.109,98.609,314.034,123.535,314.034,154.269z M304.257,154.269c0-25.293-20.588-45.881-45.881-45.881
				c-25.367,0-45.881,20.588-45.881,45.881c0,25.367,20.514,45.881,45.881,45.881C283.669,200.15,304.257,179.636,304.257,154.269z"
				/>
			<polygon fill="#26A9E0" points="298.152,343.088 310.139,348.381 258.229,368.232 205.583,348.748 217.861,343.455 
				258.302,358.381 			"/>
			<polygon fill="#FFFF00" points="298.152,343.088 258.302,358.381 217.861,343.455 258.522,325.807 			"/>
			<path fill="#006C9A" d="M258.376,108.388c25.293,0,45.881,20.588,45.881,45.881c0,25.367-20.588,45.881-45.881,45.881
				c-25.367,0-45.881-20.514-45.881-45.881C212.495,128.976,233.009,108.388,258.376,108.388z M298.741,154.269
				c0-22.867-18.088-41.396-40.366-41.396c-22.279,0-40.366,18.529-40.366,41.396c0,22.867,18.087,41.396,40.366,41.396
				C280.653,195.665,298.741,177.136,298.741,154.269z"/>
			<path fill="#0095DA" d="M258.376,112.873c22.278,0,40.366,18.529,40.366,41.396c0,22.867-18.088,41.396-40.366,41.396
				c-22.279,0-40.366-18.529-40.366-41.396C218.009,131.402,236.097,112.873,258.376,112.873z M282.052,132.285
				c-0.074,0-0.074,0.073-0.147,0.073c1.104-4.559-3.603-10.367-10.956-13.161c-7.204-2.794-14.558-1.691-16.764,2.426
				c0,0-0.074,0.074-0.146,0.221c-0.147,0.147-0.222,0.368-0.295,0.515c-0.294,0.735-0.367,1.471-0.367,2.279
				c-0.147,3.088,1.471,8.088,11.176,12.426C280.653,142.137,282.052,132.285,282.052,132.285z M295.286,158.387
				c-42.866,30.293-73.308-9.632-73.308-9.632s-4.559,37.94,32.353,42.278C290.213,194.121,295.286,158.387,295.286,158.387z"/>
			<path fill="#006C9D" d="M281.903,132.358c0.073,0,0.073-0.073,0.147-0.073c0,0-1.397,9.853-17.5,4.779
				c-9.706-4.338-11.323-9.338-11.176-12.426c0.146,4.265,4.632,9.191,11.103,11.617c7.72,2.941,15.367,1.471,17.205-3.235
				C281.757,132.799,281.831,132.578,281.903,132.358z"/>
			<path fill="#FFFFFF" d="M270.947,119.197c7.354,2.794,12.06,8.603,10.956,13.161c-19.853,10.073-27.72-10.735-27.72-10.735
				C256.39,117.506,263.742,116.403,270.947,119.197z"/>
			<path fill="#006C9D" d="M281.903,132.358c-0.072,0.221-0.146,0.441-0.221,0.662c-1.838,4.706-9.485,6.176-17.205,3.235
				c-6.471-2.426-10.956-7.353-11.103-11.617c0.073-1.397,0.44-2.353,0.662-2.794c0.072-0.147,0.146-0.221,0.146-0.221
				S262.052,142.431,281.903,132.358z"/>
			<path fill="#716558" d="M266.537,436.393c-1.691,28.455,0.44,56.689,0.44,56.689h-8.456V380.73v-0.367
				c10.81,0,20.882-0.588,30.072-1.617c-11.69,0.59-17.499,17.941-20.293,38.896C267.419,423.674,266.903,429.996,266.537,436.393z"
				/>
			<path fill="#004D74" d="M221.979,148.755c0,0,30.44,39.925,73.308,9.632c0,0-5.073,35.734-40.955,32.646
				C217.421,186.695,221.979,148.755,221.979,148.755z"/>
			<path fill="#9A8479" d="M258.522,380.732v112.35h-7.206c0,0,1.25-28.455-1.103-56.982c-0.516-6.25-1.176-12.5-2.06-18.455
				c-3.162-20.955-9.044-38.234-19.778-38.896c9.559,1.029,19.705,1.617,30.146,1.617L258.522,380.732L258.522,380.732z"/>
			<path fill="#C1B49A" d="M151.613,338.527c0.073-1.764,0.441-3.527,1.177-5.293c7.794-19.559,51.983-34.484,105.363-34.558
				l0.074,2.794l-97.865,30.586l45.22,16.691l-33.749,14.631c-10.661-5.588-17.721-12.277-19.705-19.559
				c-0.368-1.396-0.588-2.867-0.588-4.338C151.541,339.189,151.541,338.822,151.613,338.527z"/>
			<path fill="#FFFFFF" d="M253.742,122.358c0.074-0.147,0.147-0.368,0.295-0.515c-0.222,0.441-0.589,1.397-0.662,2.794
				C253.376,123.829,253.448,123.094,253.742,122.358z"/>
			<path fill="#A6A8AB" d="M250.214,436.098h-0.441l-96.909,41.176L48.161,417.643h106.173h0.073l1.177,39.41h11.028
				c0,0,0.735-18.969,2.721-39.41h78.82C249.038,423.598,249.698,429.848,250.214,436.098z"/>
			<path fill="#58595B" d="M248.154,417.643h-78.82c2.427-24.41,6.471-50.953,13.015-49.41v-0.074
				c12.573,4.928,28.381,8.605,46.028,10.59C239.11,379.408,244.993,396.688,248.154,417.643z"/>
			<path fill="#009866" d="M169.334,186.621c28.087,2.868,49.999,26.543,49.999,55.366c0,30.734-24.927,55.661-55.733,55.661
				c-5.735,0-11.323-0.883-16.543-2.5c-22.646-7.059-39.117-28.161-39.117-53.16c0-30.734,24.926-55.66,55.66-55.66
				C165.511,186.327,167.422,186.4,169.334,186.621z M214.627,241.987c0-28.161-22.867-50.954-51.028-50.954
				c-28.087,0-50.955,22.793-50.955,50.954c0,28.161,22.867,50.955,50.955,50.955C191.76,292.941,214.627,270.148,214.627,241.987z"
				/>
			<path fill="#248B39" d="M163.599,191.033c28.161,0,51.028,22.793,51.028,50.954c0,28.161-22.867,50.955-51.028,50.955
				c-28.087,0-50.955-22.793-50.955-50.955C112.645,213.826,135.512,191.033,163.599,191.033z M209.479,241.987
				c0-25.367-20.514-45.881-45.881-45.881c-25.293,0-45.881,20.514-45.881,45.881c0,25.367,20.587,45.881,45.881,45.881
				C188.966,287.868,209.479,267.354,209.479,241.987z"/>
			<path fill="#37B34A" d="M163.599,196.106c25.367,0,45.881,20.514,45.881,45.881c0,25.367-20.514,45.881-45.881,45.881
				c-25.293,0-45.881-20.514-45.881-45.881C117.718,216.62,138.306,196.106,163.599,196.106z M203.965,241.987
				c0-22.867-18.015-41.396-40.366-41.396c-22.279,0-40.366,18.529-40.366,41.396c0,22.867,18.087,41.396,40.366,41.396
				C185.95,283.383,203.965,264.854,203.965,241.987z"/>
			<polygon fill="#BBE5FA" points="194.554,176.327 194.995,177.209 170.805,174.342 164.922,173.68 147.644,132.578 
				183.304,154.71 			"/>
			<path fill="#006838" d="M163.599,200.591c22.352,0,40.366,18.529,40.366,41.396c0,22.867-18.015,41.396-40.366,41.396
				c-22.279,0-40.366-18.529-40.366-41.396C123.232,219.12,141.319,200.591,163.599,200.591z M187.348,220.002
				c-0.073,0.074-0.22,0.074-0.294,0.147c1.324-4.632-3.382-10.441-10.81-13.235c-7.278-2.794-14.632-1.691-16.837,2.426
				c0,0-0.073,0.147-0.221,0.515c-0.074,0.074-0.146,0.147-0.146,0.221c0,0.074-0.074,0.074,0,0.147
				c-0.222,0.368-0.294,0.735-0.294,1.103c-0.073,0.294-0.073,0.588-0.073,0.882c-0.222,3.088,1.323,8.162,11.176,12.5
				C185.878,229.855,187.348,220.002,187.348,220.002z M200.51,246.104c-42.866,30.22-73.233-9.632-73.233-9.632
				s-4.044,35.881,32.866,40.219C196.098,279.853,200.51,246.104,200.51,246.104z"/>
			<path fill="#009345" d="M187.054,220.149c0.074-0.073,0.221-0.073,0.294-0.147c0,0-1.47,9.853-17.5,4.706
				c-9.853-4.338-11.396-9.411-11.176-12.5c0,4.265,4.484,9.191,11.103,11.691c7.647,2.941,15.367,1.544,17.132-3.162
				C186.98,220.517,187.054,220.37,187.054,220.149z"/>
			<path fill="#FFFFFF" d="M176.246,206.914c7.426,2.794,12.132,8.603,10.809,13.235c-19.705,9.853-27.646-10.809-27.646-10.809
				C161.613,205.223,168.966,204.12,176.246,206.914z"/>
			<path fill="#37B34A" d="M187.054,220.149c0,0.221-0.074,0.368-0.147,0.588c-1.765,4.706-9.484,6.103-17.132,3.162
				c-6.618-2.5-11.103-7.426-11.103-11.691c0-0.294,0-0.588,0.073-0.882c0.073-0.441,0.146-0.809,0.294-1.103
				c0-0.147,0.072-0.294,0.146-0.368c0.147-0.367,0.221-0.515,0.221-0.515S167.349,230.002,187.054,220.149z"/>
			<path fill="#C1B49A" d="M182.349,368.158v0.074c-6.544-1.543-10.588,25-13.015,49.41c-1.985,20.441-2.721,39.41-2.721,39.41
				h-11.028l-1.177-39.41l-1.396-46.027l18.823-8.234C174.996,365.07,178.524,366.689,182.349,368.158z"/>
			<path fill="#004215" d="M127.276,236.473c0,0,30.367,39.852,73.233,9.632c0,0-4.412,33.749-40.367,30.587
				C123.232,272.354,127.276,236.473,127.276,236.473z"/>
			<path fill="#9A8479" d="M171.834,363.381l-18.823,8.234l-0.882-27.793C154.113,351.102,161.173,357.793,171.834,363.381z"/>
			<path fill="#0E0400" d="M151.613,338.527c-0.073,0.295-0.073,0.662-0.073,0.957c0,1.471,0.221,2.939,0.588,4.338l0.882,27.793
				L47.572,417.35l-0.734-0.441V176.915l95.218-54.189l5.588,9.853l17.279,41.102l5.882,0.662l-1.471,12.279
				c-1.912-0.221-3.823-0.294-5.735-0.294c-30.734,0-55.66,24.926-55.66,55.66c0,25,16.47,46.102,39.117,53.16l-1.985,14.78
				L111.321,320l-12.278,42.793l36.689-26.396l2.867-8.16l14.191,5C152.055,335,151.688,336.764,151.613,338.527z"/>
			<path fill="#37B34A" d="M159.188,209.855c-0.074,0.074-0.146,0.221-0.146,0.368c-0.074-0.073,0-0.073,0-0.147
				C159.041,210.003,159.113,209.929,159.188,209.855z"/>
			<path fill="#37B34A" d="M159.041,210.223c-0.147,0.294-0.222,0.662-0.294,1.103C158.746,210.958,158.819,210.591,159.041,210.223
				z"/>
			<polygon fill="#472700" points="153.011,371.615 154.407,417.643 154.335,417.643 48.162,417.643 47.572,417.35 			"/>
			<polygon fill="#BBE5FA" points="145.069,309.926 138.6,328.234 135.732,336.395 99.043,362.793 111.32,320 			"/>
			<polygon fill="#603813" points="48.162,417.643 46.838,417.643 47.572,417.35 			"/>
		</g>
		<g>
			<polygon fill="none" stroke="#231F20" stroke-width="2.4375" stroke-miterlimit="10" points="508.734,441.172 257.714,586.535 
				6.766,441.172 6.766,151.402 257.714,5.965 508.734,151.402 			"/>
			<polygon fill="none" stroke="#231F20" stroke-width="2.4375" stroke-miterlimit="10" points="476.898,423.453 257.787,549.992 
				38.676,423.453 38.676,170.445 257.787,43.905 476.898,170.445 			"/>
			<polyline fill="none" stroke="#231F20" stroke-width="2.4375" stroke-miterlimit="10" points="364.328,372.057 468.001,417.35 
				468.736,417.643 			"/>
			<polyline fill="none" stroke="#231F20" stroke-width="2.4375" stroke-miterlimit="10" points="46.838,417.643 47.572,417.35 
				153.011,371.615 			"/>
			<polygon fill="none" stroke="#231F20" stroke-width="1.625" stroke-linecap="round" stroke-linejoin="round" points="
				368.96,120.153 468.736,176.915 468.736,416.908 468.001,417.35 467.413,417.643 364.77,476.098 257.787,536.977 
				152.863,477.273 48.162,417.643 47.572,417.35 46.838,416.908 46.838,176.915 142.056,122.726 257.787,56.846 			"/>
			<path fill="none" stroke="#231F20" stroke-width="2.4375" stroke-miterlimit="10" d="M365.431,341.027
				c-0.955,6.766-8.161,14.928-21.47,22.133c-2.867,1.471-6.029,3.016-9.56,4.484c-11.838,4.926-27.205,8.971-45.808,11.104
				c-9.19,1.029-19.264,1.617-30.072,1.617c-10.44,0-20.587-0.588-30.146-1.617c-17.646-1.984-33.455-5.662-46.028-10.59
				c-3.824-1.469-7.353-3.088-10.515-4.777c-10.661-5.588-17.721-12.279-19.705-19.559c-0.368-1.396-0.588-2.867-0.588-4.338
				c0-0.295,0-0.662,0.073-0.957c0.073-1.764,0.441-3.527,1.177-5.293c7.794-19.559,51.983-34.484,105.363-34.558
				c0.147,0,0.222,0,0.368,0c33.234,0,62.939,5.734,82.571,14.853c15.22,7.059,24.411,16.027,24.411,25.955"/>
			<path fill="none" stroke="#231F20" stroke-width="2.4375" stroke-miterlimit="10" d="M228.377,378.748
				c10.734,0.66,16.616,17.939,19.778,38.895c0.883,5.955,1.544,12.205,2.06,18.455c2.353,28.529,1.103,56.984,1.103,56.984h7.206
				V380.73"/>
			<path fill="none" stroke="#231F20" stroke-width="2.4375" stroke-miterlimit="10" d="M258.522,493.082h8.456
				c0,0-2.133-28.234-0.44-56.689c0.366-6.395,0.882-12.719,1.765-18.748c2.794-20.955,8.603-38.309,20.293-38.896"/>
			<path fill="none" stroke="#231F20" stroke-width="2.4375" stroke-miterlimit="10" d="M365.505,339.484l-0.074,1.543
				l-1.103,31.029l-1.617,45.586l-1.25,36.396h-11.029c0,0-0.735-17.354-2.573-36.396c-2.427-24.117-6.544-50.953-13.234-49.41"/>
			<path fill="none" stroke="#231F20" stroke-width="2.4375" stroke-miterlimit="10" d="M182.349,368.232
				c-6.544-1.543-10.588,25-13.015,49.41c-1.985,20.441-2.721,39.41-2.721,39.41h-11.028l-1.177-39.41l-1.396-46.027l-0.882-27.793"
				/>
			<polygon fill="none" stroke="#231F20" stroke-width="2.4375" stroke-miterlimit="10" points="258.229,301.471 356.682,330.514 
				310.139,348.381 258.229,368.232 205.583,348.748 160.363,332.057 			"/>
			<polygon fill="none" stroke="#231F20" stroke-width="1.625" stroke-linecap="round" stroke-linejoin="round" points="
				217.861,343.455 189.334,332.865 258.302,311.322 327.712,331.764 298.152,343.088 258.302,358.381 			"/>
			<path fill="none" stroke="#EE529C" stroke-width="2.4375" stroke-miterlimit="10" d="M335.506,188.827
				c5.22-1.618,10.809-2.5,16.543-2.5c30.733,0,55.66,24.926,55.66,55.66c0,30.734-24.927,55.661-55.66,55.661
				c-2.94,0-5.734-0.221-8.529-0.736c-26.688-4.044-47.131-27.131-47.131-54.925C296.389,216.988,312.858,195.886,335.506,188.827z"
				/>
			<path fill="none" stroke="#F58545" stroke-width="2.4375" stroke-miterlimit="10" d="M398.004,241.987
				c0,25.367-20.588,45.881-45.955,45.881c-25.293,0-45.881-20.514-45.881-45.881c0-25.367,20.588-45.881,45.881-45.881
				C377.416,196.106,398.004,216.62,398.004,241.987z"/>
			<path fill="none" stroke="#D12333" stroke-width="2.4375" stroke-miterlimit="10" d="M392.488,241.987
				c0,22.867-18.088,41.396-40.439,41.396c-22.278,0-40.366-18.529-40.366-41.396c0-22.867,18.088-41.396,40.366-41.396
				C374.4,200.591,392.488,219.12,392.488,241.987z"/>
			<path fill="none" stroke="#009866" stroke-width="2.4375" stroke-miterlimit="10" d="M169.334,186.621
				c28.087,2.868,49.999,26.543,49.999,55.366c0,30.734-24.927,55.661-55.733,55.661c-5.735,0-11.323-0.883-16.543-2.5
				c-22.646-7.059-39.117-28.161-39.117-53.16c0-30.734,24.926-55.66,55.66-55.66C165.511,186.327,167.422,186.4,169.334,186.621z"
				/>
			<path fill="none" stroke="#004822" stroke-width="3.25" stroke-miterlimit="10" d="M214.627,241.987
				c0,28.161-22.867,50.955-51.028,50.955c-28.087,0-50.955-22.793-50.955-50.955c0-28.161,22.867-50.954,50.955-50.954
				C191.76,191.033,214.627,213.826,214.627,241.987z"/>
			<path fill="none" stroke="#C3D832" stroke-width="2.4375" stroke-miterlimit="10" d="M209.479,241.987
				c0,25.367-20.514,45.881-45.881,45.881c-25.293,0-45.881-20.514-45.881-45.881c0-25.367,20.587-45.881,45.881-45.881
				C188.966,196.106,209.479,216.62,209.479,241.987z"/>
			<path fill="none" stroke="#009E4D" stroke-width="2.4375" stroke-miterlimit="10" d="M203.965,241.987
				c0,22.867-18.015,41.396-40.366,41.396c-22.279,0-40.366-18.529-40.366-41.396c0-22.867,18.087-41.396,40.366-41.396
				C185.95,200.591,203.965,219.12,203.965,241.987z"/>
			<path fill="none" stroke="#26A9E0" stroke-width="2.4375" stroke-miterlimit="10" d="M205.215,170.813
				c-1.618-5.221-2.5-10.809-2.5-16.544c0-30.734,24.926-55.66,55.66-55.66s55.659,24.925,55.659,55.66
				c0,5.735-0.882,11.323-2.498,16.544c-7.061,22.646-28.161,39.116-53.161,39.116C233.377,209.929,212.273,193.459,205.215,170.813
				z"/>
			<path fill="none" stroke="#00ADEE" stroke-width="2.4375" stroke-miterlimit="10" d="M304.257,154.269
				c0,25.367-20.588,45.881-45.881,45.881c-25.367,0-45.881-20.514-45.881-45.881c0-25.293,20.514-45.881,45.881-45.881
				C283.669,108.388,304.257,128.976,304.257,154.269z"/>
			<path fill="none" stroke="#93D8F7" stroke-width="2.4375" stroke-miterlimit="10" d="M298.741,154.269
				c0,22.867-18.088,41.396-40.366,41.396c-22.279,0-40.366-18.529-40.366-41.396c0-22.867,18.087-41.396,40.366-41.396
				C280.653,112.873,298.741,131.402,298.741,154.269z"/>
			<polygon fill="none" stroke="#997DB8" stroke-width="6.5" stroke-miterlimit="10" points="493.736,433.818 257.787,568.963 
				21.839,433.818 21.839,163.46 257.787,28.317 493.736,163.46 			"/>
			<polygon fill="none" stroke="#231F20" stroke-width="1.625" stroke-linecap="round" stroke-linejoin="round" points="
				145.069,309.926 111.32,320 99.043,362.793 135.732,336.395 138.6,328.234 			"/>
			<polygon fill="none" stroke="#231F20" stroke-width="1.625" stroke-linecap="round" stroke-linejoin="round" points="
				372.71,310.295 411.386,318.676 425.503,354.482 383.372,332.352 			"/>
			<polygon fill="none" stroke="#231F20" stroke-width="1.625" stroke-linecap="round" stroke-linejoin="round" points="
				194.554,176.327 194.995,177.209 170.805,174.342 164.922,173.68 147.644,132.578 183.304,154.71 			"/>
			<polygon fill="none" stroke="#231F20" stroke-width="1.625" stroke-linecap="round" stroke-linejoin="round" points="
				324.99,175.518 323.3,180.371 332.564,177.871 352.563,172.504 363.666,129.417 331.608,156.475 			"/>
		</g>
	</g>
	<path fill="#BBE5FA" d="M125.025,300.758c0,4.276-3.469,7.746-7.748,7.746c-4.276,0-7.746-3.47-7.746-7.746
		c0-4.282,3.47-7.75,7.746-7.75C121.557,293.007,125.025,296.475,125.025,300.758z"/>
	<path fill="#BBE5FA" d="M388.932,166.815c0,4.277-3.469,7.746-7.748,7.746c-4.277,0-7.746-3.469-7.746-7.746
		c0-4.283,3.469-7.752,7.746-7.752C385.463,159.063,388.932,162.532,388.932,166.815z"/>
	<path fill="#BBE5FA" d="M415.43,300.758c0,4.276-3.469,7.746-7.746,7.746c-4.278,0-7.748-3.47-7.748-7.746
		c0-4.282,3.47-7.75,7.748-7.75C411.961,293.007,415.43,296.475,415.43,300.758z"/>
	<circle fill="#BBE5FA" cx="189.308" cy="119.302" r="7.747"/>
	<circle fill="#BBE5FA" cx="127.136" cy="169.956" r="7.747"/>
	<path fill="#BBE5FA" d="M335.43,117.253c0,4.277-3.469,7.746-7.746,7.746c-4.279,0-7.748-3.469-7.748-7.746
		c0-4.283,3.469-7.752,7.748-7.752C331.961,109.501,335.43,112.97,335.43,117.253z"/>
</g>
</svg>
