<?xml version="1.0" encoding="utf-8"?>
<!-- Generator: Adobe Illustrator 15.0.2, SVG Export Plug-In  -->
<!DOCTYPE svg PUBLIC "-//W3C//DTD SVG 1.1//EN" "http://www.w3.org/Graphics/SVG/1.1/DTD/svg11.dtd" [
	<!ENTITY ns_flows "http://ns.adobe.com/Flows/1.0/">
]>
<svg version="1.1"
	 xmlns="http://www.w3.org/2000/svg" xmlns:xlink="http://www.w3.org/1999/xlink" xmlns:a="http://ns.adobe.com/AdobeSVGViewerExtensions/3.0/"
	 x="0px" y="0px" width="800px" height="600px" viewBox="-147.798 -8.789 800 600"
	 overflow="visible" enable-background="new -147.798 -8.789 800 600" xml:space="preserve">
<defs>
</defs>
<g id="XMLID_1_">
	<g>
		<path fill="#BE1E2D" d="M253.049,282.502c35.808,0,64.852-29.117,64.852-64.998c0-35.808-29.044-64.851-64.852-64.851
			s-64.924,29.043-64.924,64.851C188.125,253.385,217.241,282.502,253.049,282.502z M301.356,272.135
			c-12.94,11.837-30.22,19.043-49.19,19.043c-19.484,0-37.131-7.647-50.219-20.146c-5.588-5.294-10.367-11.544-14.044-18.456
			c-5.441-10.22-8.529-21.837-8.529-34.19c0-40.146,32.646-72.718,72.792-72.718c35.219,0,64.557,24.926,71.322,58.086
			c0.956,4.706,1.471,9.632,1.471,14.632c0,11.176-2.5,21.764-7.059,31.249C313.856,258.165,308.194,265.738,301.356,272.135z"/>
		<path fill="#E1F0DF" d="M33.056,312.648c0,0,7.868,2.279,20.073,4.411v11.985c-3.456,0.661-5.956,1.103-6.544,1.103
			c-2.721,0-2.721,0-2.721,0l-10.809,18.382V312.648z"/>
		<path fill="#00A551" d="M404.735,277.723c0,0,46.984,21.911,49.852,35.293c-23.749,4.412-68.013,9.265-99.629-7.426
			c0,0-5.515-10.441-12.5-22.353C342.458,283.237,387.972,271.179,404.735,277.723z"/>
		<path fill="#F9EC31" d="M252.167,38.171l-101.026,58.38l-76.689,44.263l-41.396,23.896v96.1v51.837v35.881v69.188l128.82,74.41
			l90.291,52.131l146.687-84.703l72.424-41.838V309.266v-90.879v-53.675l-33.014-19.043l-67.057-38.749L252.167,38.171z
			 M15.63,155.374L251.579,20.157l235.875,135.216v270.286L251.579,560.802L15.63,425.659V155.374z"/>
		<path fill="#EC1C24" d="M201.948,271.032c13.088,12.5,30.734,20.146,50.219,20.146c18.97,0,36.25-7.206,49.19-19.043
			c-0.588,3.529-3.309,19.779-7.5,40.881c-4.485,22.426-10.588,50.366-17.573,74.263c-7.72,26.396-16.543,47.866-25.44,51.542
			c-3.823-1.69-7.573-6.029-11.103-12.205c-6.838-11.911-13.014-30.808-18.308-51.322c-5-19.338-9.265-40.146-12.5-58.013
			c-4.706-26.029-7.426-45.808-7.426-45.808L201.948,271.032z"/>
		<path fill="#8BC53F" d="M192.904,341.177c11.103-7.647,11.25-13.603,6.103-18.235l9.926-5.661
			c3.235,17.867,7.5,38.675,12.5,58.013l-1.471,0.368C159.89,367.132,192.904,341.177,192.904,341.177z"/>
		<path fill="#37B34A" d="M395.912,439.776c-23.603-27.353-117.055-51.763-117.055-51.763l-2.574-0.735
			c6.985-23.896,13.088-51.837,17.573-74.263l158.893,93.747L395.912,439.776z"/>
		<path fill="#006838" d="M165.625,280.37c8.529-14.044,18.087-27.94,22.278-27.793c3.677,6.912,8.456,13.162,14.044,18.456
			l-0.441,0.441c0,0,2.721,19.779,7.426,45.808l-9.926,5.661c-11.471-10.44-49.631-13.97-49.631-13.97
			S156.949,294.634,165.625,280.37z"/>
		<path fill="#262261" d="M454.587,172.579l-46.469-26.984c14.778-3.97,30.146,0.074,30.146,0.074l33.014,19.043v53.675
			c0,13.309-11.103,18.75-11.103,18.75c-1.911,0.515-3.823,0.956-5.588,1.176V172.579z"/>
		<path fill="#FCFBEC" d="M53.129,266.914v-94.335l44.189-25.661c10.294,5.294,8.088,21.029,8.088,21.029
			c39.484-9.706,42.278,13.161,42.278,13.161c10.147,21.911-27.94,37.352-27.94,37.352c-1.25,31.616-40.955,30.514-40.955,30.514
			C70.187,261.988,61.07,266.399,53.129,266.914z"/>
		<path fill="#886A16" d="M398.854,459.556l-146.687,84.703l-90.291-52.131v-0.074l23.381-9.558l68.601,39.852l142.055-82.571
			C401.647,446.32,403.265,453.012,398.854,459.556z"/>
		<path fill="#262261" d="M156.655,112.434c-5.073-6.985-5.514-15.882-5.514-15.882l101.026-58.38l119.041,68.748
			c-0.221,6.323-2.353,10.882-5.515,14.044L253.857,55.965L156.655,112.434z"/>
		<polygon fill="#003E1A" points="161.875,492.128 33.056,417.718 53.57,406.027 185.257,482.496 161.875,492.054 		"/>
		<path fill="#2B388F" d="M438.264,145.668c0,0-15.367-4.044-30.146-0.074l-42.426-24.631c3.162-3.162,5.294-7.721,5.515-14.044
			L438.264,145.668z"/>
		<path fill="#006838" d="M127.097,317.28c0,0,52.792,4.632,36.175,12.867c0,0-19.853,10.294-21.911,25.734L53.57,406.027
			l-0.441-0.294v-76.688c12.5-2.427,38.087-7.868,38.087-7.868v-0.515c11.764,0.147,24.117-0.809,35.808-3.603L127.097,317.28z"/>
		<path fill="#E0A332" d="M163.272,330.147c16.617-8.235-36.175-12.867-36.175-12.867l-0.074-0.221
			c7.868-1.765,15.441-4.411,22.353-8.088c0,0,38.16,3.529,49.631,13.97l-57.646,32.94
			C143.42,340.441,163.272,330.147,163.272,330.147z"/>
		<path fill="#F9EC31" d="M251.579,20.157L15.63,155.374v270.286l235.949,135.143l235.875-135.143V155.374L251.579,20.157z
			 M503.188,146.33V436.1L252.167,581.022L1.219,436.1V146.33L252.167,1.408L503.188,146.33z"/>
		<path fill="#FCFBEC" d="M384.074,167.947c4.485-13.456,14.117-19.706,24.044-22.353l46.469,26.984v65.733
			c-32.278,5.221-42.204-25.808-42.204-25.808c-45.955,16.544-56.984,0-56.984,0c-10.44-3.97-15.22-8.088-16.617-12.058
			c-3.896-10.441,16.617-19.338,16.617-19.338C365.472,158.021,384.074,167.947,384.074,167.947z"/>
		<path fill="#37B34A" d="M141.361,355.882c-1.765,13.676,10.588,31.47,63.674,49.631c0,0,18.603,9.044,26.69,22.72
			c7.5,12.646,6.103,29.19-26.69,46.175l-19.779,8.089L53.57,406.027L141.361,355.882z"/>
		<path fill="#006838" d="M293.856,313.016c4.191-21.102,6.912-37.352,7.5-40.881c6.838-6.397,12.5-13.97,16.544-22.5
			c5.514,2.647,16.102,19.19,24.558,33.602c6.985,11.911,12.5,22.353,12.5,22.353c31.616,16.69,75.88,11.838,99.629,7.426v92.718
			l-1.838,1.029L293.856,313.016z"/>
		<path fill="#93070A" d="M197.683,229.415c0,0,15.073,20.514,54.336,20.514c0,0,33.97,2.132,54.704-17.279
			c0,0-8.749,43.675-54.557,41.984C252.167,274.634,202.315,272.135,197.683,229.415z"/>
		<path fill="#2B388F" d="M454.587,238.312c1.765-0.221,3.677-0.662,5.588-1.176c0,0,11.103-5.441,11.103-18.75v90.879
			c0,0-6.47,1.838-16.69,3.75V238.312z"/>
		<path fill="#00A551" d="M91.216,320.662c-14.338-0.146-27.793-1.838-38.087-3.603v-6.691h1.25
			c2.867-13.382,49.851-35.292,49.851-35.292c15.441-6.029,55.146,3.676,61.396,5.294c-8.676,14.264-16.25,28.602-16.25,28.602
			c-6.912,3.677-14.485,6.323-22.353,8.088C115.333,319.854,102.98,320.81,91.216,320.662z"/>
		<path fill="#2B388F" d="M33.056,260.812c0,0,8.676,7.059,20.073,6.103v43.454v6.691c-12.206-2.132-20.073-4.411-20.073-4.411
			V260.812z"/>
		<path fill="#EC1C24" d="M252.167,274.634c45.808,1.691,54.557-41.984,54.557-41.984c-20.734,19.411-54.704,17.279-54.704,17.279
			c-39.263,0-54.336-20.514-54.336-20.514C202.315,272.135,252.167,274.634,252.167,274.634z M317.9,217.504
			c0,35.881-29.044,64.998-64.852,64.998s-64.924-29.117-64.924-64.998c0-35.808,29.117-64.851,64.924-64.851
			S317.9,181.696,317.9,217.504z"/>
		<path fill="#E1F0DF" d="M53.129,317.06c10.293,1.765,23.749,3.456,38.087,3.603v0.515c0,0-25.587,5.441-38.087,7.868V317.06z"/>
		<path fill="#003E1A" d="M33.056,417.718v-69.188l10.809-18.382c0,0,0,0,2.721,0c0.588,0,3.088-0.441,6.544-1.103v76.688
			l0.441,0.294L33.056,417.718z"/>
		<path fill="#003E1A" d="M471.277,417.718l-18.528-10.955l1.838-1.029v-92.718c10.221-1.912,16.69-3.75,16.69-3.75V417.718z"/>
		<path fill="#E0A332" d="M205.036,405.513c-53.086-18.161-65.439-35.955-63.674-49.631l57.646-32.94
			c5.146,4.633,5,10.588-6.103,18.235c0,0-33.014,25.955,27.058,34.484l1.471-0.368c5.294,20.515,11.47,39.411,18.308,51.322
			l-8.015,1.617C223.638,414.557,205.036,405.513,205.036,405.513z"/>
		<path fill="#FCFBEC" d="M197.683,113.904c-23.676,12.058-35.293,6.47-41.028-1.471l97.203-56.469l111.835,64.998
			c-9.265,9.411-26.837,7.573-26.837,7.573c-55.146,34.558-91.909-14.632-91.909-14.632
			C210.183,146.771,197.683,113.904,197.683,113.904z"/>
		<path fill="#2AC4F3" d="M119.744,218.46c0,0,38.087-15.441,27.94-37.352c0,0-2.794-22.867-42.278-13.161
			c0,0,2.206-15.735-8.088-21.029l59.336-34.484c5.735,7.941,17.353,13.529,41.028,1.471c0,0,12.5,32.867,49.263,0
			c0,0,36.764,49.189,91.909,14.632c0,0,17.572,1.838,26.837-7.573l42.426,24.631c-9.927,2.647-19.559,8.897-24.044,22.353
			c0,0-18.603-9.926-28.676,13.161c0,0-20.514,8.897-16.617,19.338l-15.293,3.309c-6.765-33.161-36.103-58.086-71.322-58.086
			c-40.146,0-72.792,32.572-72.792,72.718c0,12.353,3.088,23.97,8.529,34.19c-4.191-0.147-13.75,13.75-22.278,27.793
			c-6.25-1.618-45.955-11.323-61.396-5.294c0,0-46.984,21.911-49.851,35.292h-1.25v-43.454c7.941-0.515,17.058-4.926,25.661-17.94
			C78.79,248.974,118.495,250.076,119.744,218.46z"/>
		<path fill="#003E1A" d="M395.912,439.776l56.837-33.014l18.528,10.955l-72.424,41.838
			C403.265,453.012,401.647,446.32,395.912,439.776z"/>
		<path fill="#2B388F" d="M97.318,146.918c-3.235-1.765-7.72-2.427-13.97-1.25c0,0-1.03-9.412-8.897-4.853l76.689-44.263
			c0,0,0.441,8.897,5.514,15.882L97.318,146.918z"/>
		<path fill="#E0A332" d="M250.843,438.82c8.897-3.676,17.72-25.146,25.44-51.542l2.574,0.735c0,0,93.452,24.41,117.055,51.763
			l-142.055,82.571l-68.601-39.852l19.779-8.089c32.793-16.984,34.19-33.528,26.69-46.175l8.015-1.617
			C243.27,432.791,247.02,437.13,250.843,438.82z"/>
		<path fill="#2AC4F3" d="M317.9,249.635c4.559-9.485,7.059-20.073,7.059-31.249c0-5-0.515-9.926-1.471-14.632l15.293-3.309
			c1.397,3.97,6.177,8.088,16.617,12.058c0,0,11.029,16.544,56.984,0c0,0,9.926,31.029,42.204,25.808v74.704
			c-2.867-13.382-49.852-35.293-49.852-35.293c-16.764-6.544-62.277,5.515-62.277,5.515
			C334.002,268.826,323.414,252.282,317.9,249.635z"/>
		<path fill="#262261" d="M33.056,260.812v-96.1l41.396-23.896c7.867-4.559,8.897,4.853,8.897,4.853
			c6.25-1.177,10.735-0.515,13.97,1.25l-44.189,25.661v94.335C41.732,267.87,33.056,260.812,33.056,260.812z"/>
	</g>
	<g>
		<polygon fill="none" stroke="#231F20" stroke-width="2.4375" stroke-miterlimit="10" points="503.188,436.1 252.167,581.022 
			1.219,436.1 1.219,146.33 252.167,1.408 503.188,146.33 		"/>
		<polyline fill="none" stroke="#231F20" stroke-width="1.625" stroke-linecap="round" stroke-linejoin="round" points="
			471.277,218.386 471.277,309.266 471.277,417.718 		"/>
		<polyline fill="none" stroke="#231F20" stroke-width="2.4375" stroke-miterlimit="10" points="471.277,417.718 398.854,459.556 
			252.167,544.259 161.875,492.128 33.056,417.718 33.056,348.529 33.056,312.648 33.056,260.812 33.056,164.711 74.452,140.815 
			151.141,96.552 252.167,38.171 371.207,106.919 438.264,145.668 471.277,164.711 471.277,218.386 		"/>
		<path fill="none" stroke="#231F20" stroke-width="1.625" stroke-miterlimit="10" d="M323.488,203.754
			c0.956,4.706,1.471,9.632,1.471,14.632c0,11.176-2.5,21.764-7.059,31.249c-4.044,8.529-9.706,16.103-16.544,22.5
			c-12.94,11.837-30.22,19.043-49.19,19.043c-19.484,0-37.131-7.647-50.219-20.146c-5.588-5.294-10.367-11.544-14.044-18.456
			c-5.441-10.22-8.529-21.837-8.529-34.19c0-40.146,32.646-72.718,72.792-72.718C287.386,145.668,316.724,170.594,323.488,203.754z"
			/>
		<path fill="none" stroke="#231F20" stroke-width="1.625" stroke-miterlimit="10" d="M251.358,439.041
			c-0.147-0.073-0.368-0.146-0.515-0.221c-3.823-1.69-7.573-6.029-11.103-12.205c-6.838-11.911-13.014-30.808-18.308-51.322
			c-5-19.338-9.265-40.146-12.5-58.013c-4.706-26.029-7.426-45.808-7.426-45.808"/>
		<path fill="none" stroke="#231F20" stroke-width="1.625" stroke-miterlimit="10" d="M301.43,271.399c0,0-0.073,0.22-0.073,0.735
			c-0.588,3.529-3.309,19.779-7.5,40.881c-4.485,22.426-10.588,50.366-17.573,74.263c-7.72,26.396-16.543,47.866-25.44,51.542
			c-0.221,0.074-0.368,0.147-0.588,0.221"/>
		<path fill="none" stroke="#231F20" stroke-width="1.625" stroke-miterlimit="10" d="M151.141,96.552c0,0,0.441,8.897,5.514,15.882
			c5.735,7.941,17.353,13.529,41.028,1.471c0,0,12.5,32.867,49.263,0c0,0,36.764,49.189,91.909,14.632
			c0,0,17.572,1.838,26.837-7.573c3.162-3.162,5.294-7.721,5.515-14.044"/>
		<path fill="none" stroke="#231F20" stroke-width="1.625" stroke-miterlimit="10" d="M33.056,260.812c0,0,8.676,7.059,20.073,6.103
			c7.941-0.515,17.058-4.926,25.661-17.94c0,0,39.705,1.103,40.955-30.514c0,0,38.087-15.441,27.94-37.352
			c0,0-2.794-22.867-42.278-13.161c0,0,2.206-15.735-8.088-21.029c-3.235-1.765-7.72-2.427-13.97-1.25c0,0-1.03-9.412-8.897-4.853"
			/>
		<path fill="none" stroke="#231F20" stroke-width="1.625" stroke-miterlimit="10" d="M438.264,145.668
			c0,0-15.367-4.044-30.146-0.074c-9.927,2.647-19.559,8.897-24.044,22.353c0,0-18.603-9.926-28.676,13.161
			c0,0-20.514,8.897-16.617,19.338c1.397,3.97,6.177,8.088,16.617,12.058c0,0,11.029,16.544,56.984,0
			c0,0,9.926,31.029,42.204,25.808c1.765-0.221,3.677-0.662,5.588-1.176c0,0,11.103-5.441,11.103-18.75"/>
		<path fill="none" stroke="#231F20" stroke-width="1.625" stroke-miterlimit="10" d="M33.056,312.648c0,0,7.868,2.279,20.073,4.411
			c10.293,1.765,23.749,3.456,38.087,3.603c11.764,0.147,24.117-0.809,35.808-3.603c7.868-1.765,15.441-4.411,22.353-8.088
			c0,0,7.573-14.338,16.25-28.602c8.529-14.044,18.087-27.94,22.278-27.793"/>
		<path fill="none" stroke="#231F20" stroke-width="1.625" stroke-miterlimit="10" d="M471.277,309.266c0,0-6.47,1.838-16.69,3.75
			c-23.749,4.412-68.013,9.265-99.629-7.426c0,0-5.515-10.441-12.5-22.353c-8.456-14.412-19.044-30.955-24.558-33.602
			c-0.515-0.294-1.03-0.441-1.471-0.441"/>
		<path fill="none" stroke="#231F20" stroke-width="1.625" stroke-miterlimit="10" d="M91.216,321.177
			c0,0-25.587,5.441-38.087,7.868c-3.456,0.661-5.956,1.103-6.544,1.103c-2.721,0-2.721,0-2.721,0l-10.809,18.382"/>
		<polyline fill="none" stroke="#231F20" stroke-width="1.625" stroke-miterlimit="10" points="293.856,313.016 452.749,406.763 
			471.277,417.718 		"/>
		<polyline fill="none" stroke="#231F20" stroke-width="1.625" stroke-miterlimit="10" points="33.056,417.718 53.57,406.027 
			141.361,355.882 199.007,322.941 208.933,317.28 		"/>
		<path fill="none" stroke="#231F20" stroke-width="1.625" stroke-miterlimit="10" d="M342.458,283.237
			c0,0,45.514-12.059,62.277-5.515c0,0,46.984,21.911,49.852,35.293"/>
		<path fill="none" stroke="#95080B" stroke-width="6.5" stroke-miterlimit="10" d="M317.9,217.504
			c0,35.881-29.044,64.998-64.852,64.998s-64.924-29.117-64.924-64.998c0-35.808,29.117-64.851,64.924-64.851
			S317.9,181.696,317.9,217.504z"/>
		<polygon fill="none" stroke="#231F20" stroke-width="3.25" stroke-linecap="round" stroke-linejoin="round" points="
			454.587,313.016 454.587,405.733 452.749,406.763 395.912,439.776 253.857,522.348 185.257,482.496 53.57,406.027 53.129,405.733 
			53.129,329.045 53.129,317.06 53.129,310.368 53.129,266.914 53.129,172.579 97.318,146.918 156.655,112.434 253.857,55.965 
			365.692,120.963 408.118,145.594 454.587,172.579 454.587,238.312 		"/>
		<polygon fill="none" stroke="#FFCC33" stroke-width="9.75" stroke-miterlimit="10" points="487.453,425.659 251.579,560.802 
			15.63,425.659 15.63,155.374 251.579,20.157 487.453,155.374 		"/>
		<path fill="none" stroke="#231F20" stroke-width="1.625" stroke-linecap="round" stroke-linejoin="round" d="M166.508,280.59
			c0,0-0.294-0.074-0.882-0.221c-6.25-1.618-45.955-11.323-61.396-5.294c0,0-46.984,21.911-49.851,35.292"/>
	</g>
</g>
<path fill="#93111D" d="M253.979,302.82c-17.559,0-41.145-21.498-41.145-21.498c44.111,24.748,78.729,0,78.732,0
	C291.567,281.322,270.794,302.82,253.979,302.82z"/>
<path opacity="0.9" fill="#FFFFFF" d="M281.483,178.041c0,8.564-12.371,15.51-27.625,15.51c-15.26,0-27.625-6.945-27.625-15.51
	c0-8.566,12.365-15.512,27.625-15.512C269.112,162.529,281.483,169.475,281.483,178.041z"/>
<path opacity="0.87" fill="#FFFFFF" d="M293.854,294.389c0,0-30.693,135.729-40.84,135.729c0,0,30.875-117.109,33.287-127.297
	c0.996-4.215,6.982-13.668,6.982-13.668L293.854,294.389z"/>
</svg>
