<?xml version="1.0" encoding="utf-8"?>
<!-- Generator: Adobe Illustrator 15.0.2, SVG Export Plug-In . SVG Version: 6.00 Build 0)  -->
<!DOCTYPE svg PUBLIC "-//W3C//DTD SVG 1.1//EN" "http://www.w3.org/Graphics/SVG/1.1/DTD/svg11.dtd">
<svg version="1.1" id="Layer_1" xmlns="http://www.w3.org/2000/svg" xmlns:xlink="http://www.w3.org/1999/xlink" x="0px" y="0px"
	 width="515.5px" height="591.5px" viewBox="0 0 515.5 591.5" enable-background="new 0 0 515.5 591.5" xml:space="preserve">
<g id="XMLID_1_">
	<g>
		<path fill="#BE1E2D" d="M258.596,287.037c35.808,0,64.852-29.117,64.852-64.998c0-35.808-29.044-64.851-64.852-64.851
			s-64.924,29.043-64.924,64.851C193.672,257.92,222.788,287.037,258.596,287.037z M306.902,276.67
			c-12.939,11.837-30.22,19.043-49.189,19.043c-19.484,0-37.131-7.647-50.22-20.146c-5.588-5.294-10.366-11.544-14.044-18.456
			c-5.44-10.22-8.528-21.837-8.528-34.19c0-40.146,32.646-72.718,72.792-72.718c35.219,0,64.557,24.926,71.321,58.086
			c0.956,4.706,1.472,9.632,1.472,14.632c0,11.176-2.5,21.764-7.06,31.249C319.402,262.7,313.74,270.273,306.902,276.67z"/>
		<path fill="#E1F0DF" d="M38.603,317.184c0,0,7.868,2.278,20.073,4.41v11.985c-3.456,0.661-5.956,1.104-6.544,1.104
			c-2.722,0-2.722,0-2.722,0l-10.809,18.382L38.603,317.184L38.603,317.184z"/>
		<path fill="#00A551" d="M410.282,282.258c0,0,46.983,21.911,49.852,35.292c-23.749,4.412-68.013,9.266-99.629-7.426
			c0,0-5.516-10.441-12.5-22.353C348.005,287.772,393.519,275.714,410.282,282.258z"/>
		<path fill="#F9EC31" d="M257.714,42.706l-101.026,58.38l-76.688,44.263l-41.396,23.896v96.1v51.837v35.881v69.188l128.82,74.41
			l90.291,52.131L404.4,464.089l72.425-41.838v-108.45v-90.878v-53.675l-33.015-19.043l-67.057-38.749L257.714,42.706z
			 M21.177,159.909L257.126,24.692l235.875,135.216v270.286L257.126,565.337L21.177,430.194V159.909z"/>
		<path fill="#EC1C24" d="M207.495,275.567c13.088,12.5,30.733,20.146,50.219,20.146c18.97,0,36.25-7.206,49.189-19.043
			c-0.588,3.529-3.309,19.779-7.5,40.881c-4.484,22.427-10.588,50.366-17.572,74.264c-7.721,26.396-16.543,47.865-25.44,51.542
			c-3.823-1.69-7.573-6.029-11.103-12.205c-6.839-11.911-13.015-30.809-18.309-51.322c-5-19.338-9.265-40.146-12.5-58.013
			c-4.706-26.029-7.426-45.808-7.426-45.808L207.495,275.567z"/>
		<path fill="#8BC53F" d="M198.45,345.712c11.104-7.646,11.25-13.603,6.104-18.234l9.926-5.661c3.235,17.867,7.5,38.675,12.5,58.013
			l-1.471,0.368C165.437,371.667,198.45,345.712,198.45,345.712z"/>
		<path fill="#37B34A" d="M401.459,444.312c-23.604-27.354-117.056-51.764-117.056-51.764l-2.573-0.734
			c6.984-23.896,13.088-51.837,17.572-74.264l158.894,93.747L401.459,444.312z"/>
		<path fill="#006838" d="M171.172,284.905c8.528-14.044,18.087-27.94,22.277-27.793c3.678,6.912,8.456,13.162,14.044,18.456
			l-0.44,0.441c0,0,2.721,19.779,7.426,45.808l-9.926,5.661c-11.471-10.44-49.631-13.971-49.631-13.971
			S162.496,299.169,171.172,284.905z"/>
		<path fill="#262261" d="M460.134,177.114l-46.469-26.984c14.778-3.97,30.146,0.074,30.146,0.074l33.015,19.043v53.675
			c0,13.309-11.104,18.75-11.104,18.75c-1.911,0.515-3.823,0.956-5.588,1.176V177.114z"/>
		<path fill="#FCFBEC" d="M58.676,271.449v-94.335l44.188-25.661c10.294,5.294,8.088,21.029,8.088,21.029
			c39.484-9.706,42.278,13.161,42.278,13.161c10.147,21.911-27.939,37.352-27.939,37.352c-1.25,31.616-40.955,30.514-40.955,30.514
			C75.733,266.523,66.616,270.934,58.676,271.449z"/>
		<path fill="#886A16" d="M404.4,464.091l-146.687,84.703l-90.291-52.131v-0.074l23.381-9.558l68.601,39.852l142.056-82.57
			C407.194,450.855,408.812,457.547,404.4,464.091z"/>
		<path fill="#262261" d="M162.201,116.969c-5.072-6.985-5.514-15.882-5.514-15.882l101.026-58.38l119.041,68.748
			c-0.222,6.323-2.354,10.882-5.516,14.044L259.403,60.5L162.201,116.969z"/>
		<polygon fill="#003E1A" points="167.422,496.663 38.603,422.253 59.116,410.562 190.804,487.031 167.422,496.589 		"/>
		<path fill="#2B388F" d="M443.811,150.203c0,0-15.366-4.044-30.146-0.074l-42.427-24.631c3.162-3.162,5.294-7.721,5.516-14.044
			L443.811,150.203z"/>
		<path fill="#006838" d="M132.644,321.815c0,0,52.792,4.632,36.175,12.867c0,0-19.853,10.294-21.911,25.733l-87.791,50.146
			l-0.44-0.294V333.58c12.5-2.427,38.087-7.868,38.087-7.868v-0.515c11.764,0.146,24.117-0.81,35.808-3.604L132.644,321.815z"/>
		<path fill="#E0A332" d="M168.818,334.683c16.617-8.235-36.175-12.867-36.175-12.867l-0.074-0.222
			c7.868-1.765,15.441-4.41,22.354-8.088c0,0,38.16,3.529,49.631,13.971l-57.646,32.939
			C148.967,344.977,168.818,334.683,168.818,334.683z"/>
		<path fill="#F9EC31" d="M257.126,24.692L21.177,159.909v270.286l235.949,135.143l235.875-135.143V159.909L257.126,24.692z
			 M508.734,150.865v289.77L257.714,585.557L6.766,440.635v-289.77L257.714,5.943L508.734,150.865z"/>
		<path fill="#FCFBEC" d="M389.621,172.482c4.484-13.456,14.117-19.706,24.044-22.354l46.469,26.984v65.733
			c-32.278,5.221-42.204-25.808-42.204-25.808c-45.955,16.544-56.984,0-56.984,0c-10.439-3.97-15.22-8.088-16.616-12.058
			c-3.896-10.441,16.616-19.338,16.616-19.338C371.019,162.556,389.621,172.482,389.621,172.482z"/>
		<path fill="#37B34A" d="M146.907,360.417c-1.765,13.676,10.589,31.47,63.675,49.631c0,0,18.603,9.044,26.689,22.721
			c7.5,12.646,6.104,29.189-26.689,46.175l-19.779,8.089l-131.687-76.47L146.907,360.417z"/>
		<path fill="#006838" d="M299.402,317.551c4.191-21.102,6.912-37.352,7.5-40.881c6.838-6.397,12.5-13.97,16.544-22.5
			c5.515,2.647,16.103,19.19,24.559,33.602c6.984,11.911,12.5,22.353,12.5,22.353c31.616,16.69,75.88,11.838,99.629,7.426v92.719
			l-1.838,1.028L299.402,317.551z"/>
		<path fill="#93070A" d="M203.229,233.95c0,0,15.073,20.514,54.336,20.514c0,0,33.971,2.132,54.704-17.279
			c0,0-8.749,43.675-54.557,41.984C257.714,279.169,207.861,276.67,203.229,233.95z"/>
		<path fill="#2B388F" d="M460.134,242.847c1.765-0.221,3.677-0.662,5.588-1.176c0,0,11.104-5.441,11.104-18.75V313.8
			c0,0-6.471,1.839-16.69,3.75L460.134,242.847L460.134,242.847z"/>
		<path fill="#00A551" d="M96.763,325.197c-14.338-0.146-27.793-1.838-38.087-3.604v-6.69h1.25
			c2.867-13.382,49.851-35.292,49.851-35.292c15.441-6.029,55.146,3.676,61.396,5.294c-8.676,14.264-16.25,28.602-16.25,28.602
			c-6.912,3.678-14.485,6.323-22.354,8.088C120.88,324.389,108.526,325.345,96.763,325.197z"/>
		<path fill="#2B388F" d="M38.603,265.347c0,0,8.676,7.059,20.073,6.103v43.454v6.69c-12.206-2.132-20.073-4.41-20.073-4.41V265.347
			z"/>
		<path fill="#EC1C24" d="M257.714,279.169c45.808,1.691,54.557-41.984,54.557-41.984c-20.733,19.411-54.704,17.279-54.704,17.279
			c-39.263,0-54.336-20.514-54.336-20.514C207.861,276.67,257.714,279.169,257.714,279.169z M323.446,222.039
			c0,35.881-29.044,64.998-64.852,64.998s-64.924-29.117-64.924-64.998c0-35.808,29.117-64.851,64.924-64.851
			S323.446,186.231,323.446,222.039z"/>
		<path fill="#E1F0DF" d="M58.676,321.595c10.293,1.766,23.749,3.456,38.087,3.604v0.515c0,0-25.587,5.441-38.087,7.868V321.595z"/>
		<path fill="#003E1A" d="M38.603,422.253v-69.188l10.81-18.382c0,0,0,0,2.721,0c0.588,0,3.088-0.441,6.544-1.104v76.688l0.44,0.294
			L38.603,422.253z"/>
		<path fill="#003E1A" d="M476.824,422.253l-18.528-10.955l1.838-1.028v-92.719c10.221-1.912,16.69-3.75,16.69-3.75V422.253
			L476.824,422.253z"/>
		<path fill="#E0A332" d="M210.583,410.048c-53.086-18.161-65.439-35.955-63.675-49.631l57.646-32.939
			c5.146,4.633,5,10.588-6.104,18.234c0,0-33.014,25.955,27.059,34.484l1.471-0.368c5.294,20.515,11.47,39.411,18.309,51.322
			l-8.016,1.617C229.185,419.092,210.583,410.048,210.583,410.048z"/>
		<path fill="#FCFBEC" d="M203.229,118.439c-23.676,12.058-35.293,6.47-41.028-1.471l97.203-56.469l111.835,64.998
			c-9.265,9.411-26.837,7.573-26.837,7.573c-55.146,34.558-91.909-14.632-91.909-14.632
			C215.729,151.306,203.229,118.439,203.229,118.439z"/>
		<path fill="#2AC4F3" d="M125.291,222.995c0,0,38.087-15.441,27.939-37.352c0,0-2.794-22.867-42.277-13.161
			c0,0,2.205-15.735-8.089-21.029l59.336-34.484c5.735,7.941,17.354,13.529,41.028,1.471c0,0,12.5,32.867,49.263,0
			c0,0,36.765,49.189,91.909,14.632c0,0,17.572,1.838,26.837-7.573l42.427,24.631c-9.927,2.647-19.56,8.897-24.044,22.353
			c0,0-18.604-9.926-28.677,13.161c0,0-20.514,8.897-16.617,19.338l-15.293,3.309c-6.765-33.161-36.103-58.086-71.321-58.086
			c-40.146,0-72.792,32.572-72.792,72.718c0,12.353,3.088,23.97,8.528,34.19c-4.19-0.147-13.75,13.75-22.277,27.793
			c-6.25-1.618-45.955-11.323-61.396-5.294c0,0-46.983,21.911-49.851,35.292h-1.25V271.45c7.94-0.515,17.058-4.926,25.661-17.94
			C84.337,253.509,124.042,254.611,125.291,222.995z"/>
		<path fill="#003E1A" d="M401.459,444.312l56.837-33.015l18.528,10.955l-72.425,41.838
			C408.812,457.547,407.194,450.855,401.459,444.312z"/>
		<path fill="#2B388F" d="M102.864,151.453c-3.234-1.765-7.72-2.427-13.97-1.25c0,0-1.03-9.412-8.896-4.853l76.688-44.263
			c0,0,0.441,8.897,5.514,15.882L102.864,151.453z"/>
		<path fill="#E0A332" d="M256.39,443.355c8.897-3.677,17.72-25.146,25.44-51.542l2.573,0.734c0,0,93.452,24.41,117.056,51.764
			l-142.056,82.57l-68.601-39.852l19.779-8.089c32.793-16.984,34.189-33.528,26.689-46.175l8.016-1.617
			C248.816,437.326,252.566,441.665,256.39,443.355z"/>
		<path fill="#2AC4F3" d="M323.446,254.17c4.56-9.485,7.06-20.073,7.06-31.249c0-5-0.516-9.926-1.472-14.632l15.293-3.309
			c1.397,3.97,6.178,8.088,16.617,12.058c0,0,11.029,16.544,56.984,0c0,0,9.926,31.029,42.204,25.808v74.704
			c-2.867-13.382-49.852-35.292-49.852-35.292c-16.765-6.544-62.277,5.515-62.277,5.515
			C339.549,273.361,328.961,256.817,323.446,254.17z"/>
		<path fill="#262261" d="M38.603,265.347v-96.1l41.396-23.896c7.866-4.559,8.896,4.853,8.896,4.853
			c6.25-1.177,10.735-0.515,13.97,1.25l-44.188,25.661v94.335C47.278,272.405,38.603,265.347,38.603,265.347z"/>
	</g>
	<g>
		<polygon fill="none" stroke="#231F20" stroke-width="2.4375" stroke-miterlimit="10" points="508.734,440.635 257.714,585.557 
			6.766,440.635 6.766,150.865 257.714,5.943 508.734,150.865 		"/>
		<polyline fill="none" stroke="#231F20" stroke-width="1.625" stroke-linecap="round" stroke-linejoin="round" points="
			476.824,222.921 476.824,313.801 476.824,422.253 		"/>
		<polyline fill="none" stroke="#231F20" stroke-width="2.4375" stroke-miterlimit="10" points="476.824,422.253 404.4,464.091 
			257.714,548.794 167.422,496.663 38.603,422.253 38.603,353.064 38.603,317.184 38.603,265.347 38.603,169.246 79.999,145.35 
			156.688,101.087 257.714,42.706 376.754,111.454 443.811,150.203 476.824,169.246 476.824,222.921 		"/>
		<path fill="none" stroke="#231F20" stroke-width="1.625" stroke-miterlimit="10" d="M329.034,208.289
			c0.956,4.706,1.472,9.632,1.472,14.632c0,11.176-2.5,21.764-7.06,31.249c-4.044,8.529-9.706,16.103-16.544,22.5
			c-12.939,11.837-30.22,19.043-49.189,19.043c-19.484,0-37.131-7.647-50.219-20.146c-5.589-5.294-10.367-11.544-14.045-18.456
			c-5.44-10.22-8.528-21.837-8.528-34.19c0-40.146,32.646-72.718,72.792-72.718C292.933,150.203,322.271,175.129,329.034,208.289z"
			/>
		<path fill="none" stroke="#231F20" stroke-width="1.625" stroke-miterlimit="10" d="M256.904,443.576
			c-0.146-0.073-0.367-0.146-0.515-0.221c-3.823-1.69-7.573-6.029-11.103-12.205c-6.839-11.911-13.015-30.809-18.309-51.322
			c-5-19.338-9.265-40.146-12.5-58.013c-4.706-26.029-7.426-45.808-7.426-45.808"/>
		<path fill="none" stroke="#231F20" stroke-width="1.625" stroke-miterlimit="10" d="M306.977,275.934c0,0-0.073,0.22-0.073,0.735
			c-0.588,3.529-3.309,19.779-7.5,40.881c-4.484,22.427-10.588,50.366-17.572,74.264c-7.721,26.396-16.543,47.865-25.44,51.542
			c-0.221,0.073-0.368,0.146-0.588,0.221"/>
		<path fill="none" stroke="#231F20" stroke-width="1.625" stroke-miterlimit="10" d="M156.688,101.087
			c0,0,0.441,8.897,5.514,15.882c5.735,7.941,17.354,13.529,41.028,1.471c0,0,12.5,32.867,49.263,0c0,0,36.765,49.189,91.909,14.632
			c0,0,17.572,1.838,26.837-7.573c3.162-3.162,5.294-7.721,5.516-14.044"/>
		<path fill="none" stroke="#231F20" stroke-width="1.625" stroke-miterlimit="10" d="M38.603,265.347c0,0,8.676,7.059,20.073,6.103
			c7.94-0.515,17.058-4.926,25.661-17.94c0,0,39.705,1.103,40.955-30.514c0,0,38.087-15.441,27.939-37.352
			c0,0-2.794-22.867-42.277-13.161c0,0,2.205-15.735-8.089-21.029c-3.234-1.765-7.72-2.427-13.97-1.25c0,0-1.03-9.412-8.896-4.853"
			/>
		<path fill="none" stroke="#231F20" stroke-width="1.625" stroke-miterlimit="10" d="M443.811,150.203
			c0,0-15.366-4.044-30.146-0.074c-9.927,2.647-19.56,8.897-24.044,22.353c0,0-18.604-9.926-28.677,13.161
			c0,0-20.514,8.897-16.616,19.338c1.396,3.97,6.177,8.088,16.616,12.058c0,0,11.029,16.544,56.984,0
			c0,0,9.926,31.029,42.204,25.808c1.765-0.221,3.677-0.662,5.588-1.176c0,0,11.104-5.441,11.104-18.75"/>
		<path fill="none" stroke="#231F20" stroke-width="1.625" stroke-miterlimit="10" d="M38.603,317.184c0,0,7.868,2.278,20.073,4.41
			c10.293,1.766,23.749,3.456,38.087,3.604c11.764,0.146,24.117-0.809,35.808-3.604c7.868-1.765,15.441-4.41,22.354-8.088
			c0,0,7.573-14.338,16.25-28.602c8.529-14.044,18.087-27.94,22.277-27.793"/>
		<path fill="none" stroke="#231F20" stroke-width="1.625" stroke-miterlimit="10" d="M476.824,313.801c0,0-6.471,1.838-16.69,3.75
			c-23.749,4.412-68.013,9.266-99.629-7.426c0,0-5.516-10.441-12.5-22.353c-8.456-14.412-19.044-30.955-24.559-33.602
			c-0.515-0.294-1.029-0.441-1.471-0.441"/>
		<path fill="none" stroke="#231F20" stroke-width="1.625" stroke-miterlimit="10" d="M96.763,325.712
			c0,0-25.587,5.441-38.087,7.868c-3.456,0.661-5.956,1.104-6.544,1.104c-2.722,0-2.722,0-2.722,0l-10.809,18.382"/>
		<polyline fill="none" stroke="#231F20" stroke-width="1.625" stroke-miterlimit="10" points="299.402,317.551 458.296,411.298 
			476.824,422.253 		"/>
		<polyline fill="none" stroke="#231F20" stroke-width="1.625" stroke-miterlimit="10" points="38.603,422.253 59.116,410.562 
			146.907,360.417 204.554,327.477 214.479,321.815 		"/>
		<path fill="none" stroke="#231F20" stroke-width="1.625" stroke-miterlimit="10" d="M348.005,287.772
			c0,0,45.514-12.059,62.277-5.515c0,0,46.983,21.911,49.852,35.292"/>
		<path fill="none" stroke="#95080B" stroke-width="6.5" stroke-miterlimit="10" d="M323.446,222.039
			c0,35.881-29.044,64.998-64.852,64.998s-64.924-29.117-64.924-64.998c0-35.808,29.117-64.851,64.924-64.851
			S323.446,186.231,323.446,222.039z"/>
		<polygon fill="none" stroke="#231F20" stroke-width="3.25" stroke-linecap="round" stroke-linejoin="round" points="
			460.134,317.551 460.134,410.269 458.296,411.298 401.459,444.312 259.403,526.883 190.804,487.031 59.116,410.562 
			58.676,410.269 58.676,333.58 58.676,321.595 58.676,314.903 58.676,271.449 58.676,177.114 102.864,151.453 162.201,116.969 
			259.403,60.5 371.238,125.498 413.665,150.129 460.134,177.114 460.134,242.847 		"/>
		<polygon fill="none" stroke="#FFCC33" stroke-width="9.75" stroke-miterlimit="10" points="493,430.194 257.126,565.337 
			21.177,430.194 21.177,159.909 257.126,24.692 493,159.909 		"/>
		<path fill="none" stroke="#231F20" stroke-width="1.625" stroke-linecap="round" stroke-linejoin="round" d="M172.055,285.125
			c0,0-0.294-0.074-0.882-0.221c-6.25-1.618-45.955-11.323-61.396-5.294c0,0-46.983,21.911-49.851,35.292"/>
	</g>
</g>
<path fill="#93111D" d="M253.979,302.82c-17.559,0-41.145-21.498-41.145-21.498c44.111,24.748,78.729,0,78.732,0
	C291.567,281.322,270.794,302.82,253.979,302.82z"/>
<path opacity="0.9" fill="#FFFFFF" enable-background="new    " d="M287.483,179.041c0,8.564-12.371,15.51-27.625,15.51
	c-15.26,0-27.625-6.945-27.625-15.51c0-8.566,12.365-15.512,27.625-15.512C275.112,163.529,287.483,170.475,287.483,179.041z"/>
<path opacity="0.87" fill="#FFFFFF" enable-background="new    " d="M293.854,294.389c0,0-30.693,135.729-40.84,135.729
	c0,0,30.875-117.109,33.287-127.298c0.996-4.214,6.982-13.667,6.982-13.667L293.854,294.389z"/>
</svg>
