<?xml version="1.0" encoding="utf-8"?>
<!-- Generator: Adobe Illustrator 15.0.2, SVG Export Plug-In . SVG Version: 6.00 Build 0)  -->
<!DOCTYPE svg PUBLIC "-//W3C//DTD SVG 1.1//EN" "http://www.w3.org/Graphics/SVG/1.1/DTD/svg11.dtd">
<svg version="1.1" id="Layer_1" xmlns="http://www.w3.org/2000/svg" xmlns:xlink="http://www.w3.org/1999/xlink" x="0px" y="0px"
	 width="514.5px" height="589.5px" viewBox="0 0 514.5 589.5" enable-background="new 0 0 514.5 589.5" xml:space="preserve">
<g id="XMLID_2_">
	<g>
		<g id="XMLID_1_">
			<g>
				<path fill="#231F20" d="M258.85,98.77c12.721,1.92,96.16,17.65,35.36,91.17c0,0,31.95,1.52,21.96,35.96
					c0,0,6.28-0.48,11.42,1.35c0.38,0.14,0.75,0.28,1.11,0.44h0.01c0.36,0.17,0.7,0.34,1.04,0.52c0.85,0.47,1.63,1.03,2.28,1.69
					c0.27,0.27,0.51,0.55,0.729,0.86c0.33,0.45,0.62,0.94,0.84,1.48c2.011,4.85-0.779,13.33-15.51,28.13
					c0,0,82.87,92.7,17.891,176.04c-0.591,0.75-1.19,1.51-1.801,2.26h-0.01v0.01c0,0,1.32,0.351,3.38,1.061
					c0.82,0.29,1.771,0.64,2.79,1.04c0.771,0.31,1.58,0.649,2.42,1.02c0.29,0.13,0.57,0.26,0.86,0.391
					c0.57,0.26,1.16,0.54,1.75,0.84c0.93,0.47,1.88,0.979,2.83,1.52c1.13,0.66,2.26,1.37,3.359,2.141
					c1.471,1.05,2.891,2.189,4.16,3.449c0.181,0.17,0.351,0.351,0.53,0.53c4.07,4.25,6.52,9.7,4.62,16.47
					c0,0-57.24,15.721-100.51,16.46v-0.02c-43.59,0-106.67-15.44-106.67-15.44c-5.65-20,26.64-28.46,26.64-28.46
					c-0.15-0.199-0.33-0.42-0.48-0.609c-64.04-79.58,8.57-168.34,15.98-177.01c0.39-0.46,0.6-0.69,0.6-0.69
					c-0.17-0.17-0.33-0.33-0.49-0.51c-15.14-15.33-17.29-23.79-14.63-28.42c3.77-6.56,17.06-5.54,17.06-5.54
					c-0.1-0.31-0.18-0.62-0.26-0.92c-9.18-33.54,22.18-35.03,22.18-35.03c-0.16-0.2-0.34-0.4-0.49-0.59
					c-59.96-73.24,26.35-89.61,39.03-91.59H258.85z"/>
				<path fill="#231F20" d="M508.24,150.18l-0.021,289.16L257.21,583.92L6.26,439.3l0.02-289.16L257.27,5.58L508.24,150.18z
					 M475.71,417.75l0.021-251.73L257.27,40.14L38.79,165.98l-0.04,251.73l218.48,125.88L475.71,417.75z"/>
				<path fill="#FFFFFF" d="M348.2,444.55c1.13,0.66,2.26,1.37,3.359,2.141C350.46,445.92,349.33,445.21,348.2,444.55z"/>
				<path fill="#FFFFFF" d="M345.37,443.03c-0.59-0.3-1.18-0.58-1.75-0.84C344.19,442.45,344.78,442.73,345.37,443.03z"/>
				<path fill="#FFFFFF" d="M343.62,442.19c-0.29-0.131-0.57-0.261-0.86-0.391C343.04,441.92,343.33,442.05,343.62,442.19z"/>
				<path fill="#FFFFFF" d="M340.34,440.78c0.76,0.3,1.58,0.63,2.42,1.02C341.92,441.43,341.11,441.09,340.34,440.78z"/>
				<path fill="#FFFFFF" d="M340.34,440.78c-1.02-0.4-1.97-0.75-2.79-1.04C338.37,440.02,339.31,440.37,340.34,440.78z"/>
				<path fill="#FFFFFF" d="M334.18,438.67c0.13,0.04,1.42,0.38,3.37,1.07c-2.06-0.71-3.38-1.061-3.38-1.061v-0.01H334.18z"/>
				<path fill="#231F20" d="M329.75,228.21c-0.34-0.18-0.68-0.35-1.04-0.52C329.07,227.85,329.42,228.02,329.75,228.21z"/>
				<path fill="#231F20" d="M195.94,260.86c0.16,0.18,0.32,0.34,0.49,0.51c0,0-0.21,0.23-0.6,0.69L195.94,260.86z"/>
				<path fill="#FFFFFF" d="M195.83,262.06c-7.41,8.67-80.02,97.43-15.98,177.01c0.15,0.189,0.33,0.41,0.48,0.609
					c0,0-32.29,8.46-26.64,28.46c0,0,63.08,15.44,106.67,15.44v0.02c43.27-0.739,100.51-16.46,100.51-16.46
					c1.899-6.77-0.55-12.22-4.62-16.47c-0.18-0.18-0.35-0.36-0.53-0.53c-1.27-1.26-2.689-2.399-4.16-3.449
					c-1.1-0.771-2.229-1.48-3.359-2.141c-0.95-0.54-1.9-1.05-2.83-1.52c-0.59-0.3-1.18-0.58-1.75-0.84
					c-0.29-0.141-0.58-0.271-0.86-0.391c-0.84-0.39-1.66-0.72-2.42-1.02c-1.03-0.41-1.97-0.761-2.79-1.04
					c-1.95-0.69-3.24-1.03-3.37-1.07c0.61-0.75,1.21-1.51,1.801-2.26c64.979-83.34-17.891-176.04-17.891-176.04
					c14.73-14.8,17.521-23.28,15.51-28.13c-0.22-0.54-0.51-1.03-0.84-1.48c-0.22-0.31-0.46-0.59-0.729-0.86
					c-0.65-0.66-1.431-1.22-2.28-1.69c-0.33-0.19-0.68-0.36-1.04-0.52h-0.01c-0.36-0.16-0.73-0.3-1.11-0.44
					c-5.14-1.83-11.42-1.35-11.42-1.35c9.99-34.44-21.96-35.96-21.96-35.96c60.8-73.52-22.64-89.25-35.36-91.17h-0.02
					c-12.68,1.98-98.99,18.35-39.03,91.59c0.15,0.19,0.33,0.39,0.49,0.59c0,0-31.36,1.49-22.18,35.03c0.08,0.3,0.16,0.61,0.26,0.92
					c0,0-13.29-1.02-17.06,5.54c-2.66,4.63-0.51,13.09,14.63,28.42L195.83,262.06z M475.73,166.02l-0.021,251.73L257.23,543.59
					L38.75,417.71l0.04-251.73L257.27,40.14L475.73,166.02z"/>
			</g>
			<g>
				
					<line fill="none" stroke="#231F20" stroke-width="2.4375" stroke-miterlimit="10" x1="198.11" y1="225.98" x2="198.37" y2="225.9"/>
				<polygon fill="none" stroke="#231F20" stroke-width="2.4375" stroke-miterlimit="10" points="508.24,150.18 508.22,439.34 
					257.21,583.92 6.26,439.3 6.28,150.14 257.27,5.58 				"/>
				<polygon fill="none" stroke="#FFFFFF" stroke-width="2.4375" stroke-miterlimit="10" points="475.73,166.02 475.71,417.75 
					257.23,543.59 38.75,417.71 38.79,165.98 257.27,40.14 				"/>
				<path fill="none" stroke="#231F20" stroke-width="2.4375" stroke-miterlimit="10" d="M258.83,98.77
					c-12.68,1.98-98.99,18.35-39.03,91.59c0.15,0.19,0.33,0.39,0.49,0.59c0,0-31.36,1.49-22.18,35.03c0.08,0.3,0.16,0.61,0.26,0.92
					c0,0-13.29-1.02-17.06,5.54c-2.66,4.63-0.51,13.09,14.63,28.42c0.16,0.18,0.32,0.34,0.49,0.51c0,0-0.21,0.23-0.6,0.69
					c-7.41,8.67-80.02,97.43-15.98,177.01c0.15,0.189,0.33,0.41,0.48,0.609c0,0-32.29,8.46-26.64,28.46
					c0,0,63.08,15.44,106.67,15.44"/>
				<path fill="none" stroke="#231F20" stroke-width="2.4375" stroke-miterlimit="10" d="M260.36,98.56c0,0-0.53,0.05-1.511,0.21"/>
				<path fill="none" stroke="#231F20" stroke-width="2.4375" stroke-miterlimit="10" d="M257.27,98.56c0,0,0.56,0.05,1.56,0.21
					h0.02c12.721,1.92,96.16,17.65,35.36,91.17c0,0,31.95,1.52,21.96,35.96c0,0,6.28-0.48,11.42,1.35c0.38,0.14,0.75,0.28,1.11,0.44
					h0.01c0.36,0.17,0.7,0.34,1.04,0.52c0.85,0.47,1.63,1.03,2.28,1.69c0.27,0.27,0.51,0.55,0.729,0.86
					c0.33,0.45,0.62,0.94,0.84,1.48c2.011,4.85-0.779,13.33-15.51,28.13c0,0,82.87,92.7,17.891,176.04
					c-0.591,0.75-1.19,1.51-1.801,2.26h-0.01v0.01c0,0,1.32,0.351,3.38,1.061c0.82,0.29,1.771,0.64,2.79,1.04
					c0.771,0.31,1.58,0.649,2.42,1.02c0.29,0.13,0.57,0.26,0.86,0.391c0.57,0.26,1.16,0.54,1.75,0.84
					c0.93,0.47,1.88,0.979,2.83,1.52c1.13,0.66,2.26,1.37,3.359,2.141c1.471,1.05,2.891,2.189,4.16,3.449
					c0.181,0.17,0.351,0.351,0.53,0.53c4.07,4.25,6.52,9.7,4.62,16.47c0,0-57.24,15.721-100.51,16.46
					c-1.04,0.03-2.08,0.03-3.09,0.03"/>
				<path fill="none" stroke="#231F20" stroke-width="2.4375" stroke-miterlimit="10" d="M180.92,232.24c0,0,0.14,0.08,0.39,0.2"/>
			</g>
		</g>
	</g>
</g>
</svg>
