<?xml version="1.0" encoding="utf-8"?>
<!-- Generator: Adobe Illustrator 15.0.2, SVG Export Plug-In . SVG Version: 6.00 Build 0)  -->
<!DOCTYPE svg PUBLIC "-//W3C//DTD SVG 1.1//EN" "http://www.w3.org/Graphics/SVG/1.1/DTD/svg11.dtd">
<svg version="1.1" id="Layer_1" xmlns="http://www.w3.org/2000/svg" xmlns:xlink="http://www.w3.org/1999/xlink" x="0px" y="0px"
	 width="515.5px" height="589.5px" viewBox="0 0 515.5 589.5" enable-background="new 0 0 515.5 589.5" xml:space="preserve">
<g id="XMLID_1_">
	<g>
		<g id="XMLID_2_">
			<g>
				<path fill="#FFFFFF" d="M180.36,439.05c-6.03-7.49-10.85-15.069-14.63-22.649c-0.75-1.521-1.47-3.04-2.14-4.551
					c-1.01-2.279-1.93-4.55-2.76-6.819c-0.55-1.521-1.07-3.03-1.55-4.54s-0.92-3.021-1.33-4.521v-0.01c-0.81-3.01-1.48-6.01-2.02-9
					c-11.97-66.35,41.03-125.61,41.03-125.61c-0.15-0.15-0.33-0.33-0.49-0.49c-15.1-15.29-17.29-23.75-14.65-28.4l14.55-5.62
					c1.51-0.03,2.49,0.05,2.49,0.05c-0.04-0.11-0.07-0.22-0.1-0.33c-0.05-0.19-0.1-0.38-0.16-0.58l0.21-0.08l0.04-0.02l-0.25,0.08
					c-4.16-15.24,0.05-23.86,5.88-28.74c1.05-0.87,2.15-1.63,3.26-2.28c0.19-0.11,0.37-0.21,0.56-0.32c0.37-0.2,0.75-0.39,1.12-0.58
					c0.37-0.18,0.74-0.35,1.11-0.52c0.74-0.32,1.47-0.61,2.19-0.86c0.17-0.06,0.35-0.12,0.52-0.18c0.88-0.29,1.72-0.52,2.5-0.72
					c0.15-0.03,0.3-0.07,0.46-0.11c0.9-0.21,1.71-0.36,2.4-0.47c0.11-0.01,0.22-0.03,0.33-0.05c0.21-0.03,0.41-0.05,0.59-0.08
					c0.81-0.1,1.28-0.12,1.28-0.12v-0.01c-0.08-0.09-0.17-0.19-0.25-0.29c-0.08-0.1-0.16-0.2-0.24-0.29
					c-59.98-73.24,26.35-89.61,39.03-91.59h0.021c12.72,1.94,96.14,17.67,35.359,91.19c0,0,4.261,0.2,9.181,2.13
					c0.359,0.15,0.729,0.3,1.09,0.46c1.49,0.65,3,1.46,4.46,2.48c0.54,0.38,1.08,0.79,1.609,1.22c0.53,0.44,1.04,0.91,1.53,1.41
					c0.16,0.17,0.32,0.34,0.49,0.51c0,0-0.01,0,0,0.01c0.64,0.69,1.25,1.45,1.81,2.27c0.971,1.44,1.811,3.07,2.45,4.92
					c0,0-0.01,0,0,0.01c0.36,1.05,0.65,2.18,0.87,3.39c0,0-0.01,0.01,0,0.01c0.59,3.34,0.59,7.28-0.27,11.92
					c-0.301,1.64-0.71,3.38-1.24,5.2c0,0,3.84-0.29,7.97,0.45c0.39,0.07,0.78,0.15,1.16,0.24c0.39,0.09,0.78,0.19,1.16,0.3
					c0.39,0.11,0.77,0.23,1.14,0.37c0.75,0.27,1.48,0.58,2.15,0.96c0.34,0.19,0.67,0.39,0.979,0.61c1.25,0.87,2.26,1.99,2.851,3.43
					c2.01,4.85-0.801,13.35-15.511,28.13c0,0,82.86,92.71,17.87,176.02c-0.6,0.761-1.2,1.511-1.81,2.261v0.01
					c0,0,13.53,3.54,21.56,11.46c4.391,4.32,7.13,9.95,5.141,17.01c0,0-2.011,0.55-5.57,1.46c-0.59,0.15-1.22,0.311-1.9,0.48
					c-0.34,0.08-0.689,0.17-1.05,0.26c-2.32,0.57-5.07,1.24-8.16,1.96c-0.949,0.22-1.93,0.45-2.939,0.68
					c-0.51,0.11-1.021,0.23-1.55,0.351c-1.301,0.29-2.65,0.59-4.04,0.899c-0.28,0.061-0.561,0.12-0.841,0.181
					c-0.56,0.119-1.13,0.25-1.71,0.369c-0.569,0.12-1.159,0.25-1.739,0.37c-12.051,2.551-26.61,5.261-41.33,7.13
					c-1.44,0.181-2.88,0.351-4.32,0.521c-0.71,0.08-1.43,0.16-2.15,0.24c-1.439,0.149-2.869,0.3-4.3,0.439
					c-2.859,0.271-5.71,0.5-8.529,0.681c-3.511,0.22-6.98,0.369-10.36,0.43v-0.01v-0.011c-14.31,0-30.71-1.659-46.29-3.89
					c-2.23-0.32-4.44-0.65-6.62-0.99c-0.73-0.109-1.46-0.22-2.18-0.34c-1.44-0.229-2.88-0.47-4.29-0.7
					c-6.38-1.05-12.45-2.159-18-3.229c-0.61-0.12-1.22-0.24-1.82-0.351c-0.3-0.06-0.6-0.119-0.9-0.18
					c-0.89-0.18-1.77-0.35-2.63-0.52c-0.86-0.17-1.7-0.341-2.53-0.511c-1.1-0.229-2.17-0.449-3.2-0.659
					c-0.52-0.101-1.03-0.21-1.52-0.32c-0.5-0.11-0.99-0.21-1.47-0.311c-9.38-2-15.24-3.43-15.24-3.43
					c-1.91-6.77,0.54-12.22,4.61-16.47c0.17-0.18,0.35-0.351,0.53-0.53c7.88-7.78,21.08-11.33,21.52-11.45c0.01,0,0.01,0,0.01,0
					c-0.09-0.109-0.18-0.21-0.26-0.319C180.51,439.26,180.43,439.15,180.36,439.05z"/>
				<path fill="#231F20" d="M259.36,98.75h-0.021c-12.68,1.98-99.01,18.35-39.03,91.59c0.08,0.09,0.16,0.19,0.24,0.29
					c0.08,0.1,0.16,0.19,0.24,0.29c-0.07,0-0.53,0.03-1.27,0.13c-0.18,0.02-0.38,0.04-0.59,0.08c-0.11,0.02-0.22,0.04-0.33,0.05
					c-0.69,0.1-1.5,0.25-2.4,0.47c-0.16,0.04-0.31,0.08-0.46,0.11c-0.78,0.19-1.62,0.43-2.5,0.72c-0.17,0.06-0.35,0.12-0.52,0.18
					c-0.72,0.25-1.45,0.53-2.19,0.86c-0.37,0.17-0.74,0.34-1.11,0.52s-0.75,0.37-1.12,0.58c-0.19,0.11-0.37,0.21-0.56,0.32
					c-1.11,0.65-2.21,1.4-3.26,2.28c-5.83,4.88-10.04,13.5-5.88,28.74c0,0.01,0,0.01,0,0.02l-2.2,0.85h-0.01
					c-2.85,0.04-7.59,0.43-11.08,2.35c-0.33,0.17-0.64,0.36-0.94,0.57c-1.05,0.72-1.93,1.61-2.55,2.71
					c-2.64,4.65-0.45,13.11,14.65,28.4c0.16,0.16,0.34,0.34,0.49,0.49c0,0-53,59.26-41.03,125.61c0.53,2.99,1.2,5.99,2.02,9v0.01
					c0.4,1.5,0.85,3.011,1.33,4.521c0.47,1.51,0.99,3.029,1.55,4.54c0.83,2.27,1.75,4.54,2.76,6.819
					c0.67,1.521,1.38,3.03,2.14,4.551c3.77,7.58,8.59,15.159,14.62,22.649c0.08,0.101,0.16,0.21,0.24,0.311
					c0.08,0.109,0.16,0.21,0.25,0.319c-0.44,0.12-13.64,3.67-21.52,11.45c-0.18,0.17-0.36,0.351-0.53,0.53
					c-4.07,4.25-6.52,9.7-4.61,16.47v0.01c0,0,5.86,1.431,15.24,3.42c0.48,0.11,0.97,0.21,1.47,0.311c0.49,0.11,1,0.22,1.52,0.32
					c1.03,0.22,2.1,0.439,3.2,0.659c0.83,0.17,1.67,0.341,2.53,0.511c0.86,0.17,1.74,0.35,2.63,0.52c0.3,0.061,0.6,0.12,0.9,0.18
					c0.6,0.12,1.21,0.23,1.82,0.351c5.55,1.07,11.62,2.18,18,3.229c1.41,0.24,2.85,0.48,4.29,0.7c0.72,0.12,1.45,0.23,2.18,0.34
					c2.18,0.34,4.39,0.67,6.62,0.99c15.58,2.24,31.99,3.9,46.29,3.9v0.01v0.01c3.38-0.06,6.85-0.21,10.36-0.439
					c2.819-0.181,5.67-0.41,8.529-0.681c1.431-0.14,2.86-0.279,4.3-0.439c0.721-0.08,1.44-0.16,2.15-0.24
					c1.44-0.16,2.88-0.34,4.32-0.521c14.72-1.869,29.279-4.579,41.33-7.13c0.58-0.12,1.17-0.239,1.739-0.37
					c0.58-0.119,1.15-0.239,1.71-0.369c0.28-0.061,0.561-0.12,0.841-0.181c1.39-0.3,2.739-0.6,4.04-0.899
					c0.529-0.11,1.04-0.23,1.55-0.351c1.01-0.229,1.99-0.45,2.939-0.68c3.09-0.72,5.84-1.38,8.16-1.96
					c0.36-0.08,0.71-0.17,1.05-0.26c0.681-0.16,1.311-0.32,1.9-0.48c3.56-0.899,5.57-1.45,5.57-1.45v-0.01
					c1.989-7.06-0.75-12.689-5.141-17.01c-7.89-7.79-21.109-11.351-21.55-11.47c0.61-0.75,1.21-1.5,1.8-2.261
					c64.99-83.31-17.87-176.02-17.87-176.02c14.71-14.78,17.521-23.28,15.511-28.13c-0.591-1.44-1.601-2.56-2.851-3.43
					c-0.31-0.22-0.64-0.42-0.979-0.61c-0.67-0.38-1.4-0.69-2.15-0.96c-0.37-0.14-0.75-0.26-1.14-0.37
					c-0.38-0.11-0.771-0.21-1.16-0.3c-0.38-0.09-0.771-0.17-1.16-0.24c-4.13-0.74-7.97-0.45-7.97-0.45
					c0.53-1.82,0.939-3.56,1.24-5.2c0.859-4.64,0.869-8.57,0.27-11.92c-0.01,0,0-0.01,0-0.01c-0.21-1.21-0.5-2.33-0.87-3.39
					c-0.01-0.01,0-0.01,0-0.01c-0.63-1.85-1.47-3.49-2.45-4.92c-0.55-0.82-1.159-1.57-1.81-2.27c-0.01-0.01,0-0.01,0-0.01
					c-0.16-0.17-0.33-0.35-0.49-0.51c-0.49-0.5-1-0.97-1.53-1.41c-0.52-0.44-1.06-0.84-1.609-1.22c-1.46-1.02-2.97-1.83-4.46-2.48
					c-0.37-0.16-0.73-0.32-1.09-0.46c-4.92-1.93-9.181-2.13-9.181-2.13C355.5,116.42,272.08,100.69,259.36,98.75z M476.26,166
					l-0.02,251.75L257.76,543.57L39.26,417.71l0.04-251.73L257.78,40.14L476.26,166z"/>
				<path fill="#231F20" d="M220.8,190.92v0.01c0,0-0.47,0.02-1.28,0.12c0.74-0.1,1.2-0.13,1.27-0.13H220.8z"/>
				<path fill="#FFFFFF" d="M508.75,150.18l-0.02,289.14l-250.99,144.6L6.75,439.28l0.04-289.14L257.78,5.58L508.75,150.18z
					 M476.24,417.75L476.26,166L257.78,40.14L39.3,165.98l-0.04,251.73l218.5,125.86L476.24,417.75z"/>
				<path fill="#231F20" d="M334.67,438.65c0.44,0.119,13.66,3.68,21.55,11.47c-8.029-7.92-21.56-11.46-21.56-11.46v-0.01
					C334.66,438.65,334.66,438.65,334.67,438.65z"/>
				<path fill="#231F20" d="M330.28,228.2c0.34,0.19,0.67,0.39,0.979,0.61C330.95,228.59,330.62,228.39,330.28,228.2z"/>
				<path fill="#231F20" d="M326.99,226.87c0.39,0.11,0.77,0.23,1.14,0.37C327.76,227.1,327.38,226.98,326.99,226.87z"/>
				<path fill="#231F20" d="M324.67,226.33c0.39,0.07,0.78,0.15,1.16,0.24C325.45,226.48,325.06,226.4,324.67,226.33z"/>
				<path fill="#FFFFFF" d="M220.55,190.63c0.08,0.1,0.17,0.2,0.25,0.29h-0.01C220.71,190.82,220.63,190.73,220.55,190.63z"/>
				<path fill="#231F20" d="M218.93,191.13c0.21-0.04,0.41-0.06,0.59-0.08C219.34,191.08,219.14,191.1,218.93,191.13z"/>
				<path fill="#231F20" d="M216.2,191.65c0.9-0.22,1.71-0.37,2.4-0.47C217.91,191.29,217.1,191.44,216.2,191.65z"/>
				<path fill="#231F20" d="M213.24,192.48c0.88-0.29,1.72-0.53,2.5-0.72C214.96,191.96,214.12,192.19,213.24,192.48z"/>
				<path fill="#231F20" d="M210.53,193.52c0.74-0.33,1.47-0.61,2.19-0.86C212,192.91,211.27,193.2,210.53,193.52z"/>
				<path fill="#231F20" d="M208.3,194.62c0.37-0.21,0.75-0.4,1.12-0.58C209.05,194.23,208.67,194.42,208.3,194.62z"/>
				<path fill="#231F20" d="M204.48,197.22c1.05-0.88,2.15-1.63,3.26-2.28C206.63,195.59,205.53,196.35,204.48,197.22z"/>
				<path fill="#231F20" d="M198.76,226.56c0.03,0.11,0.06,0.21,0.09,0.32c0,0-0.97-0.07-2.45-0.05l2.2-0.85
					C198.66,226.18,198.71,226.37,198.76,226.56z"/>
				<polygon fill="#FFFFFF" points="198.85,225.88 198.81,225.9 198.6,225.96 				"/>
				<path fill="#FFFFFF" d="M198.6,225.96l0.21-0.06l-0.21,0.08C198.6,225.97,198.6,225.97,198.6,225.96z"/>
				<path fill="#231F20" d="M196.4,226.83c1.48-0.02,2.45,0.05,2.45,0.05c-0.03-0.11-0.06-0.21-0.09-0.32
					c0.03,0.11,0.06,0.22,0.1,0.33c0,0-0.98-0.08-2.49-0.05l0.02-0.01H196.4z"/>
				<path fill="#231F20" d="M185.31,229.18c3.49-1.92,8.23-2.31,11.08-2.35l-0.02,0.01C193.51,226.88,188.79,227.27,185.31,229.18z"
					/>
				<path fill="#FFFFFF" d="M185.31,229.18c3.48-1.91,8.2-2.3,11.06-2.34l-14.55,5.62c0.62-1.1,1.5-1.99,2.55-2.71
					C184.67,229.55,184.98,229.36,185.31,229.18z"/>
				<path fill="#231F20" d="M184.37,229.75c0.3-0.21,0.61-0.4,0.94-0.57C184.98,229.36,184.67,229.55,184.37,229.75z"/>
			</g>
			<g>
				<polygon fill="none" stroke="#231F20" stroke-width="2.4375" stroke-miterlimit="10" points="508.75,150.18 508.73,439.32 
					257.74,583.92 6.75,439.28 6.79,150.14 257.78,5.58 				"/>
				<polygon fill="none" stroke="#FFFFFF" stroke-width="2.4375" stroke-miterlimit="10" points="476.24,417.75 257.76,543.57 
					39.26,417.71 39.3,165.98 257.78,40.14 476.26,166 				"/>
				<path fill="none" stroke="#231F20" stroke-width="2.4375" stroke-miterlimit="10" d="M259.34,98.75
					c-12.68,1.98-99.01,18.35-39.03,91.59c0.08,0.09,0.16,0.19,0.24,0.29c0.08,0.1,0.16,0.19,0.24,0.29h0.01v0.01
					c0,0-0.47,0.02-1.28,0.12c-0.18,0.03-0.38,0.05-0.59,0.08c-0.11,0.02-0.22,0.04-0.33,0.05c-0.69,0.11-1.5,0.26-2.4,0.47
					c-0.16,0.04-0.31,0.08-0.46,0.11c-0.78,0.2-1.62,0.43-2.5,0.72c-0.17,0.06-0.35,0.12-0.52,0.18c-0.72,0.25-1.45,0.54-2.19,0.86
					c-0.37,0.17-0.74,0.34-1.11,0.52c-0.37,0.19-0.75,0.38-1.12,0.58c-0.19,0.11-0.37,0.21-0.56,0.32
					c-1.11,0.65-2.21,1.41-3.26,2.28c-5.83,4.88-10.04,13.5-5.88,28.74c0,0.01,0,0.01,0,0.02c0.06,0.2,0.11,0.39,0.16,0.58
					c0.03,0.11,0.06,0.22,0.1,0.33c0,0-0.98-0.08-2.49-0.05c-2.86,0.04-7.58,0.43-11.06,2.34c-0.33,0.18-0.64,0.37-0.94,0.57
					c-1.05,0.72-1.93,1.61-2.55,2.71c-2.64,4.65-0.45,13.11,14.65,28.4c0.16,0.16,0.34,0.34,0.49,0.49c0,0-53,59.26-41.03,125.61
					c0.54,2.99,1.21,5.99,2.02,9v0.01c0.41,1.5,0.85,3.011,1.33,4.521s1,3.02,1.55,4.54c0.83,2.27,1.75,4.54,2.76,6.819
					c0.67,1.511,1.39,3.03,2.14,4.551c3.78,7.58,8.6,15.159,14.63,22.649c0.07,0.101,0.15,0.21,0.23,0.311
					c0.08,0.109,0.17,0.21,0.26,0.319c0,0,0,0-0.01,0c-0.44,0.12-13.64,3.67-21.52,11.45c-0.18,0.18-0.36,0.351-0.53,0.53
					c-4.07,4.25-6.52,9.7-4.61,16.47v0.01c0,0,5.86,1.431,15.24,3.42c0.48,0.11,0.97,0.21,1.47,0.311c0.49,0.11,1,0.22,1.52,0.32
					c1.03,0.22,2.1,0.439,3.2,0.659c0.83,0.17,1.67,0.341,2.53,0.511c0.86,0.17,1.74,0.35,2.63,0.52c0.3,0.061,0.6,0.12,0.9,0.18
					c0.6,0.12,1.21,0.23,1.82,0.351c5.55,1.07,11.62,2.18,18,3.229c1.41,0.24,2.85,0.48,4.29,0.7c0.72,0.12,1.45,0.23,2.18,0.34
					c2.18,0.34,4.39,0.67,6.62,0.99c15.58,2.24,31.99,3.9,46.29,3.9"/>
				<path fill="none" stroke="#231F20" stroke-width="2.4375" stroke-miterlimit="10" d="M260.87,98.54c0,0-0.53,0.05-1.51,0.21"/>
				<path fill="none" stroke="#231F20" stroke-width="2.4375" stroke-miterlimit="10" d="M257.78,98.54c0,0,0.57,0.05,1.56,0.21
					h0.021c12.72,1.94,96.14,17.67,35.359,91.19c0,0,4.261,0.2,9.181,2.13c0.359,0.15,0.729,0.3,1.09,0.46
					c1.49,0.65,3,1.46,4.46,2.48c0.54,0.38,1.08,0.79,1.609,1.22c0.53,0.44,1.04,0.91,1.53,1.41c0.16,0.17,0.32,0.34,0.49,0.51
					c0,0-0.01,0,0,0.01c0.64,0.69,1.25,1.45,1.81,2.27c0.971,1.44,1.811,3.07,2.45,4.92c0,0-0.01,0,0,0.01
					c0.36,1.05,0.65,2.18,0.87,3.39c0,0-0.01,0.01,0,0.01c0.59,3.34,0.59,7.28-0.27,11.92c-0.301,1.64-0.71,3.38-1.24,5.2
					c0,0,3.84-0.29,7.97,0.45c0.39,0.07,0.78,0.15,1.16,0.24c0.39,0.09,0.78,0.19,1.16,0.3c0.39,0.11,0.77,0.23,1.14,0.37
					c0.75,0.27,1.48,0.58,2.15,0.96c0.34,0.19,0.67,0.39,0.979,0.61c1.25,0.87,2.26,1.99,2.851,3.43
					c2.01,4.85-0.801,13.35-15.511,28.13c0,0,82.86,92.71,17.87,176.02c-0.6,0.761-1.2,1.511-1.81,2.261c0,0,0,0,0.01,0
					c0.44,0.119,13.66,3.68,21.55,11.47c4.391,4.32,7.13,9.95,5.141,17.01c0,0-2.011,0.55-5.57,1.46c-0.59,0.15-1.22,0.311-1.9,0.48
					c-0.34,0.08-0.689,0.17-1.05,0.26c-2.32,0.57-5.07,1.24-8.16,1.96c-0.949,0.22-1.93,0.45-2.939,0.68
					c-0.51,0.11-1.021,0.23-1.55,0.351c-1.301,0.29-2.65,0.59-4.04,0.899c-0.28,0.061-0.561,0.12-0.841,0.181
					c-0.56,0.119-1.13,0.25-1.71,0.369c-0.569,0.12-1.159,0.25-1.739,0.37c-12.051,2.551-26.61,5.261-41.33,7.13
					c-1.44,0.181-2.88,0.351-4.32,0.521c-0.71,0.08-1.43,0.16-2.15,0.24c-1.439,0.149-2.869,0.3-4.3,0.439
					c-2.859,0.271-5.71,0.5-8.529,0.681c-3.511,0.22-6.98,0.369-10.36,0.43c-1.04,0.02-2.07,0.02-3.09,0.02"/>
			</g>
		</g>
	</g>
</g>
</svg>
