<?xml version="1.0" encoding="utf-8"?>
<!-- Generator: Adobe Illustrator 15.0.2, SVG Export Plug-In . SVG Version: 6.00 Build 0)  -->
<!DOCTYPE svg PUBLIC "-//W3C//DTD SVG 1.1//EN" "http://www.w3.org/Graphics/SVG/1.1/DTD/svg11.dtd">
<svg version="1.1" id="Layer_1" xmlns="http://www.w3.org/2000/svg" xmlns:xlink="http://www.w3.org/1999/xlink" x="0px" y="0px"
	 width="514.5px" height="589.5px" viewBox="0 0 514.5 589.5" enable-background="new 0 0 514.5 589.5" xml:space="preserve">
<g id="XMLID_1_">
	<g>
		<polygon fill="#FFFFFF" points="267.487,261.438 267.487,273.299 257.218,279.214 246.948,273.299 246.948,261.438 
			257.218,255.522 		"/>
		<path fill="#FFFFFF" d="M272.979,235.989l-15.763,9.1l-15.795-9.1v-18.232l15.795-9.1l15.763,9.1V235.989z M246.948,220.942
			v11.863l10.27,5.915l10.271-5.915v-11.863l-10.271-5.915L246.948,220.942z"/>
		<path fill="#FFFFFF" d="M271.354,119.347c9.881,9.327-10.303,0.097-20.021,3.607C251.335,122.956,260.11,108.688,271.354,119.347z
			"/>
		<path fill="#231F20" d="M507.435,150.384v288.829L257.25,584.129L7.065,439.213V150.384L257.25,5.371L507.435,150.384z
			 M492.224,430.307V159.291L257.477,23.212L22.729,159.291v271.018l234.748,135.979L492.224,430.307z"/>
		<path fill="#009345" d="M492.224,159.291v271.018L257.477,566.287L22.729,430.307V159.291L257.477,23.212L492.224,159.291z
			 M475.617,224.161l0.261-0.325h-0.261v-23.01v-32.143l-92.982-53.69l-29.997-17.323l-13.39-7.735L321.86,79.893
			c-0.033,0-0.033-0.033-0.065-0.033l-64.577-37.277l-76.083,43.907l-8.353,4.843l-12.676,7.312l-28.241,16.315l-93.08,53.723
			v32.143v23.01v121.258v23.562v52.227l186.29,107.574l32.143,18.559l32.175-18.59l186.225-107.543v-52.227v-23.562h0.262
			l-0.262-0.326V224.161L475.617,224.161z"/>
		<polygon fill="#1B75BB" points="475.878,223.835 475.617,224.161 475.617,223.835 		"/>
		<polygon fill="#1B75BB" points="475.617,344.768 475.878,345.092 475.617,345.092 		"/>
		<polygon fill="#929497" points="475.617,368.656 475.617,420.883 289.392,528.424 289.392,435.02 289.392,368.656 
			339.248,405.184 352.638,414.967 382.375,436.775 382.375,368.656 		"/>
		<polygon fill="#004E26" points="475.617,345.092 475.617,368.656 382.375,368.656 382.375,345.092 382.668,345.092 		"/>
		<polygon fill="#5A4A42" points="475.617,344.768 475.617,345.092 382.668,345.092 429.271,284.48 		"/>
		<polygon fill="#292117" points="475.617,224.161 475.617,344.768 429.271,284.48 		"/>
		<polygon fill="#F1F1F2" points="475.617,223.835 475.617,224.161 429.271,284.48 382.668,223.835 		"/>
		<polygon fill="#004E26" points="475.617,200.826 475.617,223.835 382.668,223.835 382.375,223.835 382.375,200.826 		"/>
		<polygon fill="#3A2F28" points="475.617,168.683 475.617,200.826 382.375,200.826 382.375,115.416 382.635,114.993 		"/>
		<polygon fill="#C1B49A" points="382.668,223.835 429.271,284.48 382.668,345.092 382.375,345.092 382.375,223.835 		"/>
		<polygon fill="#A01623" points="382.635,114.993 382.375,115.416 382.375,200.826 382.375,223.835 382.375,345.092 
			382.375,368.656 382.375,436.775 352.638,414.967 352.638,97.669 		"/>
		<polygon fill="#F9EC31" points="352.638,97.669 352.638,414.967 339.248,405.184 339.248,405.152 339.248,329.656 
			339.248,181.779 339.248,156.592 339.248,135.467 339.248,89.936 		"/>
		<path fill="#380053" d="M339.248,405.152v0.031l-49.855-36.527l-32.143-23.562c1.527-0.326,52.356-10.92,61.133-87.328h0.032
			c0.26,28.762,4.062,64.771,20.833,71.891V405.152z"/>
		<path fill="#52217C" d="M339.248,181.779v147.875c-16.771-7.117-20.573-43.128-20.833-71.89
			c-0.195-20.54,1.396-37.375,1.396-37.375c-19.435-9.75-5.103-19.923-5.103-19.923c0-10.562-15.308-15.892-18.524-16.9
			C300.995,184.899,334.86,193.837,339.248,181.779z"/>
		<path fill="#130843" d="M339.248,135.467v21.125c-45.793,38.87-69.16,3.413-70.104,1.917c32.109,19.305,55.152,1.073,55.152,1.073
			c-2.567-0.195-4.646-0.52-6.37-0.91C317.928,158.672,328.425,160.266,339.248,135.467z"/>
		<path fill="#40496F" d="M339.248,89.936v45.532c-10.823,24.798-21.32,23.205-21.32,23.205c-8.288-1.885-7.703-5.59-7.703-5.59
			c15.179-2.178,15.698-7.605,15.698-7.605c-10.823,1.105-20.021-1.625-12.448-4.68c7.573-3.055,18.688-4.518,18.688-4.518
			c-3.802-5.72-15.242-7.637-15.242-7.637c11.992-2.373,10.628-10.79,10.628-10.79c-7.735,10.01-24.896-2.438-24.896-2.438
			c2.696-1.917,9.196,0,9.196,0c-14.071-17.095-24.375-14.917-24.375-14.917l-1.233-1.853c0,0,14.3-27.95,35.555-18.785
			c0.032,0,0.032,0.033,0.065,0.033L339.248,89.936z"/>
		<path fill="#9E1F63" d="M295.599,183.404c0,12.513-38.35,17.062-38.35,17.062c-18.915,0-32.078-15.438-32.078-15.438
			c3.803-17.322,13.553-14.625,13.553-14.625c0.91-3.445,2.405-5.882,4.192-7.572c5.428-5.167,13.39-3.478,14.268-3.283
			c-9.651-6.467-29.835-2.697-29.835-2.697c-1.689-0.292-3.12-0.65-4.354-1.04h-0.033c-9.522-2.86-6.987-7.183-6.987-7.183
			c33.572-6.598,41.243-0.552,41.243-0.552c9.814,2.6,2.632-4.745,2.632-4.745c-23.821-11.928-52.552,4.745-52.552,4.745
			c-7.572-22.88,21.678-23.725,21.678-23.725c0.357-5.038,2.016-9.067,4.062-12.155h0.033c3.802-5.882,8.904-8.417,8.904-8.417
			c-12.446-17.875-4.875-27.69-4.875-27.69c15.179,25.383,29.803,21.58,29.803,21.58c-4.354-9.328,4.321-21.58,4.321-21.58
			l15.017,22.555l1.233,1.853c0,0,10.304-2.178,24.375,14.917c0,0-6.5-1.917-9.196,0c0,0,17.159,12.447,24.896,2.438
			c0,0,1.364,8.417-10.628,10.79c0,0,11.44,1.917,15.242,7.637c0,0-11.114,1.463-18.688,4.518c-7.571,3.055,1.625,5.785,12.448,4.68
			c0,0-0.521,5.427-15.698,7.605c0,0-0.585,3.705,7.703,5.59c1.724,0.39,3.803,0.715,6.37,0.91c0,0-23.043,18.232-55.152-1.073
			c0.942,1.495,24.311,36.953,70.104-1.917v25.188c-4.388,12.058-38.253,3.12-43.062,1.788c-0.163-0.032-0.261-0.065-0.357-0.098
			C295.665,183.438,295.599,183.404,295.599,183.404z M251.335,122.956c9.718-3.51,29.9,5.72,20.021-3.607
			C260.11,108.688,251.335,122.956,251.335,122.956z"/>
		<path fill="#231F20" d="M257.218,42.583l64.577,37.277c-21.255-9.165-35.555,18.785-35.555,18.785l-15.017-22.555
			c0,0-8.677,12.252-4.321,21.58c0,0-14.625,3.803-29.803-21.58c0,0-7.571,9.815,4.875,27.69c0,0-5.103,2.535-8.904,8.417h-0.033
			c-51.155,11.667-51.902-25.708-51.902-25.708L257.218,42.583z"/>
		<path fill="#58595B" d="M281.56,441.812c0.261-2.309,0.391-4.551,0.391-6.793h7.441v93.404l-32.175,18.59l-32.143-18.557V433.07
			h6.694c0,2.988,0.229,5.914,0.618,8.74c1.561,10.76,5.72,20.217,10.237,27.658c6.922,11.504,14.625,18.33,14.625,18.33
			c7.021-7.02,12.285-14.041,16.12-20.865v-0.031C278.179,458.225,280.682,449.807,281.56,441.812z"/>
		<path fill="#58595B" d="M289.392,368.656v66.363h-7.441c0-13.098-4.096-24.732-8.971-33.93
			c-7.053-13.391-15.729-21.613-15.729-21.613c-8.742,8.742-14.82,17.355-18.85,25.676c-4.745,9.814-6.631,19.209-6.631,27.918
			h-6.694v-64.414h0.031H289.392L289.392,368.656z"/>
		<polygon fill="#004E26" points="289.392,368.656 225.107,368.656 257.218,345.092 257.25,345.092 		"/>
		<path fill="#007DC4" d="M281.95,435.02c0,2.242-0.13,4.484-0.391,6.793l-10.303-5.037c-0.13-5.883-1.723-11.182-3.771-15.664
			l5.492-20.021C277.854,410.287,281.95,421.922,281.95,435.02z"/>
		<path fill="#00B7EB" d="M271.258,436.775l10.303,5.037c-0.878,7.994-3.381,16.412-8.189,25.09l-5.851-13.584
			C270.314,447.533,271.354,441.943,271.258,436.775z"/>
		<path fill="#007DC4" d="M273.37,466.902v0.031c-3.835,6.826-9.101,13.848-16.12,20.865l0.228-20.865
			c4.615-4.613,7.865-9.195,10.043-13.615L273.37,466.902z"/>
		<path fill="#00B7EB" d="M272.979,401.09l-5.492,20.021c-4.096-8.906-10.011-14.529-10.011-14.529l-0.228-27.104
			C257.25,379.477,265.928,387.701,272.979,401.09z"/>
		<path fill="#A3D3F1" d="M267.52,453.318c-2.178,4.42-5.428,9.002-10.043,13.615c0,0-4.939-4.387-8.97-11.635
			c-2.795-4.973-5.167-11.309-5.232-18.523c-0.032-4.875,0.942-10.141,3.607-15.664c2.21-4.682,5.622-9.557,10.595-14.529
			c0,0,5.915,5.623,10.011,14.529c2.048,4.482,3.641,9.781,3.771,15.664C271.354,441.943,270.314,447.533,267.52,453.318z"/>
		<polygon fill="#231F20" points="267.487,220.942 267.487,232.805 257.218,238.719 246.948,232.805 246.948,220.942 
			257.218,215.027 		"/>
		<path fill="#007DC4" d="M257.25,379.477l0.228,27.105c-4.973,4.973-8.385,9.848-10.595,14.527h-0.033l-8.449-15.957
			C242.43,396.832,248.508,388.219,257.25,379.477z"/>
		<path fill="#00B7EB" d="M257.477,466.934l-0.228,20.865c0,0-7.703-6.824-14.625-18.33l5.883-14.17
			C252.537,462.547,257.477,466.934,257.477,466.934z"/>
		<path fill="#56217C" d="M257.218,249.152l-15.795,9.1v18.232l15.795,9.1l15.763-9.1v-18.232L257.218,249.152z M257.25,200.467
			c0,0,38.35-4.55,38.35-17.062c0,0,0.065,0.033,0.229,0.065c0.098,0.033,0.194,0.065,0.357,0.098
			c3.218,1.008,18.524,6.337,18.524,16.9c0,0-14.332,10.173,5.103,19.923c0,0-24.603,109.265-62.595,109.265
			c0,0-43.258-2.859-58.728-107.25c0,0-3.283-15.373-1.333-29.607c1.656-12.252,7.215-23.627,22.066-23.627
			c0,0,9.23-8.515,23.692-6.337c-1.788,1.69-3.282,4.127-4.192,7.572c0,0-9.75-2.697-13.553,14.625
			C225.172,185.029,238.335,200.467,257.25,200.467z M257.218,245.089l15.763-9.1v-18.232l-15.763-9.1l-15.795,9.1v18.232
			L257.218,245.089z"/>
		<path fill="#007DC4" d="M248.508,455.299l-5.883,14.17c-4.518-7.441-8.677-16.898-10.237-27.656h0.032l10.855-5.037
			C243.34,443.99,245.712,450.328,248.508,455.299z"/>
		<path fill="#231F20" d="M267.487,261.438l-10.271-5.915l-10.27,5.915v11.862l10.27,5.915l10.271-5.915V261.438z M272.979,276.484
			l-15.763,9.1l-15.795-9.1v-18.232l15.795-9.1l15.763,9.1V276.484z"/>
		<path fill="#00B7EB" d="M246.85,421.111h0.033c-2.665,5.523-3.64,10.789-3.607,15.664l-10.855,5.037h-0.032
			c-0.39-2.826-0.618-5.754-0.618-8.742c0-8.709,1.886-18.104,6.631-27.918L246.85,421.111z"/>
		<path fill="#40496F" d="M227.35,156.853c0,0,20.184-3.77,29.835,2.697c-0.877-0.195-8.84-1.885-14.268,3.283
			c-14.462-2.178-23.692,6.337-23.692,6.337c-14.853,0-20.41,11.375-22.066,23.627c0,0-3.445,12.188-6.729,31.038
			c-7.118,40.397-13.649,111.474,15.405,158.925l-33.052,24.213V144.016c0,0,6.825,31.362,50.18,11.797h0.033
			C224.229,156.203,225.66,156.561,227.35,156.853z"/>
		<polygon fill="#929497" points="225.075,433.07 225.075,528.457 38.785,420.883 38.785,368.656 132.125,368.656 132.125,436.775 
			160.107,416.268 172.783,406.973 205.835,382.76 225.075,368.656 		"/>
		<path fill="#F9EC31" d="M318.383,257.766c-8.774,76.408-59.604,87.002-61.133,87.328h-0.032c0,0-59.442-6.045-66.788-121.258
			c3.282-18.85,6.729-31.038,6.729-31.038c-1.95,14.235,1.333,29.607,1.333,29.607c15.47,104.391,58.728,107.25,58.728,107.25
			c37.992,0,62.595-109.265,62.595-109.265s-1.593,16.835-1.396,37.375L318.383,257.766L318.383,257.766z"/>
		<path fill="#380053" d="M205.835,382.76c-29.055-47.451-22.522-118.527-15.405-158.925
			c7.346,115.212,66.788,121.257,66.788,121.257l-32.109,23.562h-0.032L205.835,382.76z"/>
		<path fill="#262261" d="M257.218,148.078c0,0-7.67-6.045-41.243,0.552c0,0-2.535,4.323,6.987,7.183
			c-43.354,19.565-50.18-11.797-50.18-11.797V91.333l8.353-4.843c0,0,0.748,37.375,51.902,25.708
			c-2.047,3.088-3.705,7.118-4.062,12.155c0,0-29.25,0.845-21.678,23.725c0,0,28.73-16.673,52.552-4.745
			C259.849,143.333,267.032,150.677,257.218,148.078z"/>
		<polygon fill="#F9EC31" points="172.783,144.016 172.783,406.973 160.107,416.268 160.107,98.646 172.783,91.333 		"/>
		<polygon fill="#A01623" points="160.107,98.646 160.107,416.268 132.125,436.775 132.125,368.656 132.125,345.092 
			132.385,345.092 132.125,344.768 132.125,224.161 132.385,223.835 132.125,223.835 132.125,200.826 132.125,115.416 
			131.865,114.96 		"/>
		<polygon fill="#A01623" points="132.385,223.835 132.125,224.161 132.125,223.835 		"/>
		<polygon fill="#A01623" points="132.125,344.768 132.385,345.092 132.125,345.092 		"/>
		<polygon fill="#004E26" points="132.125,345.092 132.125,368.656 38.785,368.656 38.785,345.092 39.077,345.092 		"/>
		<polygon fill="#5A4A42" points="132.125,344.768 132.125,345.092 39.077,345.092 85.747,284.48 		"/>
		<polygon fill="#C1B49A" points="132.125,224.161 132.125,344.768 85.747,284.48 		"/>
		<polygon fill="#F1F1F2" points="132.125,223.835 132.125,224.161 85.747,284.48 39.077,223.835 		"/>
		<polygon fill="#004E26" points="132.125,200.826 132.125,223.835 39.077,223.835 38.785,223.835 38.785,200.826 		"/>
		<polygon fill="#3A2F28" points="132.125,115.416 132.125,200.826 38.785,200.826 38.785,168.683 131.865,114.96 		"/>
		<polygon fill="#292117" points="85.747,284.48 39.077,345.092 38.785,345.092 38.785,223.835 39.077,223.835 		"/>
	</g>
	<g>
		<polygon fill="none" stroke="#231F20" stroke-width="2.4375" stroke-miterlimit="10" points="507.435,439.213 257.25,584.129 
			7.065,439.213 7.065,150.384 257.25,5.371 507.435,150.384 		"/>
		<polyline fill="none" stroke="#231F20" stroke-width="2.4375" stroke-miterlimit="10" points="321.86,79.893 339.248,89.936 
			352.638,97.669 382.635,114.993 475.617,168.683 475.617,200.826 475.617,223.835 475.617,224.161 475.617,344.768 
			475.617,345.092 475.617,368.656 475.617,420.883 289.392,528.424 257.218,547.014 225.075,528.457 38.785,420.883 
			38.785,368.656 38.785,345.092 38.785,223.835 38.785,200.826 38.785,168.683 131.865,114.96 160.107,98.646 172.783,91.333 
			181.135,86.489 257.218,42.583 321.795,79.859 		"/>
		
			<line fill="none" stroke="#231F20" stroke-width="2.4375" stroke-miterlimit="10" x1="225.107" y1="368.656" x2="257.218" y2="345.092"/>
		<polyline fill="none" stroke="#231F20" stroke-width="2.4375" stroke-miterlimit="10" points="132.125,115.416 132.125,200.826 
			132.125,223.835 132.125,224.161 132.125,344.768 132.125,345.092 132.125,368.656 132.125,436.775 160.107,416.268 
			172.783,406.973 205.835,382.76 225.075,368.656 		"/>
		<path fill="none" stroke="#231F20" stroke-width="2.4375" stroke-miterlimit="10" d="M257.218,345.092h0.032
			c1.527-0.324,52.356-10.92,61.133-87.327"/>
		<polyline fill="none" stroke="#231F20" stroke-width="2.4375" stroke-miterlimit="10" points="382.375,115.416 382.375,200.826 
			382.375,223.835 382.375,345.092 382.375,368.656 382.375,436.775 352.638,414.967 339.248,405.184 289.392,368.656 
			257.25,345.092 		"/>
		<polyline fill="none" stroke="#231F20" stroke-width="2.4375" stroke-miterlimit="10" points="172.783,91.333 172.783,144.016 
			172.783,406.973 		"/>
		<polyline fill="none" stroke="#231F20" stroke-width="2.4375" stroke-miterlimit="10" points="339.248,89.936 339.248,135.467 
			339.248,156.592 339.248,181.779 339.248,329.656 339.248,405.152 		"/>
		<path fill="none" stroke="#231F20" stroke-width="2.4375" stroke-miterlimit="10" d="M269.145,158.509
			c0.942,1.495,24.311,36.953,70.104-1.917"/>
		<path fill="none" stroke="#231F20" stroke-width="2.4375" stroke-miterlimit="10" d="M233.07,112.197
			c3.802-5.882,8.904-8.417,8.904-8.417c-12.446-17.875-4.875-27.69-4.875-27.69c15.179,25.383,29.803,21.58,29.803,21.58
			c-4.354-9.328,4.321-21.58,4.321-21.58l15.017,22.555l1.233,1.853c0,0,10.304-2.178,24.375,14.917c0,0-6.5-1.917-9.196,0
			c0,0,17.159,12.447,24.896,2.438c0,0,1.364,8.417-10.628,10.79c0,0,11.44,1.917,15.242,7.637c0,0-11.114,1.463-18.688,4.518
			c-7.571,3.055,1.625,5.785,12.448,4.68c0,0-0.521,5.427-15.698,7.605c0,0-0.585,3.705,7.703,5.59
			c1.724,0.39,3.803,0.715,6.37,0.91c0,0-23.043,18.232-55.152-1.073c0-0.032-0.032-0.032-0.032-0.032"/>
		<path fill="none" stroke="#231F20" stroke-width="2.4375" stroke-miterlimit="10" d="M222.962,155.812
			c-9.522-2.86-6.987-7.183-6.987-7.183c33.572-6.598,41.243-0.552,41.243-0.552c9.814,2.6,2.632-4.745,2.632-4.745
			c-23.821-11.928-52.552,4.745-52.552,4.745c-7.572-22.88,21.678-23.725,21.678-23.725c0.357-5.038,2.016-9.067,4.062-12.155"/>
		<path fill="none" stroke="#231F20" stroke-width="2.4375" stroke-miterlimit="10" d="M257.25,159.583c0,0-0.032,0-0.065-0.033
			c-9.651-6.467-29.835-2.697-29.835-2.697c-1.689-0.292-3.12-0.65-4.354-1.04"/>
		<path fill="none" stroke="#231F20" stroke-width="2.4375" stroke-miterlimit="10" d="M295.599,183.404
			c0,12.513-38.35,17.062-38.35,17.062c-18.915,0-32.078-15.438-32.078-15.438c3.803-17.322,13.553-14.625,13.553-14.625
			c0.91-3.445,2.405-5.882,4.192-7.572c5.428-5.167,13.39-3.478,14.268-3.283"/>
		<path fill="none" stroke="#231F20" stroke-width="2.4375" stroke-miterlimit="10" d="M242.917,162.833
			c-14.462-2.178-23.692,6.337-23.692,6.337c-14.853,0-20.41,11.375-22.066,23.627c-1.95,14.235,1.333,29.607,1.333,29.607
			c15.47,104.39,58.728,107.251,58.728,107.251c37.992,0,62.595-109.266,62.595-109.266c-19.435-9.75-5.103-19.923-5.103-19.923
			c0-10.562-15.308-15.892-18.524-16.9c-0.162-0.032-0.261-0.065-0.357-0.098"/>
		<path fill="none" stroke="#231F20" stroke-width="2.4375" stroke-miterlimit="10" d="M251.335,122.956
			c0,0,8.775-14.268,20.021-3.607C281.235,128.674,261.053,119.444,251.335,122.956z"/>
		<path fill="none" stroke="#231F20" stroke-width="2.4375" stroke-miterlimit="10" d="M317.928,158.672
			c0,0,10.497,1.593,21.32-23.205"/>
		<path fill="none" stroke="#231F20" stroke-width="2.4375" stroke-miterlimit="10" d="M181.135,86.489
			c0,0,0.748,37.375,51.902,25.708h0.033"/>
		<path fill="none" stroke="#231F20" stroke-width="2.4375" stroke-miterlimit="10" d="M286.24,98.646c0,0,14.3-27.95,35.555-18.785
			c0.032,0,0.032,0.033,0.065,0.033"/>
		<path fill="none" stroke="#231F20" stroke-width="2.4375" stroke-miterlimit="10" d="M172.783,144.016
			c0,0,6.825,31.362,50.18,11.797h0.033"/>
		<path fill="none" stroke="#231F20" stroke-width="2.4375" stroke-miterlimit="10" d="M197.158,192.797
			c0,0-3.445,12.188-6.729,31.038c-7.118,40.397-13.649,111.475,15.405,158.924"/>
		<polygon fill="none" stroke="#231F20" stroke-width="2.4375" stroke-miterlimit="10" points="272.979,235.989 257.218,245.089 
			241.422,235.989 241.422,217.757 257.218,208.657 272.979,217.757 		"/>
		<polygon fill="none" stroke="#FFFFFF" stroke-width="1.625" stroke-miterlimit="10" points="272.979,276.484 257.218,285.585 
			241.422,276.484 241.422,258.252 257.218,249.152 272.979,258.252 		"/>
		<polygon fill="none" stroke="#231F20" stroke-width="2.4375" stroke-miterlimit="10" points="267.487,273.299 257.218,279.214 
			246.948,273.299 246.948,261.438 257.218,255.522 267.487,261.438 		"/>
		<path fill="none" stroke="#231F20" stroke-width="2.4375" stroke-miterlimit="10" d="M295.599,183.404
			c0,0,0.065,0.033,0.229,0.065c0.098,0.033,0.194,0.065,0.357,0.098c4.811,1.333,38.676,10.27,43.062-1.788"/>
		<path fill="none" stroke="#231F20" stroke-width="2.4375" stroke-miterlimit="10" d="M319.812,220.391
			c0,0-1.593,16.835-1.396,37.375c0.26,28.762,4.062,64.771,20.833,71.891"/>
		<path fill="none" stroke="#231F20" stroke-width="2.4375" stroke-miterlimit="10" d="M257.218,345.092
			c0,0-59.442-6.045-66.788-121.257"/>
		
			<line fill="none" stroke="#231F20" stroke-width="2.4375" stroke-miterlimit="10" x1="160.107" y1="98.646" x2="160.107" y2="416.268"/>
		
			<line fill="none" stroke="#231F20" stroke-width="2.4375" stroke-miterlimit="10" x1="352.638" y1="97.669" x2="352.638" y2="414.967"/>
		<path fill="none" stroke="#231F20" stroke-width="2.4375" stroke-miterlimit="10" d="M273.37,466.934
			c-3.835,6.826-9.101,13.848-16.12,20.865c0,0-7.703-6.824-14.625-18.33c-4.519-7.441-8.677-16.898-10.237-27.656
			c-0.39-2.826-0.618-5.754-0.618-8.742c0-8.709,1.886-18.104,6.631-27.918c4.029-8.32,10.107-16.934,18.85-25.676
			c0,0,8.678,8.225,15.729,21.613c4.875,9.197,8.971,20.832,8.971,33.93c0,2.242-0.13,4.484-0.391,6.793
			c-0.878,7.994-3.381,16.412-8.189,25.09"/>
		
			<line fill="none" stroke="#231F20" stroke-width="2.4375" stroke-miterlimit="10" x1="273.37" y1="466.902" x2="273.37" y2="466.934"/>
		
			<line fill="none" stroke="#231F20" stroke-width="2.4375" stroke-miterlimit="10" x1="38.785" y1="200.826" x2="132.125" y2="200.826"/>
		
			<line fill="none" stroke="#231F20" stroke-width="2.4375" stroke-miterlimit="10" x1="382.375" y1="200.826" x2="475.617" y2="200.826"/>
		
			<line fill="none" stroke="#231F20" stroke-width="2.4375" stroke-miterlimit="10" x1="38.785" y1="368.656" x2="132.125" y2="368.656"/>
		
			<line fill="none" stroke="#231F20" stroke-width="2.4375" stroke-miterlimit="10" x1="475.617" y1="368.656" x2="382.375" y2="368.656"/>
		<polyline fill="none" stroke="#231F20" stroke-width="2.4375" stroke-miterlimit="10" points="225.075,528.457 225.075,433.07 
			225.075,368.656 225.107,368.656 289.392,368.656 289.392,435.02 289.392,528.424 		"/>
		<polygon fill="none" stroke="#231F20" stroke-width="2.4375" stroke-miterlimit="10" points="39.077,345.092 132.125,345.092 
			132.385,345.092 132.125,344.768 85.747,284.48 39.077,223.835 132.125,223.835 132.385,223.835 132.125,224.161 85.747,284.48 		
			"/>
		<polygon fill="none" stroke="#231F20" stroke-width="2.4375" stroke-miterlimit="10" points="475.617,344.768 475.878,345.092 
			475.617,345.092 382.668,345.092 429.271,284.48 475.617,224.161 475.878,223.835 475.617,223.835 382.668,223.835 
			429.271,284.48 		"/>
	</g>
</g>
</svg>
