<?xml version="1.0" encoding="utf-8"?>
<!-- Generator: Adobe Illustrator 15.0.2, SVG Export Plug-In . SVG Version: 6.00 Build 0)  -->
<!DOCTYPE svg PUBLIC "-//W3C//DTD SVG 1.1//EN" "http://www.w3.org/Graphics/SVG/1.1/DTD/svg11.dtd">
<svg version="1.1" id="Layer_1" xmlns="http://www.w3.org/2000/svg" xmlns:xlink="http://www.w3.org/1999/xlink" x="0px" y="0px"
	 width="510.5px" height="589.5px" viewBox="0 0 510.5 589.5" enable-background="new 0 0 510.5 589.5" xml:space="preserve">
<g id="XMLID_1_">
	<g>
		<path fill="#FFFFFF" d="M255.234,231.115c14.17,0,25.609,11.472,25.609,25.61c0,14.138-11.439,25.61-25.609,25.61
			c-14.138,0-25.578-11.472-25.578-25.61C229.656,242.587,241.097,231.115,255.234,231.115z"/>
		<path fill="#231F20" d="M505.418,150.353V439.18L255.233,584.129L5.082,439.18V150.353L255.234,5.371L505.418,150.353z
			 M491.606,430.633V161.24l-236.372-135.2l-236.34,135.2v269.393l236.34,135.168L491.606,430.633z"/>
		<path fill="#00ADEE" d="M491.606,161.24v269.393L255.234,565.799L18.894,430.633V161.24l236.34-135.2L491.606,161.24z
			 M473.602,420.883v-252.2L255.363,42.647c-0.098-0.065-0.13-0.097-0.13-0.097H255.2c0,0-0.032,0.032-0.13,0.097L36.802,168.683
			v252.2l56.354,32.531l33.312,19.24l27.396,15.826l36.985,21.354v0.033l31.428,18.135l32.922,19.014l32.955-19.047l31.429-18.135
			l37.05-21.385l27.301-15.795l33.377-19.24v-0.031L473.602,420.883z"/>
		<path fill="#160D47" d="M473.602,168.683v252.2l-56.29,32.5c0-275.633-157.04-406.706-161.947-410.735L473.602,168.683z
			 M457.319,367.713c0-7.605-6.143-13.781-13.748-13.781c-7.604,0-13.747,6.176-13.747,13.781c0,7.572,6.144,13.746,13.747,13.746
			C451.177,381.461,457.319,375.285,457.319,367.713z M452.833,257.246c0-5.135-4.16-9.263-9.263-9.263s-9.229,4.128-9.229,9.263
			c0,5.103,4.128,9.23,9.229,9.23S452.833,262.347,452.833,257.246z M428.166,216.197l15.404-10.4l-17.257-7.15l-8.678-29.282
			l-5.98,29.282l-20.637,6.435l17.906,11.115l10.985,32.337L428.166,216.197z M397.779,145.868c0-7.605-6.143-13.748-13.748-13.748
			c-7.604,0-13.747,6.143-13.747,13.748c0,7.604,6.144,13.748,13.747,13.748C391.637,159.615,397.779,153.472,397.779,145.868z"/>
		<path fill="#70CAD1" d="M443.57,353.932c7.605,0,13.748,6.176,13.748,13.781c0,7.572-6.144,13.746-13.748,13.746
			s-13.747-6.174-13.747-13.746C429.823,360.107,435.966,353.932,443.57,353.932z"/>
		<path fill="#EC1C24" d="M443.57,247.982c5.103,0,9.263,4.128,9.263,9.263c0,5.103-4.16,9.23-9.263,9.23s-9.229-4.127-9.229-9.23
			C434.341,252.11,438.469,247.982,443.57,247.982z"/>
		<polygon fill="#FFF47C" points="443.57,205.797 428.166,216.197 419.911,248.536 408.927,216.197 391.02,205.083 411.655,198.647 
			417.637,169.365 426.314,198.647 		"/>
		<path fill="#00A551" d="M384.03,132.121c7.605,0,13.748,6.143,13.748,13.748c0,7.605-6.143,13.748-13.748,13.748
			c-7.604,0-13.747-6.143-13.747-13.748C370.283,138.263,376.427,132.121,384.03,132.121z"/>
		<path fill="#58595B" d="M384.03,445.939L313.019,294.75c3.77-8.125,5.882-17.192,5.882-26.715
			c0-24.375-13.715-45.533-33.832-56.257L255.234,98.061C255.234,98.061,384.03,209.828,384.03,445.939z"/>
		<path fill="#D0D2D3" d="M313.02,294.75l71.012,151.189c0,0-11.406-14.656-27.396-32.076c-9.652-10.529-20.995-22.035-32.5-31.916
			c-6.272-5.361-12.577-10.236-18.688-14.234c-0.032-0.033-0.063-0.033-0.063-0.033c-4.55-2.988-8.971-5.459-13.195-7.215
			c-20.832-8.938-36.952-1.949-36.952,40.982c0-42.965-16.152-49.92-37.018-40.982v0.033c-4.226,1.787-8.646,4.258-13.163,7.182
			c0,0-0.033,0.033-0.098,0.066c-6.272,4.127-12.74,9.164-19.144,14.689c-11.342,9.781-22.458,21.092-31.947,31.428
			c-15.989,17.42-27.396,32.076-27.396,32.076l70.947-151.157c10.074,21.808,32.175,36.954,57.784,36.954
			C280.844,331.736,302.944,316.59,313.02,294.75z"/>
		<path fill="#262261" d="M384.03,445.939l-0.097,26.717l-27.301,15.795v-74.588C372.623,431.283,384.03,445.939,384.03,445.939z"/>
		<path fill="#6FB4E3" d="M356.634,413.863v74.588l-37.05,21.385v-62.66c5.135-10.953,6.662-18.654,6.662-18.654l15.567,13.684
			c15.957-28.113-12.253-54.764-18.07-59.834l0.391-0.422C335.639,391.828,346.981,403.334,356.634,413.863z"/>
		<path fill="#EC1C24" d="M323.743,382.371c5.817,5.068,34.027,31.719,18.07,59.832l-15.567-13.684c0,0-1.527,7.703-6.662,18.654
			c-3.867,8.256-9.782,18.33-18.655,28.373c0,0-5.524,5.752-12.772,12.936c-12.283,12.221-29.478,28.633-32.955,28.373
			c-3.444,0.26-20.638-16.152-32.922-28.373c-7.248-7.184-12.771-12.936-12.771-12.936c-8.873-10.043-14.788-20.117-18.655-28.373
			c-5.135-10.951-6.663-18.654-6.663-18.654l-15.566,13.684c-15.503-27.332,10.691-53.268,17.55-59.377l-0.358-0.391
			c6.403-5.525,12.87-10.562,19.144-14.689c-1.527,1.43-26.91,25.219-14.105,50.439l11.57-11.375c0,0,3.51,19.729,18.816,39.131
			c0,0,29.867,34.709,33.962,34.352c4.096,0.357,33.995-34.352,33.995-34.352c15.309-19.402,18.785-39.131,18.785-39.131
			l11.57,11.375c12.87-25.352-12.805-49.271-14.105-50.473c6.11,3.996,12.415,8.871,18.688,14.234L323.743,382.371z"/>
		<path fill="#F6921E" d="M305.445,367.713c1.301,1.201,26.977,25.121,14.105,50.473l-11.57-11.375c0,0-3.478,19.729-18.785,39.129
			c0,0-29.898,34.711-33.995,34.354c-4.095,0.357-33.962-34.354-33.962-34.354c-15.308-19.4-18.816-39.129-18.816-39.129
			l-11.57,11.375c-12.805-25.221,12.578-49.012,14.105-50.439c0.064-0.033,0.098-0.066,0.098-0.066s16.802,60.484,50.146,78.262
			c33.346-17.777,50.181-78.262,50.181-78.262S305.413,367.68,305.445,367.713z"/>
		<path fill="#FFFFFF" d="M319.584,447.174v62.66l-31.429,18.135v-39.486c7.248-7.184,12.772-12.936,12.772-12.936
			C309.802,465.504,315.717,455.43,319.584,447.174z"/>
		<path fill="#83004C" d="M318.901,268.036c0,9.522-2.112,18.59-5.882,26.715c-10.075,21.839-32.176,36.986-57.818,36.986
			c-25.609,0-47.71-15.146-57.784-36.954c-3.771-8.125-5.883-17.192-5.883-26.748c0-24.375,13.716-45.565,33.833-56.257
			c8.905-4.745,19.045-7.41,29.835-7.41s20.962,2.697,29.868,7.41C305.187,222.502,318.901,243.661,318.901,268.036z
			 M306.877,268.036c0-28.535-23.142-51.675-51.676-51.675s-51.675,23.14-51.675,51.675c0,28.535,23.141,51.675,51.675,51.675
			C283.736,319.711,306.877,296.57,306.877,268.036z"/>
		<path fill="#929497" d="M305.382,367.68c0,0-16.835,60.482-50.181,78.26l0.033-32.076c23.562-0.064,36.952-53.398,36.952-53.398
			C296.411,362.219,300.831,364.689,305.382,367.68z"/>
		<path fill="#292117" d="M255.201,216.36c28.535,0,51.676,23.14,51.676,51.675c0,28.535-23.142,51.675-51.676,51.675
			s-51.675-23.141-51.675-51.675C203.526,239.5,226.667,216.36,255.201,216.36z M280.844,256.726
			c0-14.138-11.439-25.61-25.609-25.61c-14.138,0-25.578,11.472-25.578,25.61c0,14.138,11.44,25.61,25.578,25.61
			C269.404,282.335,280.844,270.862,280.844,256.726z"/>
		<path fill="#0082C9" d="M288.155,488.482v39.486L255.2,547.016l-32.922-19.014V488.48c12.285,12.223,29.479,28.635,32.922,28.373
			C258.679,517.115,275.871,500.703,288.155,488.482z"/>
		<polygon fill="#F9EC31" points="255.234,98.061 285.069,211.777 255.201,129.228 225.366,211.777 		"/>
		<path fill="#D0D2D3" d="M255.201,129.228l29.868,82.55c-8.905-4.713-19.078-7.41-29.868-7.41s-20.93,2.665-29.835,7.41
			L255.201,129.228z"/>
		<path fill="#404041" d="M292.187,360.465c0,0-13.39,53.332-36.952,53.396v-12.414
			C255.234,358.516,271.354,351.527,292.187,360.465z"/>
		<path fill="#58595B" d="M255.234,98.061l-29.868,113.718c-20.117,10.692-33.833,31.882-33.833,56.257
			c0,9.555,2.112,18.623,5.883,26.748l-70.947,151.158C126.469,209.828,255.234,98.061,255.234,98.061z"/>
		<path fill="#404041" d="M255.234,401.447v12.416h-0.033c-23.236,0-36.595-51.807-36.984-53.365v-0.033
			C239.081,351.527,255.234,358.482,255.234,401.447z"/>
		<path fill="#FFFFFF" d="M255.234,42.55c0,0,0.032,0.032,0.13,0.097c4.907,4.03,161.947,135.103,161.947,410.735v0.031
			l-33.377,19.24l0.097-26.715c0-236.113-128.797-347.88-128.797-347.88S126.47,209.828,126.47,445.939v26.715l-33.312-19.24
			c0-275.632,157.008-406.737,161.915-410.768c0.098-0.065,0.13-0.097,0.13-0.097L255.234,42.55L255.234,42.55z"/>
		<path fill="#929497" d="M255.201,413.863h0.033l-0.033,32.076c-33.345-17.775-50.146-78.26-50.146-78.26
			c4.518-2.926,8.938-5.395,13.163-7.182C218.606,362.057,231.965,413.863,255.201,413.863z"/>
		<path fill="#160D47" d="M36.802,168.683l218.27-126.035c-4.908,4.03-161.915,135.135-161.915,410.769l-56.354-32.533V168.683z
			 M144.962,138.49c0-5.103-4.16-9.263-9.263-9.263c-5.102,0-9.229,4.16-9.229,9.263s4.127,9.23,9.229,9.23
			C140.803,147.72,144.962,143.592,144.962,138.49z M94.229,216.197l17.908-11.115l-20.638-6.435l-5.98-29.282l-8.677,29.282
			l-17.258,7.15l15.404,10.4l8.255,32.337L94.229,216.197z M101.281,295.855c0-7.605-6.175-13.748-13.748-13.748
			c-7.604,0-13.779,6.143-13.779,13.748c0,7.605,6.175,13.748,13.779,13.748C95.106,309.602,101.281,303.461,101.281,295.855z
			 M73.332,408.078c0-5.104-4.128-9.264-9.23-9.264c-5.135,0-9.262,4.16-9.262,9.264c0,5.102,4.127,9.229,9.262,9.229
			C69.203,417.307,73.332,413.18,73.332,408.078z"/>
		<path fill="#FFFFFF" d="M222.279,488.482v39.521l-31.428-18.137v-0.031v-62.66c3.868,8.254,9.783,18.33,18.655,28.373
			C209.507,475.547,215.031,481.299,222.279,488.482z"/>
		<path fill="#6FB4E3" d="M190.852,447.174v62.66l-36.985-21.354v-74.619c9.49-10.334,20.605-21.645,31.947-31.428l0.358,0.391
			c-6.858,6.109-33.054,32.045-17.551,59.379l15.567-13.684C184.188,428.52,185.717,436.223,190.852,447.174z"/>
		<path fill="#262261" d="M153.866,413.863v74.619l-27.396-15.826v-26.717C126.469,445.939,137.877,431.283,153.866,413.863z"/>
		<path fill="#D91C5C" d="M135.698,129.228c5.104,0,9.263,4.16,9.263,9.263s-4.16,9.23-9.263,9.23c-5.102,0-9.229-4.127-9.229-9.23
			S130.597,129.228,135.698,129.228z"/>
		<polygon fill="#FFF47C" points="112.137,205.083 94.229,216.197 83.243,248.536 74.988,216.197 59.584,205.797 76.842,198.647 
			85.519,169.365 91.499,198.647 		"/>
		<path fill="#5B74B7" d="M87.533,282.107c7.572,0,13.748,6.143,13.748,13.748c0,7.605-6.175,13.748-13.748,13.748
			c-7.604,0-13.779-6.143-13.779-13.748C73.754,288.25,79.929,282.107,87.533,282.107z"/>
		<path fill="#F16322" d="M64.102,398.814c5.103,0,9.229,4.16,9.229,9.264c0,5.102-4.127,9.229-9.229,9.229
			c-5.135,0-9.262-4.127-9.262-9.229C54.84,402.975,58.967,398.814,64.102,398.814z"/>
	</g>
	<g>
		<path fill="none" stroke="#231F20" stroke-width="2.4375" stroke-miterlimit="10" d="M280.844,256.726
			c0,14.138-11.439,25.61-25.609,25.61c-14.138,0-25.578-11.472-25.578-25.61c0-14.138,11.44-25.61,25.578-25.61
			C269.404,231.115,280.844,242.587,280.844,256.726z"/>
		<polygon fill="none" stroke="#231F20" stroke-width="2.4375" stroke-miterlimit="10" points="505.418,439.18 255.234,584.129 
			5.082,439.18 5.082,150.353 255.234,5.371 505.418,150.353 		"/>
		
			<line fill="none" stroke="#231F20" stroke-width="2.4375" stroke-miterlimit="10" x1="255.201" y1="42.55" x2="255.234" y2="42.55"/>
		<polyline fill="none" stroke="#231F20" stroke-width="2.4375" stroke-miterlimit="10" points="190.852,509.836 153.866,488.482 
			126.469,472.656 93.156,453.416 36.802,420.883 36.802,168.683 255.071,42.647 		"/>
		<polyline fill="none" stroke="#231F20" stroke-width="2.4375" stroke-miterlimit="10" points="417.312,453.416 383.935,472.656 
			356.634,488.451 319.584,509.836 288.155,527.969 255.201,547.016 222.279,528.004 190.852,509.867 		"/>
		<polyline fill="none" stroke="#231F20" stroke-width="2.4375" stroke-miterlimit="10" points="255.363,42.647 473.602,168.683 
			473.602,420.883 417.312,453.383 		"/>
		<path fill="none" stroke="#231F20" stroke-width="1.625" stroke-miterlimit="10" d="M218.217,360.465
			c20.865-8.938,37.018-1.982,37.018,40.982"/>
		<path fill="none" stroke="#231F20" stroke-width="2.4375" stroke-miterlimit="10" d="M205.054,367.68
			c4.518-2.926,8.938-5.395,13.163-7.182"/>
		<path fill="none" stroke="#231F20" stroke-width="2.4375" stroke-miterlimit="10" d="M255.234,98.061
			c0,0-128.765,111.768-128.765,347.879c0,0,11.407-14.656,27.396-32.076c9.49-10.336,20.605-21.646,31.947-31.428
			c6.403-5.525,12.87-10.562,19.144-14.689"/>
		<path fill="none" stroke="#231F20" stroke-width="2.4375" stroke-miterlimit="10" d="M255.201,445.939
			c-33.345-17.775-50.146-78.26-50.146-78.26s-0.033,0.033-0.099,0.064c-1.526,1.43-26.909,25.221-14.104,50.439l11.57-11.375
			c0,0,3.51,19.729,18.816,39.131c0,0,29.867,34.711,33.962,34.354"/>
		<path fill="none" stroke="#231F20" stroke-width="2.4375" stroke-miterlimit="10" d="M305.445,367.713
			c1.301,1.201,26.977,25.121,14.105,50.473l-11.57-11.375c0,0-3.478,19.729-18.785,39.129c0,0-29.898,34.711-33.995,34.354"/>
		<path fill="none" stroke="#231F20" stroke-width="2.4375" stroke-miterlimit="10" d="M187.731,381.492c0,0-0.585,0.455-1.56,1.334
			c-6.858,6.109-33.054,32.045-17.551,59.377l15.567-13.684c0,0,1.528,7.703,6.663,18.654c3.868,8.256,9.783,18.33,18.655,28.373
			c0,0,5.524,5.752,12.771,12.936c12.285,12.221,29.479,28.633,32.922,28.373"/>
		<path fill="none" stroke="#231F20" stroke-width="2.4375" stroke-miterlimit="10" d="M322.703,381.492c0,0,0.391,0.293,1.04,0.879
			c5.817,5.068,34.027,31.719,18.07,59.832l-15.567-13.684c0,0-1.527,7.703-6.662,18.654c-3.867,8.256-9.782,18.33-18.655,28.373
			c0,0-5.524,5.752-12.772,12.936c-12.283,12.221-29.478,28.633-32.955,28.373"/>
		<path fill="none" stroke="#231F20" stroke-width="2.4375" stroke-miterlimit="10" d="M255.201,42.55c0,0-0.032,0.032-0.13,0.097
			c-4.908,4.03-161.915,135.135-161.915,410.769"/>
		<path fill="none" stroke="#231F20" stroke-width="2.4375" stroke-miterlimit="10" d="M255.234,42.55c0,0,0.032,0.032,0.13,0.097
			c4.907,4.03,161.947,135.103,161.947,410.735v0.031"/>
		<polygon fill="none" stroke="#231F20" stroke-width="2.4375" stroke-miterlimit="10" points="85.519,169.365 76.842,198.647 
			59.584,205.797 74.988,216.197 83.243,248.536 94.229,216.197 112.137,205.083 91.499,198.647 		"/>
		<polygon fill="none" stroke="#231F20" stroke-width="2.4375" stroke-miterlimit="10" points="417.637,169.365 426.314,198.647 
			443.57,205.797 428.166,216.197 419.911,248.536 408.927,216.197 391.02,205.083 411.655,198.647 		"/>
		<path fill="none" stroke="#231F20" stroke-width="2.4375" stroke-miterlimit="10" d="M285.069,211.777
			c20.117,10.725,33.832,31.882,33.832,56.257c0,9.522-2.112,18.59-5.882,26.715c-10.075,21.84-32.176,36.985-57.818,36.985
			c-25.609,0-47.71-15.146-57.784-36.953c-3.771-8.125-5.883-17.192-5.883-26.748c0-24.375,13.716-45.565,33.833-56.257
			c8.905-4.745,19.045-7.41,29.835-7.41C265.99,204.368,276.163,207.065,285.069,211.777z"/>
		<path fill="none" stroke="#231F20" stroke-width="2.4375" stroke-miterlimit="10" d="M306.877,268.036
			c0,28.535-23.142,51.675-51.676,51.675s-51.675-23.141-51.675-51.675c0-28.535,23.141-51.675,51.675-51.675
			C283.736,216.36,306.877,239.5,306.877,268.036z"/>
		<path fill="none" stroke="#231F20" stroke-width="2.4375" stroke-miterlimit="10" d="M305.382,367.68
			c0,0-16.835,60.482-50.181,78.26l0.033-32.076v-12.416c0-42.932,16.12-49.92,36.952-40.982
			C296.411,362.219,300.831,364.689,305.382,367.68c0,0,0.031,0,0.063,0.033c6.11,3.996,12.415,8.871,18.688,14.234
			c11.505,9.881,22.848,21.385,32.5,31.914c15.989,17.42,27.396,32.078,27.396,32.078c0-236.113-128.797-347.88-128.797-347.88
			l-29.868,113.718l29.835-82.55l29.868,82.55L255.234,98.061"/>
		<polyline fill="none" stroke="#231F20" stroke-width="2.4375" stroke-miterlimit="10" points="197.417,294.782 126.469,445.939 
			126.469,472.656 		"/>
		<polyline fill="none" stroke="#231F20" stroke-width="2.4375" stroke-miterlimit="10" points="313.02,294.75 384.03,445.939 
			383.935,472.656 		"/>
		<path fill="none" stroke="#231F20" stroke-width="2.4375" stroke-miterlimit="10" d="M101.281,295.855
			c0,7.605-6.175,13.748-13.748,13.748c-7.604,0-13.779-6.143-13.779-13.748c0-7.605,6.175-13.748,13.779-13.748
			C95.106,282.107,101.281,288.25,101.281,295.855z"/>
		<path fill="none" stroke="#231F20" stroke-width="2.4375" stroke-miterlimit="10" d="M397.779,145.868
			c0,7.604-6.143,13.748-13.748,13.748c-7.604,0-13.747-6.143-13.747-13.748c0-7.605,6.144-13.748,13.747-13.748
			C391.637,132.121,397.779,138.262,397.779,145.868z"/>
		<path fill="none" stroke="#231F20" stroke-width="2.4375" stroke-miterlimit="10" d="M457.319,367.713
			c0,7.572-6.143,13.746-13.748,13.746c-7.604,0-13.747-6.174-13.747-13.746c0-7.605,6.144-13.781,13.747-13.781
			C451.177,353.932,457.319,360.107,457.319,367.713z"/>
		<path fill="none" stroke="#231F20" stroke-width="2.4375" stroke-miterlimit="10" d="M73.332,408.078
			c0,5.102-4.128,9.229-9.23,9.229c-5.135,0-9.262-4.127-9.262-9.229c0-5.104,4.127-9.264,9.262-9.264
			C69.203,398.814,73.332,402.975,73.332,408.078z"/>
		<path fill="none" stroke="#231F20" stroke-width="2.4375" stroke-miterlimit="10" d="M452.833,257.246
			c0,5.103-4.16,9.23-9.263,9.23s-9.229-4.127-9.229-9.23c0-5.135,4.128-9.263,9.229-9.263S452.833,252.11,452.833,257.246z"/>
		<path fill="none" stroke="#231F20" stroke-width="2.4375" stroke-miterlimit="10" d="M144.962,138.49
			c0,5.103-4.16,9.23-9.263,9.23c-5.102,0-9.229-4.127-9.229-9.23s4.127-9.263,9.229-9.263
			C140.803,129.228,144.962,133.387,144.962,138.49z"/>
		<path fill="none" stroke="#231F20" stroke-width="1.625" stroke-miterlimit="10" d="M218.217,360.465v0.033
			c0.39,1.559,13.748,53.363,36.984,53.363"/>
		<path fill="none" stroke="#231F20" stroke-width="1.625" stroke-miterlimit="10" d="M292.187,360.465
			c0,0-13.39,53.332-36.952,53.396h-0.033"/>
		<polygon fill="none" stroke="#231F20" stroke-width="1.625" stroke-linecap="round" stroke-linejoin="round" points="
			491.606,430.633 255.234,565.799 18.894,430.633 18.894,161.24 255.234,26.041 491.606,161.24 		"/>
		
			<line fill="none" stroke="#231F20" stroke-width="2.4375" stroke-miterlimit="10" x1="153.866" y1="413.863" x2="153.866" y2="488.482"/>
		<polyline fill="none" stroke="#231F20" stroke-width="2.4375" stroke-miterlimit="10" points="190.852,447.174 190.852,509.836 
			190.852,509.867 		"/>
		
			<line fill="none" stroke="#231F20" stroke-width="2.4375" stroke-miterlimit="10" x1="222.279" y1="488.482" x2="222.279" y2="528.004"/>
		
			<line fill="none" stroke="#231F20" stroke-width="2.4375" stroke-miterlimit="10" x1="288.155" y1="488.482" x2="288.155" y2="527.969"/>
		
			<line fill="none" stroke="#231F20" stroke-width="2.4375" stroke-miterlimit="10" x1="319.584" y1="447.174" x2="319.584" y2="509.836"/>
		
			<line fill="none" stroke="#231F20" stroke-width="2.4375" stroke-miterlimit="10" x1="356.634" y1="413.863" x2="356.634" y2="488.451"/>
	</g>
</g>
</svg>
