<?xml version="1.0" encoding="utf-8"?>
<!-- Generator: Adobe Illustrator 15.0.2, SVG Export Plug-In  -->
<!DOCTYPE svg PUBLIC "-//W3C//DTD SVG 1.1//EN" "http://www.w3.org/Graphics/SVG/1.1/DTD/svg11.dtd" [
	<!ENTITY ns_flows "http://ns.adobe.com/Flows/1.0/">
]>
<svg version="1.1"
	 xmlns="http://www.w3.org/2000/svg" xmlns:xlink="http://www.w3.org/1999/xlink" xmlns:a="http://ns.adobe.com/AdobeSVGViewerExtensions/3.0/"
	 x="0px" y="0px" width="538px" height="543px" viewBox="-7.393 -8.079 538 543"
	 overflow="visible" enable-background="new -7.393 -8.079 538 543" xml:space="preserve">
<defs>
</defs>
<path fill="none" stroke="#231F20" stroke-linecap="round" stroke-linejoin="round" d="M163.227,332.932c0,6.63-5.37,12-12,12
	H13.247c-6.63,0-12-5.37-12-12v-137.97c0-6.63,5.37-12,12-12h137.98c6.63,0,12,5.37,12,12V332.932z"/>
<line fill="none" stroke="#231F20" stroke-linecap="round" stroke-linejoin="round" x1="4.287" y1="186.162" x2="160.267" y2="341.873"/>
<line fill="none" stroke="#231F20" stroke-linecap="round" stroke-linejoin="round" x1="4.407" y1="341.672" x2="159.927" y2="186.142"/>
<rect x="33.027" y="215.142" fill="none" stroke="#231F20" stroke-linecap="round" stroke-linejoin="round" width="98.43" height="97.03"/>
<line fill="none" stroke="#231F20" stroke-linecap="round" stroke-linejoin="round" x1="1.247" y1="264.222" x2="163.227" y2="264.222"/>
<line fill="none" stroke="#231F20" stroke-linecap="round" stroke-linejoin="round" x1="82.277" y1="183.192" x2="82.277" y2="344.932"/>
<line fill="none" stroke="#231F20" stroke-linecap="round" stroke-linejoin="round" x1="33.077" y1="264.902" x2="82.227" y2="312.192"/>
<line fill="none" stroke="#231F20" stroke-linecap="round" stroke-linejoin="round" x1="82.167" y1="312.172" x2="131.457" y2="264.882"/>
<line fill="none" stroke="#231F20" stroke-linecap="round" stroke-linejoin="round" x1="131.457" y1="264.882" x2="82.237" y2="215.142"/>
<line fill="none" stroke="#231F20" stroke-linecap="round" stroke-linejoin="round" x1="82.237" y1="215.142" x2="33.027" y2="264.882"/>
<line fill="none" stroke="#231F20" stroke-linecap="round" stroke-linejoin="round" x1="57.547" y1="288.532" x2="57.547" y2="312.172"/>
<line fill="none" stroke="#231F20" stroke-linecap="round" stroke-linejoin="round" x1="106.847" y1="288.542" x2="106.847" y2="312.172"/>
<line fill="none" stroke="#231F20" stroke-linecap="round" stroke-linejoin="round" x1="106.847" y1="288.542" x2="131.457" y2="288.542"/>
<line fill="none" stroke="#231F20" stroke-linecap="round" stroke-linejoin="round" x1="106.877" y1="240.042" x2="131.457" y2="240.042"/>
<line fill="none" stroke="#231F20" stroke-linecap="round" stroke-linejoin="round" x1="106.877" y1="240.042" x2="106.877" y2="215.142"/>
<line fill="none" stroke="#231F20" stroke-linecap="round" stroke-linejoin="round" x1="57.627" y1="215.142" x2="57.627" y2="239.332"/>
<line fill="none" stroke="#231F20" stroke-linecap="round" stroke-linejoin="round" x1="33.027" y1="239.142" x2="57.627" y2="239.142"/>
<line fill="none" stroke="#231F20" stroke-linecap="round" stroke-linejoin="round" x1="33.027" y1="215.142" x2="1.247" y2="264.222"/>
<line fill="none" stroke="#231F20" stroke-linecap="round" stroke-linejoin="round" x1="1.247" y1="264.222" x2="33.027" y2="312.172"/>
<line fill="none" stroke="#231F20" stroke-linecap="round" stroke-linejoin="round" x1="33.027" y1="215.142" x2="82.277" y2="183.192"/>
<line fill="none" stroke="#231F20" stroke-linecap="round" stroke-linejoin="round" x1="82.277" y1="183.192" x2="131.457" y2="215.142"/>
<line fill="none" stroke="#231F20" stroke-linecap="round" stroke-linejoin="round" x1="131.457" y1="215.142" x2="163.227" y2="264.222"/>
<line fill="none" stroke="#231F20" stroke-linecap="round" stroke-linejoin="round" x1="163.227" y1="264.222" x2="131.457" y2="312.172"/>
<line fill="none" stroke="#231F20" stroke-linecap="round" stroke-linejoin="round" x1="131.457" y1="312.172" x2="82.277" y2="344.932"/>
<line fill="none" stroke="#231F20" stroke-linecap="round" stroke-linejoin="round" x1="33.027" y1="312.172" x2="82.277" y2="344.932"/>
<line fill="none" stroke="#231F20" stroke-linecap="round" stroke-linejoin="round" x1="33.027" y1="288.542" x2="57.547" y2="288.542"/>
<line fill="none" stroke="#231F20" stroke-linecap="round" stroke-linejoin="round" x1="57.547" y1="264.222" x2="82.277" y2="240.142"/>
<line fill="none" stroke="#231F20" stroke-linecap="round" stroke-linejoin="round" x1="82.277" y1="240.142" x2="106.807" y2="263.652"/>
<line fill="none" stroke="#231F20" stroke-linecap="round" stroke-linejoin="round" x1="106.807" y1="263.652" x2="82.237" y2="288.542"/>
<line fill="none" stroke="#231F20" stroke-linecap="round" stroke-linejoin="round" x1="82.237" y1="288.542" x2="57.547" y2="264.222"/>
<line fill="none" stroke="#231F20" stroke-linecap="round" stroke-linejoin="round" x1="57.547" y1="312.172" x2="82.237" y2="288.542"/>
<line fill="none" stroke="#231F20" stroke-linecap="round" stroke-linejoin="round" x1="82.237" y1="288.542" x2="106.847" y2="312.172"/>
<line fill="none" stroke="#231F20" stroke-linecap="round" stroke-linejoin="round" x1="106.807" y1="263.652" x2="131.457" y2="288.542"/>
<line fill="none" stroke="#231F20" stroke-linecap="round" stroke-linejoin="round" x1="106.807" y1="263.652" x2="131.457" y2="240.042"/>
<line fill="none" stroke="#231F20" stroke-linecap="round" stroke-linejoin="round" x1="82.277" y1="240.142" x2="106.877" y2="215.142"/>
<line fill="none" stroke="#231F20" stroke-linecap="round" stroke-linejoin="round" x1="57.627" y1="215.142" x2="82.277" y2="240.142"/>
<line fill="none" stroke="#231F20" stroke-linecap="round" stroke-linejoin="round" x1="33.027" y1="239.142" x2="57.547" y2="264.222"/>
<line fill="none" stroke="#231F20" stroke-linecap="round" stroke-linejoin="round" x1="57.547" y1="264.222" x2="33.027" y2="288.542"/>
<polygon fill="none" stroke="#231F20" stroke-linecap="round" stroke-linejoin="round" points="341.654,82.56 261.264,163.41 
	180.874,82.56 261.264,1.7 "/>
<polygon fill="none" stroke="#231F20" stroke-linecap="round" stroke-linejoin="round" points="317.375,82.56 261.264,138.99 
	205.164,82.56 261.264,26.12 "/>
<polygon fill="none" stroke="#231F20" stroke-linecap="round" stroke-linejoin="round" points="303.754,82.56 261.264,125.29 
	218.784,82.56 261.264,39.819 "/>
<line fill="none" stroke="#231F20" stroke-linecap="round" stroke-linejoin="round" x1="341.654" y1="82.56" x2="180.874" y2="82.56"/>
<line fill="none" stroke="#231F20" stroke-linecap="round" stroke-linejoin="round" x1="261.264" y1="1.7" x2="261.264" y2="163.41"/>
<line fill="none" stroke="#231F20" stroke-linecap="round" stroke-linejoin="round" x1="288.904" y1="54.74" x2="232.804" y2="111.169"/>
<line fill="none" stroke="#231F20" stroke-linecap="round" stroke-linejoin="round" x1="233.624" y1="54.74" x2="289.734" y2="111.169"/>
<line fill="none" stroke="#231F20" stroke-linecap="round" stroke-linejoin="round" x1="233.624" y1="54.74" x2="261.264" y2="1.7"/>
<line fill="none" stroke="#231F20" stroke-linecap="round" stroke-linejoin="round" x1="233.624" y1="54.74" x2="180.874" y2="82.56"/>
<line fill="none" stroke="#231F20" stroke-linecap="round" stroke-linejoin="round" x1="288.904" y1="54.74" x2="261.264" y2="1.7"/>
<line fill="none" stroke="#231F20" stroke-linecap="round" stroke-linejoin="round" x1="288.904" y1="54.74" x2="341.654" y2="82.56"/>
<line fill="none" stroke="#231F20" stroke-linecap="round" stroke-linejoin="round" x1="180.874" y1="82.56" x2="232.804" y2="111.169"/>
<line fill="none" stroke="#231F20" stroke-linecap="round" stroke-linejoin="round" x1="232.804" y1="111.169" x2="261.264" y2="163.41"/>
<line fill="none" stroke="#231F20" stroke-linecap="round" stroke-linejoin="round" x1="289.734" y1="111.169" x2="261.674" y2="161.02"/>
<line fill="none" stroke="#231F20" stroke-linecap="round" stroke-linejoin="round" x1="289.734" y1="111.169" x2="341.654" y2="82.56"/>
<line fill="none" stroke="#231F20" stroke-linecap="round" stroke-linejoin="round" x1="288.904" y1="54.74" x2="301.455" y2="42.12"/>
<line fill="none" stroke="#231F20" stroke-linecap="round" stroke-linejoin="round" x1="289.734" y1="111.169" x2="301.464" y2="122.97"/>
<line fill="none" stroke="#231F20" stroke-linecap="round" stroke-linejoin="round" x1="233.624" y1="54.74" x2="221.244" y2="42.28"/>
<line fill="none" stroke="#231F20" stroke-linecap="round" stroke-linejoin="round" x1="232.804" y1="111.169" x2="221.064" y2="122.97"/>
<line fill="none" stroke="#231F20" stroke-linecap="round" stroke-linejoin="round" x1="221.064" y1="122.97" x2="204.584" y2="95.62"/>
<line fill="none" stroke="#231F20" stroke-linecap="round" stroke-linejoin="round" x1="221.064" y1="122.97" x2="247.964" y2="138.99"/>
<line fill="none" stroke="#231F20" stroke-linecap="round" stroke-linejoin="round" x1="274.074" y1="138.99" x2="301.464" y2="122.97"/>
<line fill="none" stroke="#231F20" stroke-linecap="round" stroke-linejoin="round" x1="301.464" y1="122.97" x2="317.375" y2="95.939"/>
<line fill="none" stroke="#231F20" stroke-linecap="round" stroke-linejoin="round" x1="301.455" y1="42.12" x2="274.414" y2="26.919"/>
<line fill="none" stroke="#231F20" stroke-linecap="round" stroke-linejoin="round" x1="301.455" y1="42.12" x2="317.375" y2="69.75"/>
<line fill="none" stroke="#231F20" stroke-linecap="round" stroke-linejoin="round" x1="221.244" y1="42.28" x2="248.534" y2="26.12"/>
<line fill="none" stroke="#231F20" stroke-linecap="round" stroke-linejoin="round" x1="221.244" y1="42.28" x2="206.844" y2="68.859"/>
<line fill="none" stroke="#231F20" stroke-linecap="round" stroke-linejoin="round" x1="240.034" y1="61.18" x2="240.034" y2="103.899"/>
<line fill="none" stroke="#231F20" stroke-linecap="round" stroke-linejoin="round" x1="240.034" y1="103.899" x2="282.504" y2="103.899"/>
<line fill="none" stroke="#231F20" stroke-linecap="round" stroke-linejoin="round" x1="282.164" y1="103.899" x2="282.164" y2="61.419"/>
<line fill="none" stroke="#231F20" stroke-linecap="round" stroke-linejoin="round" x1="282.164" y1="61.419" x2="240.034" y2="61.18"/>
<path fill="none" stroke="#231F20" stroke-linecap="round" stroke-linejoin="round" d="M342.064,154.479
	c0,5.17-4.16,9.36-9.289,9.36H190.584c-5.13,0-9.29-4.19-9.29-9.36V11.27c0-5.17,4.16-9.36,9.29-9.36h142.191
	c5.129,0,9.289,4.19,9.289,9.36V154.479z"/>
<line fill="none" stroke="#231F20" stroke-linecap="round" stroke-linejoin="round" x1="221.244" y1="42.28" x2="183.844" y2="4.879"/>
<line fill="none" stroke="#231F20" stroke-linecap="round" stroke-linejoin="round" x1="301.455" y1="42.12" x2="339.125" y2="4.45"/>
<line fill="none" stroke="#231F20" stroke-linecap="round" stroke-linejoin="round" x1="301.464" y1="122.97" x2="339.414" y2="161.02"/>
<line fill="none" stroke="#231F20" stroke-linecap="round" stroke-linejoin="round" x1="221.064" y1="122.97" x2="183.844" y2="161.43"/>
<line fill="none" stroke="#231F20" stroke-linecap="round" stroke-linejoin="round" x1="221.244" y1="42.28" x2="180.874" y2="42.28"/>
<line fill="none" stroke="#231F20" stroke-linecap="round" stroke-linejoin="round" x1="221.244" y1="42.28" x2="221.244" y2="1.7"/>
<line fill="none" stroke="#231F20" stroke-linecap="round" stroke-linejoin="round" x1="301.455" y1="42.12" x2="301.455" y2="1.7"/>
<line fill="none" stroke="#231F20" stroke-linecap="round" stroke-linejoin="round" x1="301.455" y1="42.12" x2="341.654" y2="42.28"/>
<line fill="none" stroke="#231F20" stroke-linecap="round" stroke-linejoin="round" x1="301.464" y1="122.97" x2="342.064" y2="122.97"/>
<line fill="none" stroke="#231F20" stroke-linecap="round" stroke-linejoin="round" x1="301.464" y1="122.97" x2="301.455" y2="163.41"/>
<line fill="none" stroke="#231F20" stroke-linecap="round" stroke-linejoin="round" x1="221.064" y1="122.97" x2="221.064" y2="163.41"/>
<line fill="none" stroke="#231F20" stroke-linecap="round" stroke-linejoin="round" x1="221.064" y1="122.97" x2="180.874" y2="122.97"/>
<path fill="none" stroke="#231F20" stroke-linecap="round" stroke-linejoin="round" d="M342.908,516.15
	c0,6.76-5.44,12.24-12.16,12.24h-138.57c-6.72,0-12.16-5.48-12.16-12.24V376.58c0-6.76,5.44-12.24,12.16-12.24h138.57
	c6.72,0,12.16,5.48,12.16,12.24V516.15z"/>
<polygon fill="none" stroke="#231F20" stroke-linecap="round" stroke-linejoin="round" points="342.877,405.54 342.947,487.06 
	261.537,527.879 180.057,487.19 179.987,405.679 261.397,364.85 "/>
<polygon fill="none" stroke="#231F20" stroke-linecap="round" stroke-linejoin="round" points="342.047,405.36 342.078,446.49 
	301.847,467.1 261.587,446.56 261.547,405.429 301.777,384.82 "/>
<polygon fill="none" stroke="#231F20" stroke-linecap="round" stroke-linejoin="round" points="301.757,467.25 301.797,507.879 
	261.587,528.23 221.337,507.95 221.307,467.31 261.517,446.959 "/>
<line fill="none" stroke="#231F20" stroke-linecap="round" stroke-linejoin="round" x1="261.547" y1="405.179" x2="221.307" y2="467.31"/>
<line fill="none" stroke="#231F20" stroke-linecap="round" stroke-linejoin="round" x1="261.547" y1="405.179" x2="301.828" y2="466.1"/>
<line fill="none" stroke="#231F20" stroke-linecap="round" stroke-linejoin="round" x1="221.307" y1="467.31" x2="301.757" y2="467.25"/>
<line fill="none" stroke="#231F20" stroke-linecap="round" stroke-linejoin="round" x1="221.307" y1="467.31" x2="261.587" y2="528.23"/>
<line fill="none" stroke="#231F20" stroke-linecap="round" stroke-linejoin="round" x1="261.587" y1="528.23" x2="301.828" y2="466.1"/>
<line fill="none" stroke="#231F20" stroke-linecap="round" stroke-linejoin="round" x1="261.547" y1="405.179" x2="342.007" y2="405.11"/>
<line fill="none" stroke="#231F20" stroke-linecap="round" stroke-linejoin="round" x1="301.828" y1="466.1" x2="342.007" y2="405.11"/>
<line fill="none" stroke="#231F20" stroke-linecap="round" stroke-linejoin="round" x1="179.987" y1="405.679" x2="221.337" y2="466.1"/>
<line fill="none" stroke="#231F20" stroke-linecap="round" stroke-linejoin="round" x1="179.987" y1="405.679" x2="261.547" y2="405.179"/>
<line fill="none" stroke="#231F20" stroke-linecap="round" stroke-linejoin="round" x1="261.547" y1="405.179" x2="221.567" y2="384.82"/>
<line fill="none" stroke="#231F20" stroke-linecap="round" stroke-linejoin="round" x1="221.307" y1="467.31" x2="179.987" y2="447.429"/>
<line fill="none" stroke="#231F20" stroke-linecap="round" stroke-linejoin="round" x1="180.057" y1="487.19" x2="221.307" y2="467.31"/>
<line fill="none" stroke="#231F20" stroke-linecap="round" stroke-linejoin="round" x1="301.847" y1="467.1" x2="342.947" y2="487.06"/>
<line fill="none" stroke="#231F20" stroke-linecap="round" stroke-linejoin="round" x1="221.567" y1="384.82" x2="221.567" y2="405.429"/>
<line fill="none" stroke="#231F20" stroke-linecap="round" stroke-linejoin="round" x1="301.777" y1="384.82" x2="301.777" y2="405.11"/>
<line fill="none" stroke="#231F20" stroke-linecap="round" stroke-linejoin="round" x1="261.547" y1="405.429" x2="261.397" y2="364.85"/>
<line fill="none" stroke="#231F20" stroke-linecap="round" stroke-linejoin="round" x1="179.987" y1="447.429" x2="221.777" y2="405.64"/>
<line fill="none" stroke="#231F20" stroke-linecap="round" stroke-linejoin="round" x1="301.777" y1="405.11" x2="342.017" y2="445.35"/>
<line fill="none" stroke="#231F20" stroke-linecap="round" stroke-linejoin="round" x1="221.567" y1="405.429" x2="221.567" y2="467.31"/>
<line fill="none" stroke="#231F20" stroke-linecap="round" stroke-linejoin="round" x1="301.777" y1="405.11" x2="301.777" y2="466.1"/>
<line fill="none" stroke="#231F20" stroke-linecap="round" stroke-linejoin="round" x1="261.587" y1="469.04" x2="261.587" y2="528.23"/>
<line fill="none" stroke="#231F20" stroke-linecap="round" stroke-linejoin="round" x1="261.517" y1="446.959" x2="261.517" y2="469.04"/>
<line fill="none" stroke="#231F20" stroke-linecap="round" stroke-linejoin="round" x1="242.557" y1="435.06" x2="262.047" y2="447.37"/>
<line fill="none" stroke="#231F20" stroke-linecap="round" stroke-linejoin="round" x1="280.887" y1="434.959" x2="261.397" y2="447.259"/>
<line fill="none" stroke="#231F20" stroke-linecap="round" stroke-linejoin="round" x1="301.777" y1="405.11" x2="280.887" y2="434.959"/>
<line fill="none" stroke="#231F20" stroke-linecap="round" stroke-linejoin="round" x1="221.567" y1="405.429" x2="242.557" y2="435.06"/>
<line fill="none" stroke="#231F20" stroke-linecap="round" stroke-linejoin="round" x1="180.057" y1="487.19" x2="342.947" y2="487.06"/>
<line fill="none" stroke="#231F20" stroke-linecap="round" stroke-linejoin="round" x1="234.407" y1="487.04" x2="261.637" y2="467.1"/>
<line fill="none" stroke="#231F20" stroke-linecap="round" stroke-linejoin="round" x1="288.687" y1="486.39" x2="260.637" y2="467.1"/>
<line fill="none" stroke="#231F20" stroke-linecap="round" stroke-linejoin="round" x1="221.567" y1="384.82" x2="301.777" y2="384.82"/>
<path fill="none" stroke="#231F20" stroke-linecap="round" stroke-linejoin="round" d="M523.877,334.223
	c0,6.761-5.45,12.25-12.16,12.25h-138.58c-6.71,0-12.149-5.489-12.149-12.25V194.654c0-6.76,5.439-12.24,12.149-12.24h138.58
	c6.71,0,12.16,5.48,12.16,12.24V334.223z"/>
<polygon fill="none" stroke="#231F20" stroke-linecap="round" stroke-linejoin="round" points="442.658,181.414 467.637,235.284 
	523.488,243.923 483.078,285.854 492.618,345.064 442.658,317.114 392.708,345.064 402.248,285.854 361.828,243.923 
	417.687,235.284 "/>
<line fill="none" stroke="#231F20" stroke-linecap="round" stroke-linejoin="round" x1="442.658" y1="317.114" x2="442.658" y2="345.894"/>
<line fill="none" stroke="#231F20" stroke-linecap="round" stroke-linejoin="round" x1="466.698" y1="235.284" x2="520.687" y2="186.943"/>
<path fill="none" stroke="#231F20" stroke-linecap="round" stroke-linejoin="round" d="M442.658,268.434l-24.971-33.15
	c0,0-0.13-48.34-53.989-48.34l53.989,48.34"/>
<line fill="none" stroke="#231F20" stroke-linecap="round" stroke-linejoin="round" x1="442.658" y1="268.434" x2="466.698" y2="235.284"/>
<line fill="none" stroke="#231F20" stroke-linecap="round" stroke-linejoin="round" x1="442.658" y1="268.434" x2="402.248" y2="285.854"/>
<line fill="none" stroke="#231F20" stroke-linecap="round" stroke-linejoin="round" x1="442.658" y1="268.434" x2="442.658" y2="317.114"/>
<line fill="none" stroke="#231F20" stroke-linecap="round" stroke-linejoin="round" x1="442.658" y1="268.434" x2="483.078" y2="285.854"/>
<line fill="none" stroke="#231F20" stroke-linecap="round" stroke-linejoin="round" x1="442.658" y1="268.434" x2="523.488" y2="243.923"/>
<line fill="none" stroke="#231F20" stroke-linecap="round" stroke-linejoin="round" x1="442.658" y1="268.434" x2="442.658" y2="181.414"/>
<line fill="none" stroke="#231F20" stroke-linecap="round" stroke-linejoin="round" x1="361.828" y1="243.923" x2="442.658" y2="268.434"/>
<line fill="none" stroke="#231F20" stroke-linecap="round" stroke-linejoin="round" x1="442.658" y1="268.434" x2="392.708" y2="345.064"/>
<line fill="none" stroke="#231F20" stroke-linecap="round" stroke-linejoin="round" x1="442.658" y1="268.434" x2="492.618" y2="345.064"/>
<line fill="none" stroke="#231F20" stroke-linecap="round" stroke-linejoin="round" x1="361.828" y1="243.923" x2="399.547" y2="219.764"/>
<line fill="none" stroke="#231F20" stroke-linecap="round" stroke-linejoin="round" x1="523.427" y1="243.273" x2="485.717" y2="219.114"/>
<line fill="none" stroke="#231F20" stroke-linecap="round" stroke-linejoin="round" x1="399.547" y1="219.764" x2="442.658" y2="181.414"/>
<line fill="none" stroke="#231F20" stroke-linecap="round" stroke-linejoin="round" x1="485.547" y1="219.764" x2="442.427" y2="181.414"/>
<line fill="none" stroke="#231F20" stroke-linecap="round" stroke-linejoin="round" x1="402.248" y1="285.854" x2="360.698" y2="306.014"/>
<line fill="none" stroke="#231F20" stroke-linecap="round" stroke-linejoin="round" x1="482.257" y1="285.154" x2="523.807" y2="305.313"/>
<line fill="none" stroke="#231F20" stroke-linecap="round" stroke-linejoin="round" x1="361.828" y1="243.923" x2="384.517" y2="294.463"/>
<line fill="none" stroke="#231F20" stroke-linecap="round" stroke-linejoin="round" x1="523.708" y1="244.074" x2="501.028" y2="294.614"/>
<line fill="none" stroke="#231F20" stroke-linecap="round" stroke-linejoin="round" x1="384.517" y1="294.463" x2="392.708" y2="345.064"/>
<line fill="none" stroke="#231F20" stroke-linecap="round" stroke-linejoin="round" x1="501.028" y1="294.614" x2="492.618" y2="345.064"/>
<line fill="none" stroke="#231F20" stroke-linecap="round" stroke-linejoin="round" x1="392.708" y1="345.064" x2="442.427" y2="333.683"/>
<line fill="none" stroke="#231F20" stroke-linecap="round" stroke-linejoin="round" x1="491.557" y1="345.064" x2="441.837" y2="333.683"/>
<path fill="none" stroke="#231F20" stroke-linecap="round" stroke-linejoin="round" d="M466.698,235.284
	c0,0,0.13-48.34,53.989-48.34L466.698,235.284"/>
<path fill="none" stroke="#231F20" stroke-linecap="round" stroke-linejoin="round" d="M417.687,235.284
	c0,0-53.989,0.42-53.989-48.34"/>
<path fill="none" stroke="#231F20" stroke-linecap="round" stroke-linejoin="round" d="M466.087,235.284c0,0,53.98,0.42,53.98-48.34
	"/>
<path fill="none" stroke="#231F20" stroke-linecap="round" stroke-linejoin="round" d="M418.437,236.344c0,0-0.1-36.59-40.859-36.59
	L418.437,236.344"/>
<path fill="none" stroke="#231F20" stroke-linecap="round" stroke-linejoin="round" d="M418.437,236.344
	c0,0-40.859,0.32-40.859-36.59"/>
<path fill="none" stroke="#231F20" stroke-linecap="round" stroke-linejoin="round" d="M465.288,236.503c0,0,0.1-36.59,40.86-36.59
	L465.288,236.503"/>
<path fill="none" stroke="#231F20" stroke-linecap="round" stroke-linejoin="round" d="M465.288,236.503c0,0,40.86,0.32,40.86-36.59
	"/>
<path fill="none" stroke="#231F20" stroke-linecap="round" stroke-linejoin="round" d="M163.683,516.154
	c0,6.761-5.44,12.24-12.16,12.24H12.953c-6.72,0-12.16-5.479-12.16-12.24V376.584c0-6.76,5.44-12.25,12.16-12.25h138.57
	c6.72,0,12.16,5.49,12.16,12.25V516.154z"/>
<path fill="none" stroke="#231F20" stroke-linecap="round" stroke-linejoin="round" d="M119.853,446.364
	c0,20.78-16.84,37.62-37.61,37.62c-20.78,0-37.62-16.84-37.62-37.62c0-20.77,16.84-37.609,37.62-37.609
	C103.013,408.754,119.853,425.594,119.853,446.364z"/>
<path fill="none" stroke="#231F20" stroke-linecap="round" stroke-linejoin="round" d="M158.643,446.364
	c0,42.2-34.21,76.4-76.4,76.4c-42.2,0-76.41-34.2-76.41-76.4c0-42.189,34.21-76.399,76.41-76.399
	C124.433,369.964,158.643,404.174,158.643,446.364z"/>
<path fill="none" stroke="#231F20" stroke-linecap="round" stroke-linejoin="round" d="M161.383,369.444
	c-77.15,0-77.84,78.03-77.84,78.03"/>
<path fill="none" stroke="#231F20" stroke-linecap="round" stroke-linejoin="round" d="M159.373,524.294
	c0,0-76.63-0.681-76.63-77.83"/>
<path fill="none" stroke="#231F20" stroke-linecap="round" stroke-linejoin="round" d="M82.543,448.075c0,0-0.69-78.03-77.83-78.03"
	/>
<path fill="none" stroke="#231F20" stroke-linecap="round" stroke-linejoin="round" d="M5.713,526.894c0,0,76.63-0.68,76.63-77.83"
	/>
<line fill="none" stroke="#231F20" stroke-linecap="round" stroke-linejoin="round" x1="82.543" y1="447.474" x2="160.383" y2="369.444"/>
<line fill="none" stroke="#231F20" stroke-linecap="round" stroke-linejoin="round" x1="83.543" y1="447.474" x2="3.713" y2="370.044"/>
<line fill="none" stroke="#231F20" stroke-linecap="round" stroke-linejoin="round" x1="82.343" y1="449.064" x2="5.713" y2="526.894"/>
<line fill="none" stroke="#231F20" stroke-linecap="round" stroke-linejoin="round" x1="83.543" y1="447.474" x2="160.373" y2="524.294"/>
<path fill="none" stroke="#231F20" stroke-linecap="round" stroke-linejoin="round" d="M160.383,369.644
	c0,0-0.69,78.021-77.84,78.021"/>
<path fill="none" stroke="#231F20" stroke-linecap="round" stroke-linejoin="round" d="M3.713,369.444c0,0,0.68,78.03,77.83,78.03"
	/>
<path fill="none" stroke="#231F20" stroke-linecap="round" stroke-linejoin="round" d="M5.713,525.165c0,0,0.68-78.03,77.83-78.03"
	/>
<path fill="none" stroke="#231F20" stroke-linecap="round" stroke-linejoin="round" d="M160.343,524.995c0,0-0.69-78.03-77.83-78.03
	"/>
<path fill="none" stroke="#231F20" stroke-linecap="round" stroke-linejoin="round" d="M523.733,516.129
	c0,6.77-5.45,12.25-12.16,12.25h-138.58c-6.71,0-12.15-5.48-12.15-12.25V376.569c0-6.77,5.44-12.25,12.15-12.25h138.58
	c6.71,0,12.16,5.48,12.16,12.25V516.129z"/>
<path fill="none" stroke="#231F20" stroke-linecap="round" stroke-linejoin="round" d="M498.002,433.099
	c0,37.729-30.59,68.33-68.33,68.33s-68.33-30.601-68.33-68.33c0-37.74,30.59-68.34,68.33-68.34S498.002,395.359,498.002,433.099z"/>
<circle fill="none" stroke="#231F20" stroke-linecap="round" stroke-linejoin="round" cx="442.283" cy="446.349" r="33.41"/>
<path fill="none" stroke="#231F20" stroke-linecap="round" stroke-linejoin="round" d="M523.233,459.999
	c0,37.74-30.601,68.33-68.341,68.33c-37.739,0-68.33-30.59-68.33-68.33c0-37.739,30.591-68.33,68.33-68.33
	C492.632,391.668,523.233,422.259,523.233,459.999z"/>
<path fill="none" stroke="#231F20" stroke-linecap="round" stroke-linejoin="round" d="M523.233,433.099
	c0,37.729-30.601,68.33-68.341,68.33c-37.739,0-68.33-30.601-68.33-68.33c0-37.74,30.591-68.34,68.33-68.34
	C492.632,364.759,523.233,395.359,523.233,433.099z"/>
<circle fill="none" stroke="#231F20" stroke-linecap="round" stroke-linejoin="round" cx="429.672" cy="460.069" r="68.33"/>
<ellipse fill="none" stroke="#000000" stroke-linecap="round" stroke-linejoin="round" cx="442.286" cy="446.358" rx="16.212" ry="16.115"/>
<path fill="none" stroke="#231F20" stroke-linecap="round" stroke-linejoin="round" d="M342.542,333.737
	c0,6.76-5.44,12.24-12.16,12.24h-138.57c-6.72,0-12.16-5.48-12.16-12.24v-139.57c0-6.76,5.44-12.25,12.16-12.25h138.57
	c6.72,0,12.16,5.49,12.16,12.25V333.737z"/>
<rect x="213.232" y="216.087" fill="none" stroke="#231F20" stroke-linecap="round" stroke-linejoin="round" width="95.73" height="95.73"/>
<path fill="none" stroke="#231F20" stroke-linecap="round" stroke-linejoin="round" d="M307.612,263.957
	c0,25.681-20.83,46.5-46.51,46.5c-25.69,0-46.52-20.819-46.52-46.5c0-25.69,20.83-46.52,46.52-46.52
	C286.782,217.437,307.612,238.267,307.612,263.957z"/>
<polygon fill="none" stroke="#231F20" stroke-linecap="round" stroke-linejoin="round" points="328.792,263.957 261.102,331.647 
	193.402,263.957 261.102,196.257 "/>
<line fill="none" stroke="#231F20" stroke-linecap="round" stroke-linejoin="round" x1="226.672" y1="229.687" x2="182.382" y2="185.407"/>
<line fill="none" stroke="#231F20" stroke-linecap="round" stroke-linejoin="round" x1="339.802" y1="342.347" x2="295.522" y2="298.057"/>
<line fill="none" stroke="#231F20" stroke-linecap="round" stroke-linejoin="round" x1="184.092" y1="341.347" x2="228.382" y2="297.057"/>
<line fill="none" stroke="#231F20" stroke-linecap="round" stroke-linejoin="round" x1="295.522" y1="229.687" x2="339.802" y2="185.407"/>
<line fill="none" stroke="#231F20" stroke-linecap="round" stroke-linejoin="round" x1="261.102" y1="301.617" x2="261.102" y2="345.137"/>
<line fill="none" stroke="#231F20" stroke-linecap="round" stroke-linejoin="round" x1="261.102" y1="182.547" x2="261.102" y2="226.957"/>
<circle fill="none" stroke="#231F20" stroke-linecap="round" stroke-linejoin="round" cx="262.072" cy="263.977" r="36.81"/>
<line fill="none" stroke="#231F20" stroke-linecap="round" stroke-linejoin="round" x1="298.852" y1="263.977" x2="343.272" y2="263.977"/>
<line fill="none" stroke="#231F20" stroke-linecap="round" stroke-linejoin="round" x1="180.892" y1="263.997" x2="225.312" y2="263.997"/>
<line fill="none" stroke="#231F20" stroke-linecap="round" stroke-linejoin="round" x1="182.382" y1="185.407" x2="214.582" y2="263.957"/>
<line fill="none" stroke="#231F20" stroke-linecap="round" stroke-linejoin="round" x1="182.382" y1="185.407" x2="261.102" y2="217.437"/>
<line fill="none" stroke="#231F20" stroke-linecap="round" stroke-linejoin="round" x1="261.102" y1="217.437" x2="339.802" y2="185.407"/>
<line fill="none" stroke="#231F20" stroke-linecap="round" stroke-linejoin="round" x1="339.802" y1="185.407" x2="307.612" y2="263.957"/>
<line fill="none" stroke="#231F20" stroke-linecap="round" stroke-linejoin="round" x1="307.612" y1="263.957" x2="339.802" y2="342.347"/>
<line fill="none" stroke="#231F20" stroke-linecap="round" stroke-linejoin="round" x1="214.582" y1="263.957" x2="184.092" y2="341.347"/>
<line fill="none" stroke="#231F20" stroke-linecap="round" stroke-linejoin="round" x1="184.092" y1="341.347" x2="261.102" y2="310.457"/>
<line fill="none" stroke="#231F20" stroke-linecap="round" stroke-linejoin="round" x1="261.102" y1="310.457" x2="339.802" y2="342.347"/>
<ellipse fill="none" stroke="#231F20" stroke-miterlimit="10" cx="261.464" cy="263.778" rx="27.963" ry="26.283"/>
<path fill="none" stroke="#231F20" stroke-linecap="round" stroke-linejoin="round" d="M163.98,152.549
	c0,6.77-5.45,12.25-12.16,12.25H13.24c-6.71,0-12.15-5.48-12.15-12.25V12.989c0-6.77,5.44-12.25,12.15-12.25h138.58
	c6.71,0,12.16,5.48,12.16,12.25V152.549z"/>
<rect x="19.74" y="21.989" fill="none" stroke="#231F20" stroke-linecap="round" stroke-linejoin="round" width="42.16" height="40.37"/>
<rect x="103.61" y="21.879" fill="none" stroke="#231F20" stroke-linecap="round" stroke-linejoin="round" width="42.15" height="40.37"/>
<rect x="61.46" y="62.579" fill="none" stroke="#231F20" stroke-linecap="round" stroke-linejoin="round" width="42.15" height="40.38"/>
<rect x="19.3" y="102.949" fill="none" stroke="#231F20" stroke-linecap="round" stroke-linejoin="round" width="42.16" height="40.38"/>
<rect x="103.61" y="102.949" fill="none" stroke="#231F20" stroke-linecap="round" stroke-linejoin="round" width="42.15" height="40.38"/>
<line fill="none" stroke="#231F20" stroke-linecap="round" stroke-linejoin="round" x1="161.5" y1="7.409" x2="3.09" y2="158.309"/>
<line fill="none" stroke="#231F20" stroke-linecap="round" stroke-linejoin="round" x1="3.48" y1="7.409" x2="161.89" y2="158.309"/>
<line fill="none" stroke="#231F20" stroke-linecap="round" stroke-linejoin="round" x1="19.74" y1="62.359" x2="61.46" y2="102.959"/>
<line fill="none" stroke="#231F20" stroke-linecap="round" stroke-linejoin="round" x1="103.61" y1="62.25" x2="145.76" y2="102.949"/>
<line fill="none" stroke="#231F20" stroke-linecap="round" stroke-linejoin="round" x1="61.9" y1="21.989" x2="103.61" y2="62.25"/>
<line fill="none" stroke="#231F20" stroke-linecap="round" stroke-linejoin="round" x1="61.46" y1="102.959" x2="103.61" y2="143.329"/>
<line fill="none" stroke="#231F20" stroke-linecap="round" stroke-linejoin="round" x1="19.3" y1="102.949" x2="61.9" y2="62.359"/>
<line fill="none" stroke="#231F20" stroke-linecap="round" stroke-linejoin="round" x1="61.9" y1="62.359" x2="103.61" y2="21.879"/>
<line fill="none" stroke="#231F20" stroke-linecap="round" stroke-linejoin="round" x1="61.46" y1="143.329" x2="145.76" y2="62.25"/>
<line fill="none" stroke="#231F20" stroke-linecap="round" stroke-linejoin="round" x1="82.29" y1="163.739" x2="82.29" y2="0.739"/>
<line fill="none" stroke="#231F20" stroke-linecap="round" stroke-linejoin="round" x1="163.5" y1="82.859" x2="0.5" y2="82.859"/>
<line fill="none" stroke="#231F20" stroke-linecap="round" stroke-linejoin="round" x1="61.9" y1="21.989" x2="103.61" y2="21.879"/>
<line fill="none" stroke="#231F20" stroke-linecap="round" stroke-linejoin="round" x1="145.76" y1="62.25" x2="145.76" y2="102.949"/>
<line fill="none" stroke="#231F20" stroke-linecap="round" stroke-linejoin="round" x1="19.74" y1="62.359" x2="19.74" y2="102.949"/>
<line fill="none" stroke="#231F20" stroke-linecap="round" stroke-linejoin="round" x1="61.46" y1="143.329" x2="103.61" y2="143.329"/>
<path fill="none" stroke="#231F20" stroke-linecap="round" stroke-linejoin="round" d="M524.554,153.046c0,6.626-5.373,12-11.999,12
	H372.021c-6.627,0-12-5.374-12-12V12.51c0-6.637,5.373-12.01,12-12.01h140.534c6.626,0,11.999,5.374,11.999,12.01V153.046z"/>
<path fill="none" stroke="#231F20" stroke-linecap="round" stroke-linejoin="round" d="M523.363,82.773
	c0,44.671-36.205,80.876-80.875,80.876s-80.875-36.205-80.875-80.876c0-44.67,36.205-80.875,80.875-80.875
	S523.363,38.103,523.363,82.773z"/>
<line fill="none" stroke="#231F20" stroke-linecap="round" stroke-linejoin="round" x1="361.613" y1="82.773" x2="393.359" y2="61.537"/>
<line fill="none" stroke="#231F20" stroke-linecap="round" stroke-linejoin="round" x1="393.359" y1="103.208" x2="361.613" y2="82.773"/>
<line fill="none" stroke="#231F20" stroke-linecap="round" stroke-linejoin="round" x1="393.359" y1="103.208" x2="372.699" y2="123.632"/>
<line fill="none" stroke="#231F20" stroke-linecap="round" stroke-linejoin="round" x1="390.986" y1="20.411" x2="393.359" y2="61.537"/>
<line fill="none" stroke="#231F20" stroke-linecap="round" stroke-linejoin="round" x1="390.986" y1="20.411" x2="424.128" y2="34.743"/>
<line fill="none" stroke="#231F20" stroke-linecap="round" stroke-linejoin="round" x1="424.128" y1="34.743" x2="442.488" y2="1.897"/>
<line fill="none" stroke="#231F20" stroke-linecap="round" stroke-linejoin="round" x1="424.128" y1="34.743" x2="413.362" y2="7.322"/>
<line fill="none" stroke="#231F20" stroke-linecap="round" stroke-linejoin="round" x1="393.359" y1="61.537" x2="369" y2="49.013"/>
<line fill="none" stroke="#231F20" stroke-linecap="round" stroke-linejoin="round" x1="393.359" y1="61.537" x2="407.557" y2="82.773"/>
<line fill="none" stroke="#231F20" stroke-linecap="round" stroke-linejoin="round" x1="407.557" y1="82.773" x2="393.359" y2="103.208"/>
<line fill="none" stroke="#231F20" stroke-linecap="round" stroke-linejoin="round" x1="393.359" y1="103.208" x2="422.29" y2="113.42"/>
<line fill="none" stroke="#231F20" stroke-linecap="round" stroke-linejoin="round" x1="421.15" y1="113.42" x2="421.15" y2="131.574"/>
<line fill="none" stroke="#231F20" stroke-linecap="round" stroke-linejoin="round" x1="390.698" y1="144.889" x2="393.359" y2="103.208"/>
<line fill="none" stroke="#231F20" stroke-linecap="round" stroke-linejoin="round" x1="422.29" y1="131.574" x2="392.034" y2="144.889"/>
<line fill="none" stroke="#231F20" stroke-linecap="round" stroke-linejoin="round" x1="421.15" y1="131.574" x2="442.488" y2="163.649"/>
<line fill="none" stroke="#231F20" stroke-linecap="round" stroke-linejoin="round" x1="421.15" y1="131.574" x2="413.362" y2="158.224"/>
<line fill="none" stroke="#231F20" stroke-linecap="round" stroke-linejoin="round" x1="424.128" y1="34.743" x2="407.557" y2="82.773"/>
<line fill="none" stroke="#231F20" stroke-linecap="round" stroke-linejoin="round" x1="393.359" y1="61.537" x2="415.837" y2="58.753"/>
<line fill="none" stroke="#231F20" stroke-linecap="round" stroke-linejoin="round" x1="415.837" y1="58.753" x2="442.488" y2="44.853"/>
<line fill="none" stroke="#231F20" stroke-linecap="round" stroke-linejoin="round" x1="407.557" y1="82.773" x2="421.15" y2="113.42"/>
<line fill="none" stroke="#231F20" stroke-linecap="round" stroke-linejoin="round" x1="424.128" y1="34.743" x2="442.488" y2="44.853"/>
<line fill="none" stroke="#231F20" stroke-linecap="round" stroke-linejoin="round" x1="422.29" y1="113.42" x2="442.488" y2="118.249"/>
<line fill="none" stroke="#231F20" stroke-linecap="round" stroke-linejoin="round" x1="442.488" y1="118.249" x2="421.15" y2="131.574"/>
<line fill="none" stroke="#231F20" stroke-linecap="round" stroke-linejoin="round" x1="523.363" y1="82.773" x2="491.607" y2="61.537"/>
<line fill="none" stroke="#231F20" stroke-linecap="round" stroke-linejoin="round" x1="523.363" y1="82.773" x2="491.607" y2="103.208"/>
<line fill="none" stroke="#231F20" stroke-linecap="round" stroke-linejoin="round" x1="491.607" y1="103.208" x2="512.278" y2="123.632"/>
<line fill="none" stroke="#231F20" stroke-linecap="round" stroke-linejoin="round" x1="493.99" y1="20.411" x2="491.607" y2="61.537"/>
<line fill="none" stroke="#231F20" stroke-linecap="round" stroke-linejoin="round" x1="493.99" y1="20.411" x2="460.847" y2="34.743"/>
<line fill="none" stroke="#231F20" stroke-linecap="round" stroke-linejoin="round" x1="460.847" y1="34.743" x2="442.488" y2="1.897"/>
<line fill="none" stroke="#231F20" stroke-linecap="round" stroke-linejoin="round" x1="460.847" y1="34.743" x2="471.615" y2="7.322"/>
<line fill="none" stroke="#231F20" stroke-linecap="round" stroke-linejoin="round" x1="491.607" y1="61.537" x2="515.976" y2="49.013"/>
<line fill="none" stroke="#231F20" stroke-linecap="round" stroke-linejoin="round" x1="491.607" y1="61.537" x2="477.419" y2="82.773"/>
<line fill="none" stroke="#231F20" stroke-linecap="round" stroke-linejoin="round" x1="477.419" y1="82.773" x2="491.607" y2="103.208"/>
<line fill="none" stroke="#231F20" stroke-linecap="round" stroke-linejoin="round" x1="491.607" y1="103.208" x2="462.686" y2="113.42"/>
<line fill="none" stroke="#231F20" stroke-linecap="round" stroke-linejoin="round" x1="463.827" y1="113.42" x2="463.827" y2="131.574"/>
<line fill="none" stroke="#231F20" stroke-linecap="round" stroke-linejoin="round" x1="491.607" y1="103.208" x2="494.278" y2="144.889"/>
<line fill="none" stroke="#231F20" stroke-linecap="round" stroke-linejoin="round" x1="462.686" y1="131.574" x2="492.943" y2="144.889"/>
<line fill="none" stroke="#231F20" stroke-linecap="round" stroke-linejoin="round" x1="463.827" y1="131.574" x2="442.488" y2="163.649"/>
<line fill="none" stroke="#231F20" stroke-linecap="round" stroke-linejoin="round" x1="463.827" y1="131.574" x2="471.615" y2="158.224"/>
<line fill="none" stroke="#231F20" stroke-linecap="round" stroke-linejoin="round" x1="460.847" y1="34.743" x2="477.419" y2="82.773"/>
<line fill="none" stroke="#231F20" stroke-linecap="round" stroke-linejoin="round" x1="491.607" y1="61.537" x2="469.138" y2="58.753"/>
<line fill="none" stroke="#231F20" stroke-linecap="round" stroke-linejoin="round" x1="469.138" y1="58.753" x2="442.488" y2="44.853"/>
<line fill="none" stroke="#231F20" stroke-linecap="round" stroke-linejoin="round" x1="477.419" y1="82.773" x2="463.827" y2="113.42"/>
<line fill="none" stroke="#231F20" stroke-linecap="round" stroke-linejoin="round" x1="460.847" y1="34.743" x2="442.488" y2="44.853"/>
<line fill="none" stroke="#231F20" stroke-linecap="round" stroke-linejoin="round" x1="462.686" y1="113.42" x2="442.488" y2="118.249"/>
<line fill="none" stroke="#231F20" stroke-linecap="round" stroke-linejoin="round" x1="442.488" y1="118.249" x2="463.827" y2="131.574"/>
<line fill="none" stroke="#231F20" stroke-linecap="round" stroke-linejoin="round" x1="463.827" y1="113.42" x2="494.278" y2="144.889"/>
<line fill="none" stroke="#231F20" stroke-linecap="round" stroke-linejoin="round" x1="442.488" y1="118.249" x2="442.488" y2="163.649"/>
<line fill="none" stroke="#231F20" stroke-linecap="round" stroke-linejoin="round" x1="421.15" y1="113.42" x2="392.034" y2="144.889"/>
<line fill="none" stroke="#231F20" stroke-linecap="round" stroke-linejoin="round" x1="407.557" y1="82.773" x2="361.613" y2="82.773"/>
<line fill="none" stroke="#231F20" stroke-linecap="round" stroke-linejoin="round" x1="390.986" y1="20.411" x2="415.837" y2="58.753"/>
<line fill="none" stroke="#231F20" stroke-linecap="round" stroke-linejoin="round" x1="442.488" y1="1.897" x2="442.488" y2="44.853"/>
<line fill="none" stroke="#231F20" stroke-linecap="round" stroke-linejoin="round" x1="493.99" y1="20.411" x2="467.72" y2="58.753"/>
<line fill="none" stroke="#231F20" stroke-linecap="round" stroke-linejoin="round" x1="477.419" y1="82.773" x2="523.363" y2="82.773"/>
<line fill="none" stroke="#231F20" stroke-linecap="round" stroke-linejoin="round" x1="460.847" y1="34.743" x2="453.481" y2="50.585"/>
<line fill="none" stroke="#231F20" stroke-linecap="round" stroke-linejoin="round" x1="393.359" y1="61.537" x2="411.667" y2="69.808"/>
<line fill="none" stroke="#231F20" stroke-linecap="round" stroke-linejoin="round" x1="421.15" y1="131.574" x2="428.865" y2="114.992"/>
<line fill="none" stroke="#231F20" stroke-linecap="round" stroke-linejoin="round" x1="491.607" y1="103.208" x2="471.798" y2="95.441"/>
</svg>
