<?xml version="1.0" encoding="utf-8"?>
<!-- Generator: Adobe Illustrator 15.0.2, SVG Export Plug-In . SVG Version: 6.00 Build 0)  -->
<!DOCTYPE svg PUBLIC "-//W3C//DTD SVG 1.1//EN" "http://www.w3.org/Graphics/SVG/1.1/DTD/svg11.dtd">
<svg version="1.1" id="Layer_1" xmlns="http://www.w3.org/2000/svg" xmlns:xlink="http://www.w3.org/1999/xlink" x="0px" y="0px"
	 width="566px" height="569px" viewBox="0 0 566 569" enable-background="new 0 0 566 569" xml:space="preserve">
<g id="XMLID_1_">
	<g>
		<polygon fill="#FFFFFF" points="349.705,443.888 358.505,443.888 372.177,443.888 372.177,457.56 363.376,457.56 349.705,457.56 
			349.705,457.35 		"/>
		<path fill="#929497" d="M102.146,365.262c0-7.333,5.971-13.305,13.305-13.305c7.281,0,13.253,5.972,13.253,13.305
			c0,7.281-5.972,13.253-13.253,13.253h-0.052C108.065,378.462,102.146,372.543,102.146,365.262z"/>
		<path fill="#A6A8AB" d="M364.057,362.748c2.986-17.757,12.991-30.801,24.936-30.801v30.801H364.057z"/>
		<polygon fill="#FFFFFF" points="219.116,443.888 219.116,432.993 239.073,432.993 239.073,443.888 237.397,443.888 		"/>
		<polygon fill="#FFFFFF" points="199.21,432.993 199.21,443.888 192.453,443.888 179.305,443.888 179.305,432.993 		"/>
		<polygon fill="#FFFFFF" points="226.711,498.523 226.711,484.904 239.807,484.904 249.026,484.904 249.026,498.523 		"/>
		<path fill="#929497" d="M346.3,326.238v77.997c0,5.71-4.819,10.267-10.687,10.267h-179.88c-5.919,0-10.686-4.557-10.686-10.267
			v-77.997c0-5.657,4.767-10.269,10.686-10.269h179.881C341.48,315.97,346.3,320.581,346.3,326.238z M235.145,348.657l-10.948-6.285
			l-0.733,1.31l-3.614-2.096l-13.462-3.667l9.953,9.691l3.667,2.095l-0.733,1.31l10.948,6.233l0.733-1.257l52.749,30.172
			c13.566,3.72,3.457-6.023,3.457-6.023l-52.749-30.225L235.145,348.657z"/>
		<polygon fill="#FFFFFF" points="282.289,457.35 282.289,457.56 273.227,457.56 259.869,457.56 259.869,457.35 259.869,443.888 
			278.884,443.888 282.289,443.888 		"/>
		<path fill="#58595B" d="M155.733,315.97c-5.919,0-10.686,4.61-10.686,10.269v77.997c0,5.71,4.767,10.267,10.686,10.267h179.881
			c5.866,0,10.687-4.557,10.687-10.267v-77.997c0-5.657-4.818-10.269-10.687-10.269H155.733z M138.971,419.425V311.099v-0.156
			h213.667v108.589H138.971V419.425z"/>
		<polygon fill="#FFFFFF" points="313.089,471.232 296.747,471.232 296.747,457.56 304.761,457.56 320.266,457.56 320.266,471.232 
					"/>
		<rect x="428.592" y="484.904" fill="#FFFFFF" width="17.13" height="13.672"/>
		<path fill="#BBBDBF" d="M304.236,252.012h-37.505H161.547c-54.268,0-65.216,0-67.416-36.301h382.758
			c-2.199,36.301-13.146,36.301-67.416,36.301H304.236z"/>
		<path fill="#D0D2D3" d="M115.451,311.884v39.13v0.943c-7.333,0-13.305,5.972-13.305,13.305c0,7.281,5.919,13.2,13.252,13.253
			v39.915v1.102H93.869V310.942h21.582V311.884z"/>
		<rect x="315.918" y="484.904" fill="#FFFFFF" width="22.264" height="13.619"/>
		<polygon fill="#FFFFFF" points="306.699,514.918 306.699,498.523 315.918,498.523 338.182,498.523 360.496,498.523 
			397.215,498.523 397.215,514.918 		"/>
		<polygon fill="#FFFFFF" points="147.509,443.888 139.495,443.888 139.495,443.784 139.495,433.097 139.495,432.993 159.4,432.993 
			159.4,443.888 		"/>
		<polygon fill="#FFFFFF" points="327.232,457.35 327.232,457.56 320.266,457.56 304.761,457.56 304.761,457.35 304.761,443.888 
			318.695,443.888 327.232,443.888 		"/>
		<path fill="#FFFFFF" d="M388.992,331.947c11.942,0,21.948,13.044,24.934,30.801h-24.934V331.947z"/>
		<polygon fill="#FFFFFF" points="144.523,471.232 144.523,484.904 137.504,484.904 98.427,484.904 98.427,471.232 132.213,471.232 
					"/>
		<polygon fill="#404041" points="206.387,337.918 219.849,341.585 216.339,347.61 		"/>
		<polygon fill="#FFFFFF" points="353.477,484.904 353.477,471.232 363.376,471.232 397.215,471.232 397.215,484.904 
			360.496,484.904 		"/>
		<polygon fill="#FFFFFF" points="338.6,432.993 338.6,443.888 327.232,443.888 318.695,443.888 318.695,432.993 		"/>
		<polygon fill="#FFFFFF" points="435.665,446.875 435.665,433.045 435.665,432.993 451.903,432.993 451.903,433.045 
			451.903,446.875 		"/>
		<polygon fill="#FFFFFF" points="435.665,473.956 435.665,474.008 419.478,474.008 419.478,473.956 419.478,461.279 
			435.665,461.279 		"/>
		<polygon fill="#FFFFFF" points="239.807,471.232 239.807,484.904 226.711,484.904 215.396,484.904 215.396,471.232 
			226.24,471.232 		"/>
		<polygon fill="#FFFFFF" points="271.289,484.904 271.289,498.523 249.026,498.523 249.026,484.904 264.217,484.904 		"/>
		<polygon fill="#FFFFFF" points="98.427,471.232 98.427,457.56 125.037,457.56 132.213,457.56 132.213,471.232 		"/>
		<rect x="411.149" y="498.576" fill="#FFFFFF" width="17.442" height="16.343"/>
		<polygon fill="#FFFFFF" points="182.134,484.904 190.934,484.904 203.663,484.904 203.663,498.523 194.443,498.523 
			182.134,498.523 		"/>
		<polygon fill="#FFFFFF" points="313.089,471.232 313.089,484.904 293.604,484.904 288.68,484.904 288.68,471.232 296.747,471.232 
					"/>
		<polygon fill="#FFFFFF" points="202.72,471.232 202.72,457.56 214.925,457.56 226.24,457.56 226.24,471.232 215.396,471.232 		"/>
		<polygon fill="#FFFFFF" points="378.411,432.993 378.411,443.888 372.177,443.888 358.505,443.888 358.505,432.993 		"/>
		<polygon fill="#FFFFFF" points="219.116,432.993 219.116,443.888 214.925,443.888 199.21,443.888 199.21,432.993 		"/>
		<polygon fill="#FFFFFF" points="147.509,443.888 147.509,457.35 147.509,457.56 132.213,457.56 125.037,457.56 125.037,443.888 
			139.495,443.888 		"/>
		<polygon fill="#FFFFFF" points="182.134,484.904 182.134,498.523 159.819,498.523 159.819,484.904 166.524,484.904 		"/>
		<polygon fill="#FFFFFF" points="179.252,457.56 169.981,457.56 169.981,457.35 169.981,443.888 179.305,443.888 192.453,443.888 
			192.453,457.35 192.453,457.56 		"/>
		<polygon fill="#FFFFFF" points="144.523,471.232 132.213,471.232 132.213,457.56 147.509,457.56 155.733,457.56 155.733,471.232 
					"/>
		<rect x="431.107" y="337.709" fill="#58595B" width="40.438" height="57.777"/>
		<polygon fill="#FFFFFF" points="147.509,457.35 147.509,443.888 159.4,443.888 169.981,443.888 169.981,457.35 169.981,457.56 
			155.733,457.56 147.509,457.56 		"/>
		<polygon fill="#FFFFFF" points="343.732,457.56 343.732,471.232 320.266,471.232 320.266,457.56 327.232,457.56 		"/>
		<polygon fill="#FFFFFF" points="318.695,432.993 318.695,443.888 304.761,443.888 298.79,443.888 298.79,432.993 		"/>
		<polygon fill="#FFFFFF" points="363.376,471.232 363.376,457.56 372.177,457.56 397.215,457.56 397.215,471.232 		"/>
		<rect x="451.903" y="446.875" fill="#FFFFFF" width="15.399" height="14.404"/>
		<rect x="419.478" y="446.875" fill="#FFFFFF" width="16.188" height="14.404"/>
		<polygon fill="#FFFFFF" points="234.411,349.915 287.16,380.139 283.703,386.163 230.954,355.991 		"/>
		<polygon fill="#FFFFFF" points="435.665,474.008 435.665,473.956 435.665,461.279 451.903,461.279 451.903,473.956 
			451.903,474.008 		"/>
		<polygon fill="#FFFFFF" points="304.761,443.888 304.761,457.35 304.761,457.56 296.747,457.56 282.289,457.56 282.289,457.35 
			282.289,443.888 298.79,443.888 		"/>
		<polygon fill="#FFFFFF" points="119.589,433.097 119.589,443.784 119.589,443.888 98.427,443.888 98.427,432.993 119.589,432.993 
					"/>
		<polygon fill="#FFFFFF" points="159.819,484.904 144.523,484.904 144.523,471.232 155.733,471.232 166.524,471.232 
			166.524,484.904 		"/>
		<polygon fill="#FFFFFF" points="435.665,433.045 435.665,446.875 419.478,446.875 419.478,433.045 419.478,432.993 
			435.665,432.993 		"/>
		<polygon fill="#FFFFFF" points="125.037,443.888 125.037,457.56 98.427,457.56 98.427,443.888 119.589,443.888 		"/>
		<polygon fill="#FFFFFF" points="451.903,432.993 467.303,432.993 467.303,446.875 451.903,446.875 451.903,433.045 		"/>
		<polygon fill="#FFFFFF" points="144.523,484.904 159.819,484.904 159.819,498.523 137.504,498.523 137.504,484.904 		"/>
		<path fill="#BBBDBF" d="M379.039,289.57v7.962H283.65h-91.668v-7.962c45.049,0,73.23-35.568,74.75-37.558h37.506
			C305.756,254.002,333.938,289.57,379.039,289.57z"/>
		<polygon fill="#404041" points="220.006,349.705 223.463,343.681 234.411,349.915 230.954,355.991 		"/>
		<path fill="#404041" d="M283.703,386.163l3.457-6.023C287.16,380.139,297.27,389.882,283.703,386.163z"/>
		<polygon fill="#FFFFFF" points="258.979,443.888 258.979,432.993 278.884,432.993 278.884,443.888 259.869,443.888 		"/>
		<polygon fill="#FFFFFF" points="190.934,471.232 179.252,471.232 179.252,457.56 192.453,457.56 202.72,457.56 202.72,471.232 		
			"/>
		<polygon fill="#FFFFFF" points="278.884,443.888 278.884,432.993 298.79,432.993 298.79,443.888 282.289,443.888 		"/>
		<polygon fill="#FFFFFF" points="293.604,498.523 306.699,498.523 306.699,514.918 194.443,514.918 194.443,498.523 
			203.663,498.523 204.396,498.523 226.711,498.523 249.026,498.523 271.289,498.523 		"/>
		<polygon fill="#FFFFFF" points="190.934,484.904 190.934,471.232 202.72,471.232 215.396,471.232 215.396,484.904 
			204.396,484.904 203.663,484.904 		"/>
		<rect x="239.073" y="432.993" fill="#FFFFFF" width="19.905" height="10.896"/>
		<rect x="404.13" y="446.875" fill="#FFFFFF" width="15.348" height="14.404"/>
		<polygon fill="#FFFFFF" points="159.4,432.993 179.305,432.993 179.305,443.888 169.981,443.888 159.4,443.888 		"/>
		<polygon fill="#FFFFFF" points="467.303,461.279 467.303,474.008 451.903,474.008 451.903,473.956 451.903,461.279 		"/>
		<rect x="435.665" y="446.875" fill="#FFFFFF" width="16.238" height="14.404"/>
		<polygon fill="#F1F1F2" points="219.849,341.585 223.463,343.681 220.006,349.705 216.339,347.61 		"/>
		<path fill="#F1F1F2" d="M363.115,373.8c0-3.823,0.314-7.543,0.941-11.053h24.936h24.934c0.629,3.51,0.943,7.229,0.943,11.053
			c0,23.102-11.577,41.854-25.877,41.854C374.691,415.654,363.115,396.901,363.115,373.8z"/>
		<rect x="360.496" y="484.904" fill="#FFFFFF" width="36.72" height="13.619"/>
		<rect x="428.592" y="498.576" fill="#FFFFFF" width="17.13" height="16.343"/>
		<polygon fill="#FFFFFF" points="226.24,457.56 214.925,457.56 214.925,457.35 214.925,443.888 219.116,443.888 237.397,443.888 
			237.397,457.35 237.397,457.56 		"/>
		<polygon fill="#FFFFFF" points="404.13,446.875 404.13,432.993 419.478,432.993 419.478,433.045 419.478,446.875 		"/>
		<polygon fill="#FFFFFF" points="327.232,443.888 338.6,443.888 349.705,443.888 349.705,457.35 349.705,457.56 343.732,457.56 
			327.232,457.56 327.232,457.35 		"/>
		<polygon fill="#404041" points="234.411,349.915 223.463,343.681 224.197,342.372 235.145,348.657 		"/>
		<path fill="#FFFFFF" d="M456.146,405.125c0-2.672-2.147-4.819-4.819-4.819s-4.819,2.147-4.819,4.819
			c0,2.619,2.147,4.767,4.819,4.767S456.146,407.745,456.146,405.125z M429.431,330.218h43.791c3.195,0,5.764,2.043,5.764,4.61
			v77.943c0,2.567-2.567,4.609-5.764,4.609h-43.791c-3.144,0-5.763-2.042-5.763-4.609v-77.943
			C423.668,332.261,426.288,330.218,429.431,330.218z M431.107,337.709v57.777h40.438v-57.777H431.107z"/>
		<path fill="#FFFFFF" d="M115.451,351.014v-39.13v-0.941h23.52v0.156v108.326v0.105h-23.572v-1.102v-39.915h0.052
			c7.281,0,13.253-5.972,13.253-13.253c0-7.333-5.972-13.305-13.253-13.305V351.014z"/>
		<path fill="#D0D2D3" d="M404.13,432.993v13.882v14.404v12.729h15.348h16.188h16.238h15.399v-12.729v-14.404v-13.882h-15.399
			h-16.238h-16.188H404.13z M98.427,457.56v13.673v13.672v13.619v16.396h96.017h112.255h90.517v-16.396v-13.619v-13.672V457.56
			v-13.672v-10.896h-18.805h-19.905H338.6h-19.904H298.79h-19.906h-19.905h-19.905h-19.958H199.21h-19.905H159.4h-19.905H119.59
			H98.427v10.896V457.56z M91.879,522.148v-96.489h387.263v96.489H91.879z M445.722,484.904h-17.13v13.672h-17.442v16.343h17.442
			h17.13h15.714v-16.343h-15.714V484.904z"/>
		<polygon fill="#FFFFFF" points="378.411,443.888 397.215,443.888 397.215,457.56 372.177,457.56 372.177,443.888 		"/>
		<polygon fill="#FFFFFF" points="259.869,457.35 259.869,457.56 249.759,457.56 237.397,457.56 237.397,457.35 237.397,443.888 
			239.073,443.888 258.979,443.888 259.869,443.888 		"/>
		<polygon fill="#FFFFFF" points="273.227,471.232 273.227,457.56 282.289,457.56 296.747,457.56 296.747,471.232 288.68,471.232 		
			"/>
		<polygon fill="#FFFFFF" points="358.505,432.993 358.505,443.888 349.705,443.888 338.6,443.888 338.6,432.993 		"/>
		<rect x="98.427" y="484.904" fill="#FFFFFF" width="39.077" height="13.619"/>
		<path fill="#231F20" d="M477.465,180.562c0,14.458,0,25.929-0.576,35.148H94.131c-0.576-9.219-0.576-20.691-0.576-35.148v-60.344
			c0-71.45,0-71.45,67.992-71.45h247.926c67.992,0,67.992,0,67.992,71.45V180.562z"/>
		<polygon fill="#FFFFFF" points="273.227,471.232 288.68,471.232 288.68,484.904 271.289,484.904 264.217,484.904 264.217,471.232 
					"/>
		<polygon fill="#FFFFFF" points="226.711,484.904 226.711,498.523 204.396,498.523 204.396,484.904 215.396,484.904 		"/>
		<polygon fill="#FFFFFF" points="239.807,484.904 239.807,471.232 249.759,471.232 264.217,471.232 264.217,484.904 
			249.026,484.904 		"/>
		<path fill="#A6A8AB" d="M446.507,405.125c0-2.672,2.147-4.819,4.819-4.819s4.818,2.147,4.818,4.819
			c0,2.619-2.146,4.767-4.818,4.767S446.507,407.745,446.507,405.125z"/>
		<polygon fill="#404041" points="220.006,349.705 230.954,355.991 230.221,357.248 219.273,351.014 		"/>
		<polygon fill="#FFFFFF" points="353.477,471.232 353.477,484.904 338.182,484.904 315.918,484.904 313.089,484.904 
			313.089,471.232 320.266,471.232 343.732,471.232 		"/>
		<path fill="#231F20" d="M553.106,78.05c0-32.844-26.61-59.454-59.454-59.454H77.369c-32.844,0-59.454,26.61-59.454,59.454v416.283
			c0,32.844,26.61,59.506,59.454,59.506h416.283c32.844,0,59.453-26.662,59.453-59.506L553.106,78.05L553.106,78.05z
			 M65.478,568.349c-34.677,0-62.859-28.182-62.859-62.858V65.478c0-34.729,28.182-62.859,62.859-62.859H505.49
			c34.729,0,62.858,28.129,62.858,62.859V505.49c0,34.678-28.13,62.858-62.858,62.858H65.478z"/>
		<polygon fill="#FFFFFF" points="419.478,461.279 419.478,473.956 419.478,474.008 404.13,474.008 404.13,461.279 		"/>
		<polygon fill="#FFFFFF" points="98.427,498.523 137.504,498.523 159.819,498.523 182.134,498.523 194.443,498.523 
			194.443,514.918 98.427,514.918 		"/>
		<polygon fill="#FFFFFF" points="338.182,498.523 338.182,484.904 353.477,484.904 360.496,484.904 360.496,498.523 		"/>
		<polygon fill="#FFFFFF" points="214.925,457.35 214.925,457.56 202.72,457.56 192.453,457.56 192.453,457.35 192.453,443.888 
			199.21,443.888 214.925,443.888 		"/>
		<polygon fill="#FFFFFF" points="179.252,457.56 179.252,471.232 166.524,471.232 155.733,471.232 155.733,457.56 169.981,457.56 
					"/>
		<polygon fill="#FFFFFF" points="293.604,484.904 293.604,498.523 271.289,498.523 271.289,484.904 288.68,484.904 		"/>
		<polygon fill="#FFFFFF" points="226.24,457.56 237.397,457.56 249.759,457.56 249.759,471.232 239.807,471.232 226.24,471.232 		
			"/>
		<rect x="378.411" y="432.993" fill="#FFFFFF" width="18.805" height="10.896"/>
		<polygon fill="#FFFFFF" points="306.699,498.523 293.604,498.523 293.604,484.904 313.089,484.904 315.918,484.904 
			315.918,498.523 		"/>
		<polygon fill="#FFFFFF" points="139.495,433.097 139.495,443.784 139.495,443.888 125.037,443.888 119.589,443.888 
			119.589,443.784 119.589,433.097 119.589,432.993 139.495,432.993 		"/>
		<polygon fill="#FFFFFF" points="363.376,457.56 363.376,471.232 353.477,471.232 343.732,471.232 343.732,457.56 349.705,457.56 
					"/>
		<rect x="445.722" y="498.576" fill="#FFFFFF" width="15.714" height="16.343"/>
		<polygon fill="#FFFFFF" points="273.227,457.56 273.227,471.232 264.217,471.232 249.759,471.232 249.759,457.56 259.869,457.56 
					"/>
		<polygon fill="#FFFFFF" points="190.934,471.232 190.934,484.904 182.134,484.904 166.524,484.904 166.524,471.232 
			179.252,471.232 		"/>
	</g>
	<g>
		<path fill="none" stroke="#231F20" stroke-width="5.2382" stroke-miterlimit="10" d="M568.349,505.49
			c0,34.678-28.13,62.858-62.858,62.858H65.478c-34.677,0-62.859-28.182-62.859-62.858V65.478c0-34.729,28.182-62.859,62.859-62.859
			H505.49c34.729,0,62.858,28.129,62.858,62.859V505.49z"/>
		<path fill="none" stroke="#231F20" stroke-width="4.0649" stroke-miterlimit="10" d="M553.106,494.333
			c0,32.844-26.61,59.506-59.454,59.506H77.369c-32.844,0-59.454-26.662-59.454-59.506V78.05c0-32.844,26.61-59.454,59.454-59.454
			h416.283c32.844,0,59.453,26.61,59.453,59.454L553.106,494.333L553.106,494.333z"/>
		<path fill="none" stroke="#231F20" stroke-width="2.6191" stroke-miterlimit="10" d="M413.925,362.748
			c0.629,3.51,0.943,7.229,0.943,11.053c0,23.102-11.577,41.854-25.877,41.854c-14.302,0-25.878-18.753-25.878-41.854
			c0-3.823,0.314-7.543,0.943-11.053c2.985-17.757,12.99-30.801,24.934-30.801C400.935,331.947,410.94,344.991,413.925,362.748z"/>
		<polyline fill="none" stroke="#231F20" stroke-width="2.6191" stroke-miterlimit="10" points="388.992,363.481 388.992,362.748 
			388.992,331.947 		"/>
		<polyline fill="none" stroke="#231F20" stroke-width="2.6191" stroke-miterlimit="10" points="363.115,362.748 364.057,362.748 
			388.992,362.748 413.925,362.748 414.869,362.748 		"/>
		
			<rect x="431.107" y="337.709" fill="none" stroke="#231F20" stroke-width="2.6191" stroke-miterlimit="10" width="40.438" height="57.777"/>
		<path fill="none" stroke="#231F20" stroke-width="2.6191" stroke-miterlimit="10" d="M473.222,330.218
			c3.195,0,5.764,2.043,5.764,4.61v77.943c0,2.567-2.567,4.609-5.764,4.609h-43.791c-3.144,0-5.763-2.042-5.763-4.609v-77.943
			c0-2.567,2.619-4.61,5.763-4.61H473.222z"/>
		<path fill="none" stroke="#231F20" stroke-width="2.6191" stroke-miterlimit="10" d="M456.146,405.125
			c0,2.619-2.147,4.767-4.819,4.767s-4.819-2.146-4.819-4.767c0-2.672,2.147-4.819,4.819-4.819S456.146,402.454,456.146,405.125z"/>
		<path fill="none" stroke="#231F20" stroke-width="2.6191" stroke-miterlimit="10" d="M94.131,215.71
			c-0.576-9.219-0.576-20.691-0.576-35.148v-60.344c0-71.45,0-71.45,67.992-71.45h247.926c67.992,0,67.992,0,67.992,71.45v60.344
			c0,14.458,0,25.929-0.576,35.148c-2.199,36.301-13.146,36.301-67.416,36.301H304.236h-37.505H161.547
			C107.279,252.012,96.332,252.012,94.131,215.71z"/>
		<path fill="none" stroke="#231F20" stroke-width="2.6191" stroke-miterlimit="10" d="M266.784,251.959c0,0,0,0.052-0.053,0.052
			c-1.519,1.99-29.701,37.558-74.75,37.558v7.963h91.669"/>
		<path fill="none" stroke="#231F20" stroke-width="2.6191" stroke-miterlimit="10" d="M304.184,251.959c0,0,0,0.052,0.053,0.052
			c1.521,1.99,29.701,37.558,74.803,37.558v7.963H283.65"/>
		<polygon fill="none" stroke="#231F20" stroke-width="2.6191" stroke-miterlimit="10" points="138.971,310.942 352.639,310.942 
			352.639,419.531 138.971,419.531 115.398,419.531 93.869,419.531 93.869,310.942 115.451,310.942 		"/>
		
			<line fill="none" stroke="#231F20" stroke-width="2.6191" stroke-miterlimit="10" x1="138.971" y1="419.425" x2="138.971" y2="311.099"/>
		<path fill="none" stroke="#231F20" stroke-width="2.6191" stroke-miterlimit="10" d="M115.451,351.958
			c7.281,0,13.253,5.972,13.253,13.305c0,7.281-5.972,13.253-13.253,13.253h-0.052c-7.333-0.053-13.252-5.972-13.252-13.253
			C102.146,357.929,108.117,351.958,115.451,351.958z"/>
		<path fill="none" stroke="#231F20" stroke-width="1.3096" stroke-miterlimit="10" d="M346.3,404.235
			c0,5.71-4.819,10.267-10.687,10.267h-179.88c-5.919,0-10.686-4.557-10.686-10.267v-77.997c0-5.657,4.767-10.269,10.686-10.269
			h179.881c5.866,0,10.687,4.61,10.687,10.269L346.3,404.235L346.3,404.235z"/>
		<polyline fill="none" stroke="#231F20" stroke-width="2.6191" stroke-miterlimit="10" points="115.398,377.52 115.398,378.515 
			115.398,418.43 		"/>
		
			<line fill="none" stroke="#231F20" stroke-width="2.6191" stroke-miterlimit="10" x1="115.451" y1="351.014" x2="115.451" y2="311.884"/>
		
			<rect x="91.879" y="425.659" fill="none" stroke="#231F20" stroke-width="1.3096" stroke-miterlimit="10" width="387.263" height="96.489"/>
		<polygon fill="none" stroke="#231F20" stroke-width="1.3096" stroke-miterlimit="10" points="397.215,498.523 397.215,514.918 
			306.699,514.918 194.443,514.918 98.427,514.918 98.427,498.523 98.427,484.904 98.427,471.232 98.427,457.56 98.427,443.888 
			98.427,432.993 119.589,432.993 139.495,432.993 159.4,432.993 179.305,432.993 199.21,432.993 219.116,432.993 239.073,432.993 
			258.979,432.993 278.884,432.993 298.79,432.993 318.695,432.993 338.6,432.993 358.505,432.993 378.411,432.993 397.215,432.993 
			397.215,443.888 397.215,457.56 397.215,471.232 397.215,484.904 		"/>
		<polygon fill="none" stroke="#231F20" stroke-width="1.3096" stroke-miterlimit="10" points="467.303,461.279 467.303,474.008 
			451.903,474.008 435.665,474.008 419.478,474.008 404.13,474.008 404.13,461.279 404.13,446.875 404.13,432.993 419.478,432.993 
			435.665,432.993 451.903,432.993 467.303,432.993 467.303,446.875 		"/>
		<polyline fill="none" stroke="#231F20" stroke-width="1.3096" stroke-miterlimit="10" points="419.478,433.045 419.478,446.875 
			419.478,461.279 419.478,473.956 		"/>
		<polyline fill="none" stroke="#231F20" stroke-width="1.3096" stroke-miterlimit="10" points="435.665,433.045 435.665,446.875 
			435.665,461.279 435.665,473.956 		"/>
		<polyline fill="none" stroke="#231F20" stroke-width="1.3096" stroke-miterlimit="10" points="451.903,433.045 451.903,446.875 
			451.903,461.279 451.903,473.956 		"/>
		<polyline fill="none" stroke="#231F20" stroke-width="1.3096" stroke-miterlimit="10" points="404.13,446.875 419.478,446.875 
			435.665,446.875 451.903,446.875 467.303,446.875 		"/>
		<polyline fill="none" stroke="#231F20" stroke-width="1.3096" stroke-miterlimit="10" points="404.13,461.279 419.478,461.279 
			435.665,461.279 451.903,461.279 467.303,461.279 		"/>
		<polyline fill="none" stroke="#231F20" stroke-width="1.3096" stroke-miterlimit="10" points="98.427,443.888 119.589,443.888 
			125.037,443.888 139.495,443.888 147.509,443.888 159.4,443.888 169.981,443.888 179.305,443.888 192.453,443.888 199.21,443.888 
			214.925,443.888 219.116,443.888 237.397,443.888 239.073,443.888 258.979,443.888 259.869,443.888 278.884,443.888 
			282.289,443.888 298.79,443.888 304.761,443.888 318.695,443.888 327.232,443.888 338.6,443.888 349.705,443.888 358.505,443.888 
			372.177,443.888 378.411,443.888 397.215,443.888 		"/>
		<polyline fill="none" stroke="#231F20" stroke-width="1.3096" stroke-miterlimit="10" points="98.427,457.56 125.037,457.56 
			132.213,457.56 147.509,457.56 155.733,457.56 169.981,457.56 179.252,457.56 192.453,457.56 202.72,457.56 214.925,457.56 
			226.24,457.56 237.397,457.56 249.759,457.56 259.869,457.56 273.227,457.56 282.289,457.56 296.747,457.56 304.761,457.56 
			320.266,457.56 327.232,457.56 343.732,457.56 349.705,457.56 363.376,457.56 372.177,457.56 397.215,457.56 		"/>
		<polyline fill="none" stroke="#231F20" stroke-width="1.3096" stroke-miterlimit="10" points="98.427,471.232 132.213,471.232 
			144.523,471.232 155.733,471.232 166.524,471.232 179.252,471.232 190.934,471.232 202.72,471.232 215.396,471.232 
			226.24,471.232 239.807,471.232 249.759,471.232 264.217,471.232 273.227,471.232 288.68,471.232 296.747,471.232 
			313.089,471.232 320.266,471.232 343.732,471.232 353.477,471.232 363.376,471.232 397.215,471.232 		"/>
		<polyline fill="none" stroke="#231F20" stroke-width="1.3096" stroke-miterlimit="10" points="98.427,484.904 137.504,484.904 
			144.523,484.904 159.819,484.904 166.524,484.904 182.134,484.904 190.934,484.904 203.663,484.904 204.396,484.904 
			215.396,484.904 226.711,484.904 239.807,484.904 249.026,484.904 264.217,484.904 271.289,484.904 288.68,484.904 
			293.604,484.904 313.089,484.904 315.918,484.904 338.182,484.904 353.477,484.904 360.496,484.904 397.215,484.904 		"/>
		<polyline fill="none" stroke="#231F20" stroke-width="1.3096" stroke-miterlimit="10" points="98.427,498.523 137.504,498.523 
			159.819,498.523 182.134,498.523 194.443,498.523 203.663,498.523 204.396,498.523 226.711,498.523 249.026,498.523 
			271.289,498.523 293.604,498.523 306.699,498.523 315.918,498.523 338.182,498.523 360.496,498.523 397.215,498.523 		"/>
		
			<line fill="none" stroke="#231F20" stroke-width="1.3096" stroke-miterlimit="10" x1="194.443" y1="498.523" x2="194.443" y2="514.918"/>
		
			<line fill="none" stroke="#231F20" stroke-width="1.3096" stroke-miterlimit="10" x1="306.699" y1="498.523" x2="306.699" y2="514.918"/>
		
			<line fill="none" stroke="#231F20" stroke-width="1.3096" stroke-miterlimit="10" x1="132.213" y1="457.56" x2="132.213" y2="471.232"/>
		
			<line fill="none" stroke="#231F20" stroke-width="1.3096" stroke-miterlimit="10" x1="144.523" y1="471.232" x2="144.523" y2="484.904"/>
		
			<line fill="none" stroke="#231F20" stroke-width="1.3096" stroke-miterlimit="10" x1="137.504" y1="484.904" x2="137.504" y2="498.523"/>
		
			<line fill="none" stroke="#231F20" stroke-width="1.3096" stroke-miterlimit="10" x1="372.177" y1="443.888" x2="372.177" y2="457.56"/>
		
			<line fill="none" stroke="#231F20" stroke-width="1.3096" stroke-miterlimit="10" x1="353.477" y1="471.232" x2="353.477" y2="484.904"/>
		
			<line fill="none" stroke="#231F20" stroke-width="1.3096" stroke-miterlimit="10" x1="360.496" y1="484.904" x2="360.496" y2="498.523"/>
		
			<line fill="none" stroke="#231F20" stroke-width="1.3096" stroke-miterlimit="10" x1="159.4" y1="432.993" x2="159.4" y2="443.888"/>
		
			<line fill="none" stroke="#231F20" stroke-width="1.3096" stroke-miterlimit="10" x1="179.305" y1="432.993" x2="179.305" y2="443.888"/>
		
			<line fill="none" stroke="#231F20" stroke-width="1.3096" stroke-miterlimit="10" x1="199.21" y1="432.993" x2="199.21" y2="443.888"/>
		
			<line fill="none" stroke="#231F20" stroke-width="1.3096" stroke-miterlimit="10" x1="219.116" y1="432.993" x2="219.116" y2="443.888"/>
		
			<line fill="none" stroke="#231F20" stroke-width="1.3096" stroke-miterlimit="10" x1="239.073" y1="432.993" x2="239.073" y2="443.888"/>
		
			<line fill="none" stroke="#231F20" stroke-width="1.3096" stroke-miterlimit="10" x1="258.979" y1="432.993" x2="258.979" y2="443.888"/>
		
			<line fill="none" stroke="#231F20" stroke-width="1.3096" stroke-miterlimit="10" x1="278.884" y1="432.993" x2="278.884" y2="443.888"/>
		
			<line fill="none" stroke="#231F20" stroke-width="1.3096" stroke-miterlimit="10" x1="298.79" y1="432.993" x2="298.79" y2="443.888"/>
		
			<line fill="none" stroke="#231F20" stroke-width="1.3096" stroke-miterlimit="10" x1="318.695" y1="432.993" x2="318.695" y2="443.888"/>
		
			<line fill="none" stroke="#231F20" stroke-width="1.3096" stroke-miterlimit="10" x1="338.6" y1="432.993" x2="338.6" y2="443.888"/>
		
			<line fill="none" stroke="#231F20" stroke-width="1.3096" stroke-miterlimit="10" x1="378.411" y1="432.993" x2="378.411" y2="443.888"/>
		<polyline fill="none" stroke="#231F20" stroke-width="1.3096" stroke-miterlimit="10" points="147.509,443.731 147.509,443.888 
			147.509,457.35 		"/>
		<polyline fill="none" stroke="#231F20" stroke-width="1.3096" stroke-miterlimit="10" points="169.981,443.731 169.981,443.888 
			169.981,457.35 		"/>
		<polyline fill="none" stroke="#231F20" stroke-width="1.3096" stroke-miterlimit="10" points="192.453,443.731 192.453,443.888 
			192.453,457.35 		"/>
		<polyline fill="none" stroke="#231F20" stroke-width="1.3096" stroke-miterlimit="10" points="237.397,443.731 237.397,443.888 
			237.397,457.35 		"/>
		<polyline fill="none" stroke="#231F20" stroke-width="1.3096" stroke-miterlimit="10" points="214.925,443.731 214.925,443.888 
			214.925,457.35 		"/>
		<polyline fill="none" stroke="#231F20" stroke-width="1.3096" stroke-miterlimit="10" points="259.869,443.731 259.869,443.888 
			259.869,457.35 		"/>
		<polyline fill="none" stroke="#231F20" stroke-width="1.3096" stroke-miterlimit="10" points="282.289,443.731 282.289,443.888 
			282.289,457.35 		"/>
		
			<line fill="none" stroke="#231F20" stroke-width="1.3096" stroke-miterlimit="10" x1="155.733" y1="457.56" x2="155.733" y2="471.232"/>
		
			<line fill="none" stroke="#231F20" stroke-width="1.3096" stroke-miterlimit="10" x1="179.252" y1="457.56" x2="179.252" y2="471.232"/>
		
			<line fill="none" stroke="#231F20" stroke-width="1.3096" stroke-miterlimit="10" x1="202.72" y1="457.56" x2="202.72" y2="471.232"/>
		
			<line fill="none" stroke="#231F20" stroke-width="1.3096" stroke-miterlimit="10" x1="249.759" y1="457.56" x2="249.759" y2="471.232"/>
		
			<line fill="none" stroke="#231F20" stroke-width="1.3096" stroke-miterlimit="10" x1="226.24" y1="457.56" x2="226.24" y2="471.232"/>
		
			<line fill="none" stroke="#231F20" stroke-width="1.3096" stroke-miterlimit="10" x1="273.227" y1="457.56" x2="273.227" y2="471.232"/>
		
			<line fill="none" stroke="#231F20" stroke-width="1.3096" stroke-miterlimit="10" x1="296.747" y1="457.56" x2="296.747" y2="471.232"/>
		
			<line fill="none" stroke="#231F20" stroke-width="1.3096" stroke-miterlimit="10" x1="166.524" y1="471.232" x2="166.524" y2="484.904"/>
		
			<line fill="none" stroke="#231F20" stroke-width="1.3096" stroke-miterlimit="10" x1="190.934" y1="471.232" x2="190.934" y2="484.904"/>
		
			<line fill="none" stroke="#231F20" stroke-width="1.3096" stroke-miterlimit="10" x1="215.396" y1="471.232" x2="215.396" y2="484.904"/>
		
			<line fill="none" stroke="#231F20" stroke-width="1.3096" stroke-miterlimit="10" x1="264.217" y1="471.232" x2="264.217" y2="484.904"/>
		
			<line fill="none" stroke="#231F20" stroke-width="1.3096" stroke-miterlimit="10" x1="239.807" y1="471.232" x2="239.807" y2="484.904"/>
		
			<line fill="none" stroke="#231F20" stroke-width="1.3096" stroke-miterlimit="10" x1="288.68" y1="471.232" x2="288.68" y2="484.904"/>
		
			<line fill="none" stroke="#231F20" stroke-width="1.3096" stroke-miterlimit="10" x1="313.089" y1="471.232" x2="313.089" y2="484.904"/>
		
			<line fill="none" stroke="#231F20" stroke-width="1.3096" stroke-miterlimit="10" x1="204.396" y1="484.904" x2="204.396" y2="498.523"/>
		
			<line fill="none" stroke="#231F20" stroke-width="1.3096" stroke-miterlimit="10" x1="226.711" y1="484.904" x2="226.711" y2="498.523"/>
		
			<line fill="none" stroke="#231F20" stroke-width="1.3096" stroke-miterlimit="10" x1="249.026" y1="484.904" x2="249.026" y2="498.523"/>
		
			<line fill="none" stroke="#231F20" stroke-width="1.3096" stroke-miterlimit="10" x1="293.604" y1="484.904" x2="293.604" y2="498.523"/>
		
			<line fill="none" stroke="#231F20" stroke-width="1.3096" stroke-miterlimit="10" x1="271.289" y1="484.904" x2="271.289" y2="498.523"/>
		
			<line fill="none" stroke="#231F20" stroke-width="1.3096" stroke-miterlimit="10" x1="315.918" y1="484.904" x2="315.918" y2="498.523"/>
		
			<line fill="none" stroke="#231F20" stroke-width="1.3096" stroke-miterlimit="10" x1="338.182" y1="484.904" x2="338.182" y2="498.523"/>
		
			<line fill="none" stroke="#231F20" stroke-width="1.3096" stroke-miterlimit="10" x1="119.589" y1="433.097" x2="119.589" y2="443.784"/>
		<polyline fill="none" stroke="#231F20" stroke-width="1.3096" stroke-miterlimit="10" points="125.037,443.731 125.037,443.888 
			125.037,457.56 		"/>
		
			<line fill="none" stroke="#231F20" stroke-width="1.3096" stroke-miterlimit="10" x1="139.495" y1="433.097" x2="139.495" y2="443.784"/>
		<polyline fill="none" stroke="#231F20" stroke-width="1.3096" stroke-miterlimit="10" points="304.761,443.731 304.761,443.888 
			304.761,457.35 		"/>
		<polyline fill="none" stroke="#231F20" stroke-width="1.3096" stroke-miterlimit="10" points="327.232,443.731 327.232,443.888 
			327.232,457.35 		"/>
		<polyline fill="none" stroke="#231F20" stroke-width="1.3096" stroke-miterlimit="10" points="349.705,443.731 349.705,443.888 
			349.705,457.35 		"/>
		
			<line fill="none" stroke="#231F20" stroke-width="1.3096" stroke-miterlimit="10" x1="343.732" y1="457.56" x2="343.732" y2="471.232"/>
		
			<line fill="none" stroke="#231F20" stroke-width="1.3096" stroke-miterlimit="10" x1="320.266" y1="457.56" x2="320.266" y2="471.232"/>
		
			<line fill="none" stroke="#231F20" stroke-width="1.3096" stroke-miterlimit="10" x1="363.376" y1="457.56" x2="363.376" y2="471.232"/>
		
			<line fill="none" stroke="#231F20" stroke-width="1.3096" stroke-miterlimit="10" x1="358.505" y1="432.993" x2="358.505" y2="443.888"/>
		
			<line fill="none" stroke="#231F20" stroke-width="1.3096" stroke-miterlimit="10" x1="159.819" y1="484.904" x2="159.819" y2="498.523"/>
		
			<line fill="none" stroke="#231F20" stroke-width="1.3096" stroke-miterlimit="10" x1="182.134" y1="484.904" x2="182.134" y2="498.523"/>
		
			<line fill="none" stroke="#231F20" stroke-width="1.3096" stroke-miterlimit="10" x1="203.663" y1="484.904" x2="203.663" y2="498.523"/>
		<polygon fill="none" stroke="#231F20" stroke-width="1.3096" stroke-miterlimit="10" points="445.722,498.576 461.436,498.576 
			461.436,514.918 445.722,514.918 428.592,514.918 411.149,514.918 411.149,498.576 428.592,498.576 		"/>
		<polyline fill="none" stroke="#231F20" stroke-width="1.3096" stroke-miterlimit="10" points="428.592,514.918 428.592,498.576 
			428.592,484.904 445.722,484.904 445.722,498.576 445.722,514.918 		"/>
		<polyline fill="none" stroke="#231F20" stroke-width="2.6191" stroke-miterlimit="10" points="93.555,215.71 94.131,215.71 
			476.889,215.71 477.465,215.71 		"/>
		<polygon fill="none" stroke="#231F20" stroke-width="1.3096" stroke-miterlimit="10" points="219.849,341.585 223.463,343.681 
			234.411,349.915 287.16,380.139 283.703,386.163 230.954,355.991 220.006,349.705 216.339,347.61 		"/>
		<polyline fill="none" stroke="#231F20" stroke-width="1.3096" stroke-miterlimit="10" points="219.849,341.585 206.387,337.918 
			216.339,347.61 		"/>
		<polygon fill="none" stroke="#231F20" stroke-width="1.3096" stroke-miterlimit="10" points="234.411,349.915 235.145,348.657 
			224.197,342.372 223.463,343.681 220.006,349.705 219.273,351.014 230.221,357.248 230.954,355.991 		"/>
		<path fill="none" stroke="#231F20" stroke-width="1.3096" stroke-miterlimit="10" d="M287.16,380.139
			c0,0,10.109,9.743-3.457,6.023"/>
	</g>
</g>
<rect x="141.217" y="109.421" fill="none" width="288.551" height="58.93"/>
<text transform="matrix(1 0 0 1 141.2173 150.6982)" fill="#FFFFFF" font-family="'Geneva'" font-size="52.3824">Design/Dev</text>
</svg>
