<?xml version="1.0" encoding="utf-8"?>
<!-- Generator: Adobe Illustrator 15.0.2, SVG Export Plug-In . SVG Version: 6.00 Build 0)  -->
<!DOCTYPE svg PUBLIC "-//W3C//DTD SVG 1.1//EN" "http://www.w3.org/Graphics/SVG/1.1/DTD/svg11.dtd">
<svg version="1.1" id="Layer_1" xmlns="http://www.w3.org/2000/svg" xmlns:xlink="http://www.w3.org/1999/xlink" x="0px" y="0px"
	 width="560px" height="560px" viewBox="0 0 560 560" enable-background="new 0 0 560 560" xml:space="preserve">
<g>
	<g id="XMLID_1_">
		<g>
			<path d="M481.15,474.85c14.39-16.869,25.25-37.279,39.199-54.6c9.57,0,19.131,0,28.7,0c-20.37,35.86-52.72,59.74-66.5,102.2
				c-8.87,0-17.729,0-26.6,0c11.189-19.05-1.79-41.63-4.9-60.9c8.87,0,17.73,0,26.601,0C478.31,466.49,480.41,469.99,481.15,474.85z
				"/>
			<path d="M402.05,432.85c28.46,3.511,76.05-12.119,73.5,22.4c-17.97,0-35.93,0-53.899,0c-6.19,21.58-9.69,45.84-15.4,67.9
				c-7.93,0-15.87,0-23.8,0C388.84,492.91,394.69,462.12,402.05,432.85z"/>
			<path d="M318.75,487.45c-3.96,23.33,35.82,10.64,53.2,14.7c-0.66,7.739-2.91,13.89-4.2,21c-30.93-1.391-72.64,8.63-75.6-20.301
				c-1.54-15.04,5.739-42.09,12.6-52.5c13.91-21.119,62.38-29.35,74.2-4.899c5.84,12.08-0.11,28.96-2.101,41.3
				C357.71,487.21,336.73,485.83,318.75,487.45z M355.15,467.15c4.38-20.91-32.761-16.181-32.2,0
				C333.68,467.15,344.42,467.15,355.15,467.15z"/>
			<path fill="#FFFFFF" d="M322.95,467.15c-0.561-16.181,36.58-20.91,32.2,0C344.42,467.15,333.68,467.15,322.95,467.15z"/>
			<path fill="#2B65D7" d="M312.45,1.65c0.59-0.13,0.66,0.27,0.7,0.7c-6.591,39.75,8.55,67.26,31.5,86.8
				c27.359,23.3,72.71,38.1,109.899,16.1c-25.45,44.61-96.16,35.91-128.1,4.9c-14.57-14.14-27.45-35.97-29.4-56
				C294.8,31.1,303.04,14.91,312.45,1.65z"/>
			<path d="M215.85,433.55c7.47,0,14.93,0,22.4,0c-1.22,23.58-12.12,40.99-8.4,67.2c8.17,0,16.33,0,24.5,0
				c6.49-21.04,10.45-44.62,15.4-67.2c7.93,0,15.87,0,23.8,0c-6.41,29.75-12.64,59.69-18.9,89.601
				c-29.98-2.061-68.15,8.689-71.4-19.601c-2.48-21.59,9.31-47.5,11.2-67.899C214.42,434.45,214.97,433.84,215.85,433.55z"/>
			<path fill="#2B65D7" d="M230.55,24.05c-18.43,80.18,22.52,132.61,69.3,161c24.74,15.02,57.48,27.73,93.801,23.8
				c35.529-3.84,58.42-18.86,78.399-40.6c-17.22,44.19-60.24,74.65-120.399,74.2c-59.96-0.44-103.121-33.53-128.101-72.1
				c-23.87-36.86-30.09-96.53-3.5-135.1c1.65-2.4,3.82-4.77,5.6-7C226.75,26.88,227.72,22.99,230.55,24.05z"/>
			<path d="M84.95,483.95c-0.08-38.71,23.1-80.62,72.1-75.601c23.48,2.4,38.35,19.9,38.5,41.301c0.12,17.54-9.36,33.72-14,50.399
				c2.58,1.62,8.16,0.24,11.9,0.7c-0.81,8.29-3.6,14.6-4.9,22.4c-33.18-4.19-70.7,8.22-90.3-6.301
				C90.01,510.74,84.98,499.51,84.95,483.95z M113.65,490.25c4.52,12.89,24.46,9.38,42.7,9.8c2.66-19.609,23.84-54.67,2.1-65.8
				c-12.05-6.17-28.69-0.14-34.3,7.7c-3.55,4.96-6.51,13.97-8.4,21.7C114.14,470.22,111.24,483.37,113.65,490.25z"/>
			<path fill="#2B65D7" d="M131.15,57.65c-7.94,37.5-9.17,74.78,0,107.1c17.36,61.22,59.98,98.83,111.3,127.4
				c44.92,25.01,115.21,32.279,168,10.5c17.72-7.311,32.81-18.811,46.2-30.8c1-0.9,2.79-3.73,4.899-2.8
				c-24.1,43.601-60.79,76.681-113.399,88.9c-58.61,13.609-121.99-2.25-163.101-29.4c-40.55-26.78-72.7-67.07-87.5-114.8
				c-19.48-62.85-3.34-123.31,32.9-156.8C131.05,56.82,131.11,57.22,131.15,57.65z"/>
			<path d="M56.95,433.55c8.4,0,16.8,0,25.2,0c-1,7.17-2.71,13.62-4.2,20.3c-8.63,0-17.27,0-25.9,0
				C53.91,447.31,55.15,440.15,56.95,433.55z"/>
			<path d="M17.75,560.25c-1.1-1.93-5,0.47-6.3-1.4c-1.96-2.819,6.11-16.949,4.9-21c4.61-0.76,9.9-0.83,14-2.1
				c12.92-19.28,11.49-52.91,21.7-74.9c7.94,0.46,17.73-0.93,24.5,0.7c-3.51,13.36-6.07,29.87-9.8,46.2
				c-5.53,24.25-8.57,49.83-32.2,52.5C28.95,560.25,23.35,560.25,17.75,560.25z"/>
		</g>
		<g>
		</g>
	</g>
</g>
</svg>
