<?xml version="1.0" encoding="utf-8"?>
<!-- Generator: Adobe Illustrator 15.0.2, SVG Export Plug-In  -->
<!DOCTYPE svg PUBLIC "-//W3C//DTD SVG 1.1//EN" "http://www.w3.org/Graphics/SVG/1.1/DTD/svg11.dtd" [
	<!ENTITY ns_flows "http://ns.adobe.com/Flows/1.0/">
]>
<svg version="1.1"
	 xmlns="http://www.w3.org/2000/svg" xmlns:xlink="http://www.w3.org/1999/xlink" xmlns:a="http://ns.adobe.com/AdobeSVGViewerExtensions/3.0/"
	 x="0px" y="0px" width="648px" height="648px" viewBox="2.25 2.25 648 648"
	 overflow="visible" enable-background="new 2.25 2.25 648 648" xml:space="preserve">
<defs>
</defs>
<g id="XMLID_1_">
	<g>
		<path fill="#231F20" d="M650.25,74.25v504c0,39.779-32.22,72-72,72h-504c-39.78,0-72-32.221-72-72v-504c0-39.78,32.22-72,72-72
			h504C618.03,2.25,650.25,34.47,650.25,74.25z M632.79,564.63V87.87c0-37.62-30.479-68.16-68.16-68.16H87.87
			c-37.62,0-68.16,30.54-68.16,68.16v476.76c0,37.68,30.54,68.16,68.16,68.16h476.76C602.31,632.791,632.79,602.31,632.79,564.63z"
			/>
		<path fill="#BBBDBF" d="M583.83,92.79v25.68h-71.52v-1.98c15.239,0,28.2-9.96,32.7-23.7H583.83z"/>
		<path fill="#808184" d="M583.29,336.45c3.42,21.421-10.56,43.32-10.56,43.32s-11.76-2.58-27.9-3.359
			c1.681-2.641,22.98-36.66,18.181-67.38c0,0-4.5-13.86-12-28.02C572.43,285.99,583.29,336.45,583.29,336.45z"/>
		<path fill="#FFFFFF" d="M544.83,376.411c16.141,0.779,27.9,3.359,27.9,3.359v41.28H455.31c2.88-10.2,7.859-18.18,14.279-24.42
			c11.94-11.58,28.681-17.04,45.24-19.26C525.39,375.99,535.77,375.93,544.83,376.411z"/>
		<path fill="#FFFFFF" d="M455.31,421.05h117.42c-5.94,116.04-45.78,150.6-66.54,160.8C457.049,500.97,446.79,451.291,455.31,421.05
			z"/>
		<path fill="#BBBDBF" d="M563.01,309.03c4.8,30.72-16.5,64.74-18.181,67.38c-9.06-0.48-19.439-0.421-30,0.96l-0.12-0.78
			c0,0,32.28-50.34,13.08-109.5c0,0-2.1-7.56-7.38-15.6c12.3,0.72,23.04,15.24,30.601,29.52
			C558.51,295.17,563.01,309.03,563.01,309.03z"/>
		<path fill="#404041" d="M551.01,202.71v78.3c-7.561-14.28-18.301-28.8-30.601-29.52c-7.2-11.04-20.28-22.98-41.88-17.82
			c-22.5-15.6-53.16-10.62-53.16-10.62c-21.96-4.44,0,21,0,21c49.021,0,42.84,48.12,42.84,48.12c0,27-31.439,68.22-31.439,68.22
			s-29.28,31.86-22.26,60.66c0,0,0.6,9.06,2.399,22.979c-1.02-4.859-7.08-28.979-27.18-28.979c-3.42-28.021-3.66-55.98-3.66-55.98
			c-12.78-59.7-27.3,0-27.3,0v55.98c0,0,10.62,70.5,17.64,82.32c0,0,2.16,11.399,9.54,26.04h-62.16v-192h0.48
			c1.32,0,65.46-0.66,65.46-128.581v-0.12H551.01z"/>
		<path fill="#231F20" d="M546.75,82.05c0,3.72-0.6,7.38-1.739,10.74H533.91l-53.28-24.24c5.28-12.3,17.46-20.94,31.681-20.94
			C531.33,47.61,546.75,63.03,546.75,82.05z"/>
		<path fill="#231F20" d="M533.91,92.79h11.101c-4.5,13.74-17.461,23.7-32.7,23.7c-15.24,0-28.2-9.96-32.7-23.7H533.91z"/>
		<path fill="#FFFFFF" d="M533.91,92.79h-54.3c-1.14-3.36-1.74-7.02-1.74-10.74c0-4.8,0.96-9.36,2.76-13.5L533.91,92.79z"/>
		<path fill="#929497" d="M527.79,267.09c19.2,59.16-13.08,109.5-13.08,109.5l0.12,0.78c-16.56,2.22-33.3,7.68-45.24,19.26
			l-0.659-0.66c33.06-59.1,33.06-109.38,33.06-109.38c0-27.96-10.32-43.92-23.46-52.92c21.6-5.16,34.68,6.78,41.88,17.82
			C525.69,259.53,527.79,267.09,527.79,267.09z"/>
		<path fill="#BBBDBF" d="M512.31,116.49v1.98H312.93c-8.7-13.5-22.02-22.92-37.26-25.14l0.06-0.54h203.88
			C484.11,106.53,497.07,116.49,512.31,116.49z"/>
		<path fill="#FFFFFF" d="M478.53,233.67c13.14,9,23.46,24.96,23.46,52.92c0,0,0,50.28-33.06,109.38l0.659,0.66
			c-6.42,6.24-11.399,14.22-14.279,24.42h-40.8c-7.021-28.8,22.26-60.66,22.26-60.66s31.439-41.22,31.439-68.22
			c0,0,6.181-48.12-42.84-48.12c0,0-21.96-25.44,0-21C425.37,223.05,456.03,218.07,478.53,233.67z"/>
		<path fill="#6D6E70" d="M506.19,581.85c-7.5,3.72-12.54,4.2-12.54,4.2c-52.021,0-70.68-95.521-76.62-141.18
			c0,0-0.06-0.301-0.12-0.841c-1.8-13.92-2.399-22.979-2.399-22.979h40.8C446.79,451.291,457.049,500.97,506.19,581.85z"/>
		<path fill="#6D6E70" d="M457.709,58.17l22.92,10.38c-1.8,4.14-2.76,8.7-2.76,13.5c0,3.72,0.601,7.38,1.74,10.74H275.73l-0.06,0.54
			c-2.34-0.36-4.68-0.54-7.08-0.54H93.51c-29.52,0-53.64,26.64-55.14,60.12c1.08-93.12,51.36-94.74,51.36-94.74H457.709z"/>
		<path fill="#F1F1F2" d="M385.95,523.411c-7.38-14.641-9.54-26.04-9.54-26.04c-7.02-11.82-17.64-82.32-17.64-82.32h30.96
			c20.1,0,26.16,24.12,27.18,28.979c0.061,0.54,0.12,0.841,0.12,0.841c5.94,45.659,24.6,141.18,76.62,141.18
			C429.15,586.05,399.15,549.57,385.95,523.411z"/>
		<path fill="#F1F1F2" d="M389.73,202.71v0.12c0,127.92-64.14,128.581-65.46,128.581h-0.48V202.71h0.24H389.73z"/>
		<path fill="#FFFFFF" d="M389.73,415.05h-30.96v-55.98c0,0,14.52-59.7,27.3,0C386.07,359.07,386.31,387.03,389.73,415.05z"/>
		<path fill="#F1F1F2" d="M312.93,118.47c6.84,10.56,10.86,23.58,10.86,37.68v46.56v128.701v192v4.02
			c0,35.04-24.72,63.36-55.2,63.36H93.51c-30.48,0-55.2-28.32-55.2-63.36V156.15c0-1.08,0-2.16,0.06-3.24
			c1.5-33.48,25.62-60.12,55.14-60.12h175.08c2.4,0,4.74,0.18,7.08,0.54C290.91,95.55,304.23,104.97,312.93,118.47z M295.95,523.411
			V160.23H66.15v363.181H295.95z M195.63,555.57c0-8.04-6.54-14.58-14.58-14.58s-14.58,6.54-14.58,14.58s6.54,14.521,14.58,14.521
			S195.63,563.61,195.63,555.57z"/>
		<path fill="#FFFFFF" d="M295.95,160.23v363.181H66.15V160.23H295.95z M274.05,422.67V202.71l-186,0.12v219.84H274.05z
			 M233.73,480.09v-35.22H129.75v35.22H233.73z"/>
		<path fill="#58595B" d="M274.05,202.71v219.96h-186V202.83L274.05,202.71z M240.03,308.31c0-32.58-26.4-58.98-58.98-58.98
			s-58.98,26.4-58.98,58.98s26.4,58.98,58.98,58.98S240.03,340.89,240.03,308.31z"/>
		<rect x="129.75" y="444.871" fill="#FFFFFF" width="103.98" height="35.22"/>
		<path fill="#FFFFFF" d="M181.05,249.33c32.58,0,58.98,26.4,58.98,58.98s-26.4,58.98-58.98,58.98s-58.98-26.4-58.98-58.98
			S148.47,249.33,181.05,249.33z M216.39,296.07c0-2.16-1.8-3.9-3.9-3.9c-2.16,0-3.96,1.74-3.96,3.9c0,2.16,1.8,3.9,3.96,3.9
			C214.59,299.97,216.39,298.23,216.39,296.07z M153.57,296.07c0-2.16-1.74-3.9-3.9-3.9c-2.16,0-3.9,1.74-3.9,3.9
			c0,2.16,1.74,3.9,3.9,3.9C151.83,299.97,153.57,298.23,153.57,296.07z"/>
		<path fill="#231F20" d="M212.49,292.17c2.1,0,3.9,1.74,3.9,3.9c0,2.16-1.8,3.9-3.9,3.9c-2.16,0-3.96-1.74-3.96-3.9
			C208.53,293.91,210.33,292.17,212.49,292.17z"/>
		<path fill="#FFFFFF" d="M181.05,540.99c8.04,0,14.58,6.54,14.58,14.58s-6.54,14.521-14.58,14.521s-14.58-6.48-14.58-14.521
			S173.01,540.99,181.05,540.99z"/>
		<path fill="#231F20" d="M149.67,292.17c2.16,0,3.9,1.74,3.9,3.9c0,2.16-1.74,3.9-3.9,3.9c-2.16,0-3.9-1.74-3.9-3.9
			C145.77,293.91,147.51,292.17,149.67,292.17z"/>
	</g>
	<g>
		<path fill="none" stroke="#231F20" stroke-width="4.5" stroke-miterlimit="10" d="M650.25,578.25c0,39.779-32.22,72-72,72h-504
			c-39.78,0-72-32.221-72-72v-504c0-39.78,32.22-72,72-72h504c39.78,0,72,32.22,72,72V578.25z"/>
		<path fill="none" stroke="#231F20" stroke-width="4.5" stroke-miterlimit="10" d="M38.37,152.91
			c1.5-33.48,25.62-60.12,55.14-60.12h175.08c2.4,0,4.74,0.18,7.08,0.54c15.24,2.22,28.56,11.64,37.26,25.14
			c6.84,10.56,10.86,23.58,10.86,37.68v46.56v128.701v192v4.02c0,35.04-24.72,63.36-55.2,63.36H93.51
			c-30.48,0-55.2-28.32-55.2-63.36V156.15"/>
		
			<rect x="66.15" y="160.23" fill="none" stroke="#231F20" stroke-width="4.5" stroke-miterlimit="10" width="229.8" height="363.181"/>
		<path fill="none" stroke="#231F20" stroke-width="4.5" stroke-miterlimit="10" d="M195.63,555.57c0,8.04-6.54,14.521-14.58,14.521
			s-14.58-6.48-14.58-14.521s6.54-14.58,14.58-14.58S195.63,547.53,195.63,555.57z"/>
		<path fill="none" stroke="#231F20" stroke-width="4.5" stroke-miterlimit="10" d="M417.03,444.871
			c5.94,45.659,24.6,141.18,76.62,141.18c0,0,5.04-0.48,12.54-4.2c20.76-10.2,60.6-44.76,66.54-160.8H455.31h-40.8
			c0,0,0.6,9.06,2.399,22.979"/>
		<line fill="none" stroke="#231F20" stroke-width="4.5" stroke-miterlimit="10" x1="572.73" y1="379.77" x2="572.73" y2="421.05"/>
		<path fill="none" stroke="#231F20" stroke-width="4.5" stroke-miterlimit="10" d="M493.65,586.05c-64.5,0-94.5-36.48-107.7-62.64
			c-7.38-14.641-9.54-26.04-9.54-26.04"/>
		<path fill="none" stroke="#231F20" stroke-width="4.5" stroke-miterlimit="10" d="M417.03,444.871c0,0-0.06-0.301-0.12-0.841
			c-1.02-4.859-7.08-28.979-27.18-28.979h-30.96c0,0,10.62,70.5,17.64,82.32"/>
		<path fill="none" stroke="#231F20" stroke-width="4.5" stroke-miterlimit="10" d="M358.77,415.05v-55.98c0,0,14.52-59.7,27.3,0
			c0,0,0.24,27.96,3.66,55.98"/>
		<path fill="none" stroke="#231F20" stroke-width="4.5" stroke-miterlimit="10" d="M468.93,395.97
			c33.06-59.1,33.06-109.38,33.06-109.38c0-27.96-10.32-43.92-23.46-52.92c-22.5-15.6-53.16-10.62-53.16-10.62
			c-21.96-4.44,0,21,0,21c49.021,0,42.84,48.12,42.84,48.12c0,27-31.439,68.22-31.439,68.22s-29.28,31.86-22.26,60.66"/>
		<path fill="none" stroke="#231F20" stroke-width="4.5" stroke-miterlimit="10" d="M514.709,376.59c0,0,32.28-50.34,13.08-109.5
			c0,0-2.1-7.56-7.38-15.6c-7.2-11.04-20.28-22.98-41.88-17.82c-0.66,0.12-1.32,0.3-2.04,0.48"/>
		<path fill="none" stroke="#231F20" stroke-width="4.5" stroke-miterlimit="10" d="M544.709,376.59c0,0,0.061-0.061,0.12-0.18
			c1.681-2.641,22.98-36.66,18.181-67.38c0,0-4.5-13.86-12-28.02c-7.561-14.28-18.301-28.8-30.601-29.52"/>
		<path fill="none" stroke="#231F20" stroke-width="4.5" stroke-miterlimit="10" d="M324.03,202.71h65.7h161.28v78.3
			c21.42,4.98,32.279,55.439,32.279,55.439c3.42,21.421-10.56,43.32-10.56,43.32s-11.76-2.58-27.9-3.359
			c-9.06-0.48-19.439-0.421-30,0.96c-16.56,2.22-33.3,7.68-45.24,19.26c-6.42,6.24-11.399,14.22-14.279,24.42
			c-8.521,30.24,1.739,79.92,50.88,160.8"/>
		<polyline fill="none" stroke="#231F20" stroke-width="4.5" stroke-miterlimit="10" points="323.79,523.411 385.95,523.411 
			386.01,523.411 		"/>
		<polygon fill="none" stroke="#231F20" stroke-width="4.5" stroke-miterlimit="10" points="274.05,202.71 88.05,202.83 
			88.05,422.67 274.05,422.67 		"/>
		<polyline fill="none" stroke="#231F20" stroke-width="4.5" stroke-miterlimit="10" points="251.73,444.871 275.73,462.09 
			251.73,479.49 		"/>
		<polyline fill="none" stroke="#231F20" stroke-width="4.5" stroke-miterlimit="10" points="113.73,444.871 89.73,462.09 
			113.73,479.49 		"/>
		<path fill="none" stroke="#231F20" stroke-width="4.5" stroke-miterlimit="10" d="M240.03,308.31c0,32.58-26.4,58.98-58.98,58.98
			s-58.98-26.4-58.98-58.98s26.4-58.98,58.98-58.98S240.03,275.73,240.03,308.31z"/>
		<path fill="none" stroke="#231F20" stroke-width="4.5" stroke-miterlimit="10" d="M138.03,312.69c0,0,3.66,36.959,43.02,36.959"/>
		<path fill="none" stroke="#231F20" stroke-width="4.5" stroke-miterlimit="10" d="M224.07,312.87c0,0-0.54,37.02-43.02,37.02"/>
		<path fill="none" stroke="#231F20" stroke-width="4.5" stroke-miterlimit="10" d="M153.57,296.07c0,2.16-1.74,3.9-3.9,3.9
			c-2.16,0-3.9-1.74-3.9-3.9c0-2.16,1.74-3.9,3.9-3.9C151.83,292.17,153.57,293.91,153.57,296.07z"/>
		<path fill="none" stroke="#231F20" stroke-width="4.5" stroke-miterlimit="10" d="M216.39,296.07c0,2.16-1.8,3.9-3.9,3.9
			c-2.16,0-3.96-1.74-3.96-3.9c0-2.16,1.8-3.9,3.96-3.9C214.59,292.17,216.39,293.91,216.39,296.07z"/>
		<path fill="none" stroke="#231F20" stroke-width="4.5" stroke-miterlimit="10" d="M324.27,331.411
			c1.32,0,65.46-0.66,65.46-128.581"/>
		<path fill="none" stroke="#231F20" stroke-width="4.5" stroke-miterlimit="10" d="M632.79,564.63
			c0,37.68-30.479,68.16-68.16,68.16H87.87c-37.62,0-68.16-30.48-68.16-68.16V87.87c0-37.62,30.54-68.16,68.16-68.16h476.76
			c37.681,0,68.16,30.54,68.16,68.16V564.63z"/>
		
			<rect x="129.75" y="444.871" fill="none" stroke="#231F20" stroke-width="4.5" stroke-miterlimit="10" width="103.98" height="35.22"/>
		<polyline fill="none" stroke="#231F20" stroke-width="4.5" stroke-miterlimit="10" points="275.73,92.79 479.61,92.79 
			533.91,92.79 545.01,92.79 583.83,92.79 		"/>
		<line fill="none" stroke="#231F20" stroke-width="4.5" stroke-miterlimit="10" x1="583.83" y1="92.79" x2="583.83" y2="118.47"/>
		<polyline fill="none" stroke="#231F20" stroke-width="4.5" stroke-miterlimit="10" points="583.83,118.47 512.31,118.47 
			312.93,118.47 312.87,118.47 		"/>
		<path fill="none" stroke="#231F20" stroke-width="4.5" stroke-miterlimit="10" d="M533.91,92.79l-53.28-24.24l-22.92-10.38H89.73
			c0,0-50.28,1.62-51.36,94.74c-0.06,1.08-0.06,2.16-0.06,3.24"/>
		<path fill="none" stroke="#231F20" stroke-width="3.9421" stroke-miterlimit="10" d="M480.629,68.55
			c5.28-12.3,17.46-20.94,31.681-20.94c19.02,0,34.439,15.42,34.439,34.44c0,3.72-0.6,7.38-1.739,10.74
			c-4.5,13.74-17.461,23.7-32.7,23.7c-15.24,0-28.2-9.96-32.7-23.7c-1.14-3.36-1.74-7.02-1.74-10.74
			C477.87,77.25,478.83,72.69,480.629,68.55z"/>
	</g>
</g>
<rect x="333.92" y="134.053" fill="none" width="277.383" height="57.152"/>
<text transform="matrix(1 0 0 1 333.9204 180.9126)" fill="#231F20" font-family="'MyriadPro-Regular'" font-size="66">UI Design</text>
</svg>
